G75*
G70*
%OFA0B0*%
%FSLAX24Y24*%
%IPPOS*%
%LPD*%
%AMOC8*
5,1,8,0,0,1.08239X$1,22.5*
%
%ADD10C,0.0660*%
%ADD11C,0.0740*%
%ADD12OC8,0.0520*%
%ADD13C,0.0650*%
%ADD14C,0.0800*%
%ADD15C,0.0787*%
%ADD16C,0.0520*%
%ADD17C,0.0100*%
D10*
X009500Y007860D02*
X009500Y008520D01*
X010500Y008520D02*
X010500Y007860D01*
X011500Y007860D02*
X011500Y008520D01*
X012500Y008520D02*
X012500Y007860D01*
X013500Y007860D02*
X013500Y008520D01*
X014500Y008520D02*
X014500Y007860D01*
X015500Y007860D02*
X015500Y008520D01*
X016500Y008520D02*
X016500Y007860D01*
X017500Y007860D02*
X017500Y008520D01*
X018500Y008520D02*
X018500Y007860D01*
X018500Y010860D02*
X018500Y011520D01*
X017500Y011520D02*
X017500Y010860D01*
X016500Y010860D02*
X016500Y011520D01*
X015500Y011520D02*
X015500Y010860D01*
X014500Y010860D02*
X014500Y011520D01*
X013500Y011520D02*
X013500Y010860D01*
X012500Y010860D02*
X012500Y011520D01*
X011500Y011520D02*
X011500Y010860D01*
X010500Y010860D02*
X010500Y011520D01*
X009500Y011520D02*
X009500Y010860D01*
D11*
X006000Y015690D03*
X006000Y016690D03*
X003500Y015690D03*
X003500Y014690D03*
X008000Y004690D03*
X009500Y004690D03*
X010500Y004690D03*
X011500Y004690D03*
X012500Y004690D03*
X013500Y004690D03*
X014500Y004690D03*
X015500Y004690D03*
X016500Y004690D03*
X017500Y004690D03*
X018500Y004690D03*
D12*
X007500Y008190D03*
X007500Y011190D03*
D13*
X008000Y012690D03*
X008000Y013690D03*
X017000Y019690D03*
X018000Y019690D03*
D14*
X018000Y017690D03*
X015000Y017690D03*
X010000Y018690D03*
X007500Y018690D03*
X004500Y018690D03*
X010000Y015690D03*
X020500Y014190D03*
X022000Y014190D03*
X022000Y011190D03*
X020500Y011190D03*
D15*
X005933Y012280D02*
X005933Y013068D01*
X005146Y010706D02*
X004358Y010706D01*
X003453Y012280D02*
X003453Y013068D01*
D16*
X005240Y009190D02*
X005760Y009190D01*
X005760Y008190D02*
X005240Y008190D01*
X005240Y007190D02*
X005760Y007190D01*
D17*
X004995Y004721D02*
X007950Y004721D01*
X007950Y004740D02*
X007950Y004640D01*
X007481Y004640D01*
X007493Y004568D01*
X007518Y004490D01*
X007555Y004417D01*
X007603Y004351D01*
X007661Y004293D01*
X007727Y004245D01*
X007800Y004208D01*
X007878Y004183D01*
X007950Y004171D01*
X007950Y004640D01*
X008050Y004640D01*
X008050Y004740D01*
X007950Y004740D01*
X007950Y005208D01*
X007878Y005197D01*
X007800Y005172D01*
X007727Y005135D01*
X007661Y005087D01*
X007603Y005029D01*
X007555Y004962D01*
X007518Y004890D01*
X007493Y004812D01*
X007481Y004740D01*
X007950Y004740D01*
X007950Y004819D02*
X008050Y004819D01*
X008050Y004740D02*
X008050Y005208D01*
X008122Y005197D01*
X008200Y005172D01*
X008273Y005135D01*
X008339Y005087D01*
X008397Y005029D01*
X008445Y004962D01*
X008482Y004890D01*
X008507Y004812D01*
X008519Y004740D01*
X008050Y004740D01*
X008050Y004721D02*
X008960Y004721D01*
X008960Y004797D02*
X008960Y004583D01*
X009042Y004384D01*
X009194Y004232D01*
X009393Y004150D01*
X009607Y004150D01*
X009806Y004232D01*
X009958Y004384D01*
X010000Y004486D01*
X010042Y004384D01*
X010194Y004232D01*
X010393Y004150D01*
X010607Y004150D01*
X010806Y004232D01*
X010958Y004384D01*
X011000Y004486D01*
X011042Y004384D01*
X011194Y004232D01*
X011393Y004150D01*
X011607Y004150D01*
X011806Y004232D01*
X011958Y004384D01*
X012000Y004486D01*
X012042Y004384D01*
X012194Y004232D01*
X012393Y004150D01*
X012607Y004150D01*
X012806Y004232D01*
X012958Y004384D01*
X013000Y004486D01*
X013042Y004384D01*
X013194Y004232D01*
X013393Y004150D01*
X013607Y004150D01*
X013806Y004232D01*
X013958Y004384D01*
X014000Y004486D01*
X014042Y004384D01*
X014194Y004232D01*
X014393Y004150D01*
X014607Y004150D01*
X014806Y004232D01*
X014958Y004384D01*
X015000Y004486D01*
X015042Y004384D01*
X015194Y004232D01*
X015393Y004150D01*
X015607Y004150D01*
X015806Y004232D01*
X015958Y004384D01*
X016000Y004486D01*
X016042Y004384D01*
X016194Y004232D01*
X016393Y004150D01*
X016607Y004150D01*
X016806Y004232D01*
X016958Y004384D01*
X017000Y004486D01*
X017042Y004384D01*
X017194Y004232D01*
X017393Y004150D01*
X017607Y004150D01*
X017806Y004232D01*
X017958Y004384D01*
X018000Y004486D01*
X018042Y004384D01*
X018194Y004232D01*
X018393Y004150D01*
X018607Y004150D01*
X018806Y004232D01*
X018958Y004384D01*
X019040Y004583D01*
X019040Y004797D01*
X018958Y004996D01*
X018806Y005148D01*
X018720Y005183D01*
X018720Y006599D01*
X019720Y007599D01*
X019720Y009281D01*
X019591Y009410D01*
X018720Y010281D01*
X018720Y010410D01*
X018783Y010436D01*
X018924Y010577D01*
X019000Y010760D01*
X019000Y010831D01*
X019015Y010846D01*
X019107Y011069D01*
X019107Y011311D01*
X019015Y011534D01*
X019000Y011549D01*
X019000Y011619D01*
X018924Y011803D01*
X018783Y011944D01*
X018599Y012020D01*
X018401Y012020D01*
X018217Y011944D01*
X018076Y011803D01*
X018000Y011619D01*
X017924Y011803D01*
X017783Y011944D01*
X017599Y012020D01*
X017401Y012020D01*
X017217Y011944D01*
X017076Y011803D01*
X017000Y011619D01*
X016924Y011803D01*
X016783Y011944D01*
X016599Y012020D01*
X016401Y012020D01*
X016217Y011944D01*
X016076Y011803D01*
X016000Y011619D01*
X015924Y011803D01*
X015783Y011944D01*
X015599Y012020D01*
X015401Y012020D01*
X015217Y011944D01*
X015076Y011803D01*
X015000Y011619D01*
X014924Y011803D01*
X014783Y011944D01*
X014599Y012020D01*
X014401Y012020D01*
X014217Y011944D01*
X014076Y011803D01*
X014000Y011619D01*
X013924Y011803D01*
X013783Y011944D01*
X013599Y012020D01*
X013401Y012020D01*
X013217Y011944D01*
X013076Y011803D01*
X013000Y011619D01*
X012924Y011803D01*
X012783Y011944D01*
X012599Y012020D01*
X012401Y012020D01*
X012217Y011944D01*
X012076Y011803D01*
X012000Y011619D01*
X011924Y011803D01*
X011783Y011944D01*
X011720Y011970D01*
X011720Y012281D01*
X009220Y014781D01*
X009091Y014910D01*
X007091Y014910D01*
X006504Y015497D01*
X006540Y015583D01*
X006540Y015797D01*
X006458Y015996D01*
X006306Y016148D01*
X006178Y016201D01*
X006200Y016208D01*
X006273Y016245D01*
X009852Y016245D01*
X009887Y016260D02*
X009677Y016173D01*
X009517Y016013D01*
X009430Y015803D01*
X009430Y015577D01*
X009517Y015367D01*
X009677Y015207D01*
X009887Y015120D01*
X010113Y015120D01*
X010323Y015207D01*
X010483Y015367D01*
X010570Y015577D01*
X010570Y015803D01*
X010483Y016013D01*
X010323Y016173D01*
X010113Y016260D01*
X009887Y016260D01*
X010148Y016245D02*
X025490Y016245D01*
X025517Y016147D02*
X010349Y016147D01*
X010448Y016048D02*
X025545Y016048D01*
X025572Y015950D02*
X010509Y015950D01*
X010550Y015851D02*
X025599Y015851D01*
X025627Y015753D02*
X010570Y015753D01*
X010570Y015654D02*
X025654Y015654D01*
X025681Y015556D02*
X010561Y015556D01*
X010521Y015457D02*
X025709Y015457D01*
X025736Y015359D02*
X010475Y015359D01*
X010377Y015260D02*
X025761Y015260D01*
X025758Y015278D02*
X025969Y013992D01*
X026040Y012690D01*
X025969Y011388D01*
X025758Y010102D01*
X025410Y008846D01*
X024927Y007634D01*
X024317Y006483D01*
X023585Y005404D01*
X022741Y004410D01*
X021794Y003514D01*
X020757Y002725D01*
X019640Y002053D01*
X018456Y001505D01*
X017221Y001089D01*
X015948Y000809D01*
X014652Y000668D01*
X013348Y000668D01*
X012052Y000809D01*
X010779Y001089D01*
X009544Y001505D01*
X008360Y002053D01*
X007243Y002725D01*
X006206Y003514D01*
X005259Y004410D01*
X004415Y005404D01*
X003683Y006483D01*
X003073Y007634D01*
X002590Y008846D01*
X002242Y010102D01*
X002031Y011388D01*
X001960Y012690D01*
X002031Y013992D01*
X002242Y015278D01*
X002590Y016534D01*
X003073Y017745D01*
X003683Y018897D01*
X004415Y019976D01*
X005259Y020970D01*
X006206Y021866D01*
X007243Y022655D01*
X008360Y023327D01*
X009544Y023875D01*
X010779Y024291D01*
X012052Y024571D01*
X013348Y024712D01*
X014652Y024712D01*
X015948Y024571D01*
X017221Y024291D01*
X018456Y023875D01*
X019640Y023327D01*
X020757Y022655D01*
X021794Y021866D01*
X022741Y020970D01*
X023585Y019976D01*
X024317Y018897D01*
X024927Y017745D01*
X025410Y016534D01*
X025758Y015278D01*
X025777Y015162D02*
X010215Y015162D01*
X009785Y015162D02*
X006839Y015162D01*
X006741Y015260D02*
X009623Y015260D01*
X009525Y015359D02*
X006642Y015359D01*
X006544Y015457D02*
X009479Y015457D01*
X009439Y015556D02*
X006529Y015556D01*
X006540Y015654D02*
X009430Y015654D01*
X009430Y015753D02*
X006540Y015753D01*
X006518Y015851D02*
X009450Y015851D01*
X009491Y015950D02*
X006477Y015950D01*
X006405Y016048D02*
X009552Y016048D01*
X009651Y016147D02*
X006307Y016147D01*
X006273Y016245D02*
X006339Y016293D01*
X006397Y016351D01*
X006445Y016417D01*
X006482Y016490D01*
X006507Y016568D01*
X006519Y016640D01*
X006050Y016640D01*
X006050Y016740D01*
X005950Y016740D01*
X005950Y017208D01*
X005878Y017197D01*
X005800Y017172D01*
X005727Y017135D01*
X005661Y017087D01*
X005603Y017029D01*
X005555Y016962D01*
X005518Y016890D01*
X005493Y016812D01*
X005481Y016740D01*
X005950Y016740D01*
X005950Y016640D01*
X005481Y016640D01*
X005493Y016568D01*
X005518Y016490D01*
X005555Y016417D01*
X005603Y016351D01*
X005661Y016293D01*
X005727Y016245D01*
X002510Y016245D01*
X002483Y016147D02*
X003193Y016147D01*
X003194Y016148D02*
X003042Y015996D01*
X002960Y015797D01*
X002960Y015583D01*
X003042Y015384D01*
X003194Y015232D01*
X003296Y015190D01*
X003194Y015148D01*
X003042Y014996D01*
X002960Y014797D01*
X002960Y014583D01*
X003042Y014384D01*
X003194Y014232D01*
X003393Y014150D01*
X003607Y014150D01*
X003806Y014232D01*
X003958Y014384D01*
X004040Y014583D01*
X004040Y014797D01*
X003958Y014996D01*
X003806Y015148D01*
X003704Y015190D01*
X003806Y015232D01*
X003958Y015384D01*
X004040Y015583D01*
X004040Y015797D01*
X003958Y015996D01*
X003806Y016148D01*
X003607Y016230D01*
X003393Y016230D01*
X003194Y016148D01*
X003095Y016048D02*
X002455Y016048D01*
X002428Y015950D02*
X003023Y015950D01*
X002982Y015851D02*
X002401Y015851D01*
X002373Y015753D02*
X002960Y015753D01*
X002960Y015654D02*
X002346Y015654D01*
X002319Y015556D02*
X002971Y015556D01*
X003012Y015457D02*
X002291Y015457D01*
X002264Y015359D02*
X003067Y015359D01*
X003166Y015260D02*
X002239Y015260D01*
X002223Y015162D02*
X003229Y015162D01*
X003110Y015063D02*
X002206Y015063D01*
X002190Y014965D02*
X003029Y014965D01*
X002989Y014866D02*
X002174Y014866D01*
X002158Y014768D02*
X002960Y014768D01*
X002960Y014669D02*
X002142Y014669D01*
X002126Y014571D02*
X002965Y014571D01*
X003006Y014472D02*
X002109Y014472D01*
X002093Y014374D02*
X003052Y014374D01*
X003151Y014275D02*
X002077Y014275D01*
X002061Y014177D02*
X003327Y014177D01*
X003673Y014177D02*
X007882Y014177D01*
X007902Y014185D02*
X007720Y014110D01*
X007580Y013970D01*
X007505Y013788D01*
X007505Y013591D01*
X007580Y013410D01*
X007720Y013270D01*
X007902Y013195D01*
X008098Y013195D01*
X008280Y013270D01*
X008420Y013410D01*
X008495Y013591D01*
X008495Y013788D01*
X008420Y013970D01*
X008280Y014110D01*
X008098Y014185D01*
X007902Y014185D01*
X008118Y014177D02*
X009202Y014177D01*
X009300Y014078D02*
X008311Y014078D01*
X008410Y013980D02*
X009399Y013980D01*
X009497Y013881D02*
X008456Y013881D01*
X008495Y013783D02*
X009596Y013783D01*
X009694Y013684D02*
X008495Y013684D01*
X008493Y013586D02*
X009793Y013586D01*
X009891Y013487D02*
X008452Y013487D01*
X008399Y013389D02*
X009990Y013389D01*
X010088Y013290D02*
X008301Y013290D01*
X008182Y013130D02*
X008111Y013153D01*
X008037Y013165D01*
X008019Y013165D01*
X008019Y012709D01*
X007981Y012709D01*
X007981Y013165D01*
X007963Y013165D01*
X007889Y013153D01*
X007818Y013130D01*
X007751Y013096D01*
X007691Y013052D01*
X007638Y012999D01*
X007594Y012939D01*
X007560Y012872D01*
X007537Y012801D01*
X007525Y012727D01*
X007525Y012709D01*
X007981Y012709D01*
X007981Y012671D01*
X007525Y012671D01*
X007525Y012653D01*
X007537Y012579D01*
X007560Y012508D01*
X007594Y012441D01*
X007638Y012380D01*
X007691Y012328D01*
X007751Y012284D01*
X007818Y012250D01*
X007889Y012227D01*
X007963Y012215D01*
X007981Y012215D01*
X007981Y012671D01*
X008019Y012671D01*
X008019Y012709D01*
X008475Y012709D01*
X008475Y012727D01*
X008463Y012801D01*
X008440Y012872D01*
X008406Y012939D01*
X008362Y012999D01*
X008309Y013052D01*
X008249Y013096D01*
X008182Y013130D01*
X008253Y013093D02*
X010285Y013093D01*
X010384Y012995D02*
X008366Y012995D01*
X008428Y012896D02*
X010482Y012896D01*
X010581Y012798D02*
X008464Y012798D01*
X008475Y012671D02*
X008019Y012671D01*
X008019Y012215D01*
X008037Y012215D01*
X008111Y012227D01*
X008182Y012250D01*
X008249Y012284D01*
X008309Y012328D01*
X008362Y012380D01*
X008406Y012441D01*
X008440Y012508D01*
X008463Y012579D01*
X008475Y012653D01*
X008475Y012671D01*
X008467Y012601D02*
X010778Y012601D01*
X010876Y012502D02*
X008438Y012502D01*
X008379Y012404D02*
X010975Y012404D01*
X011073Y012305D02*
X008279Y012305D01*
X008019Y012305D02*
X007981Y012305D01*
X007981Y012404D02*
X008019Y012404D01*
X008019Y012502D02*
X007981Y012502D01*
X007981Y012601D02*
X008019Y012601D01*
X008019Y012699D02*
X010679Y012699D01*
X011006Y012995D02*
X026023Y012995D01*
X026018Y013093D02*
X010908Y013093D01*
X010809Y013192D02*
X026013Y013192D01*
X026007Y013290D02*
X010711Y013290D01*
X010612Y013389D02*
X026002Y013389D01*
X025997Y013487D02*
X010514Y013487D01*
X010415Y013586D02*
X025991Y013586D01*
X025986Y013684D02*
X022219Y013684D01*
X022211Y013680D02*
X022288Y013720D01*
X022358Y013770D01*
X022420Y013832D01*
X022470Y013902D01*
X022510Y013979D01*
X022536Y014061D01*
X022549Y014140D01*
X022050Y014140D01*
X022050Y014240D01*
X021950Y014240D01*
X021950Y014739D01*
X021871Y014726D01*
X021789Y014700D01*
X021712Y014660D01*
X021642Y014609D01*
X021580Y014548D01*
X021530Y014478D01*
X021490Y014401D01*
X021464Y014319D01*
X021451Y014240D01*
X021950Y014240D01*
X021950Y014140D01*
X021451Y014140D01*
X021464Y014061D01*
X021490Y013979D01*
X021530Y013902D01*
X021580Y013832D01*
X021642Y013770D01*
X021712Y013720D01*
X021789Y013680D01*
X021871Y013653D01*
X021950Y013641D01*
X021950Y014140D01*
X022050Y014140D01*
X022050Y013641D01*
X022129Y013653D01*
X022211Y013680D01*
X022050Y013684D02*
X021950Y013684D01*
X021950Y013783D02*
X022050Y013783D01*
X022050Y013881D02*
X021950Y013881D01*
X021950Y013980D02*
X022050Y013980D01*
X022050Y014078D02*
X021950Y014078D01*
X021950Y014177D02*
X021070Y014177D01*
X021070Y014275D02*
X021457Y014275D01*
X021481Y014374D02*
X021041Y014374D01*
X021070Y014303D02*
X020983Y014513D01*
X020823Y014673D01*
X020613Y014760D01*
X020387Y014760D01*
X020177Y014673D01*
X020017Y014513D01*
X019930Y014303D01*
X019930Y014077D01*
X020017Y013867D01*
X020177Y013707D01*
X020387Y013620D01*
X020613Y013620D01*
X020823Y013707D01*
X020983Y013867D01*
X021070Y014077D01*
X021070Y014303D01*
X021000Y014472D02*
X021527Y014472D01*
X021603Y014571D02*
X020925Y014571D01*
X020827Y014669D02*
X021730Y014669D01*
X021950Y014669D02*
X022050Y014669D01*
X022050Y014739D02*
X022050Y014240D01*
X022549Y014240D01*
X022536Y014319D01*
X022510Y014401D01*
X022470Y014478D01*
X022420Y014548D01*
X022358Y014609D01*
X022288Y014660D01*
X022211Y014700D01*
X022129Y014726D01*
X022050Y014739D01*
X022050Y014571D02*
X021950Y014571D01*
X021950Y014472D02*
X022050Y014472D01*
X022050Y014374D02*
X021950Y014374D01*
X021950Y014275D02*
X022050Y014275D01*
X022050Y014177D02*
X025939Y014177D01*
X025923Y014275D02*
X022543Y014275D01*
X022519Y014374D02*
X025907Y014374D01*
X025891Y014472D02*
X022473Y014472D01*
X022397Y014571D02*
X025874Y014571D01*
X025858Y014669D02*
X022270Y014669D01*
X022539Y014078D02*
X025955Y014078D01*
X025970Y013980D02*
X022510Y013980D01*
X022456Y013881D02*
X025975Y013881D01*
X025981Y013783D02*
X022371Y013783D01*
X021781Y013684D02*
X020769Y013684D01*
X020899Y013783D02*
X021629Y013783D01*
X021544Y013881D02*
X020989Y013881D01*
X021030Y013980D02*
X021490Y013980D01*
X021461Y014078D02*
X021070Y014078D01*
X020231Y013684D02*
X010317Y013684D01*
X010218Y013783D02*
X020101Y013783D01*
X020011Y013881D02*
X010120Y013881D01*
X010021Y013980D02*
X019970Y013980D01*
X019930Y014078D02*
X009923Y014078D01*
X009824Y014177D02*
X019930Y014177D01*
X019930Y014275D02*
X009726Y014275D01*
X009627Y014374D02*
X019959Y014374D01*
X020000Y014472D02*
X009529Y014472D01*
X009430Y014571D02*
X020075Y014571D01*
X020173Y014669D02*
X009332Y014669D01*
X009233Y014768D02*
X025842Y014768D01*
X025826Y014866D02*
X009135Y014866D01*
X009000Y014690D02*
X007000Y014690D01*
X006000Y015690D01*
X005666Y015260D02*
X003834Y015260D01*
X003771Y015162D02*
X005864Y015162D01*
X005893Y015150D02*
X005694Y015232D01*
X005542Y015384D01*
X005460Y015583D01*
X005460Y015797D01*
X005542Y015996D01*
X005694Y016148D01*
X005822Y016201D01*
X005800Y016208D01*
X005727Y016245D01*
X005693Y016147D02*
X003807Y016147D01*
X003905Y016048D02*
X005595Y016048D01*
X005523Y015950D02*
X003977Y015950D01*
X004018Y015851D02*
X005482Y015851D01*
X005460Y015753D02*
X004040Y015753D01*
X004040Y015654D02*
X005460Y015654D01*
X005471Y015556D02*
X004029Y015556D01*
X003988Y015457D02*
X005512Y015457D01*
X005567Y015359D02*
X003933Y015359D01*
X003890Y015063D02*
X006315Y015063D01*
X006414Y014965D02*
X003971Y014965D01*
X004011Y014866D02*
X006512Y014866D01*
X006611Y014768D02*
X004040Y014768D01*
X004040Y014669D02*
X006709Y014669D01*
X006808Y014571D02*
X004035Y014571D01*
X003994Y014472D02*
X006906Y014472D01*
X006909Y014470D02*
X008909Y014470D01*
X011280Y012099D01*
X011280Y011970D01*
X011217Y011944D01*
X011076Y011803D01*
X011000Y011619D01*
X010924Y011803D01*
X010783Y011944D01*
X010599Y012020D01*
X010401Y012020D01*
X010217Y011944D01*
X010076Y011803D01*
X010000Y011619D01*
X010000Y011549D01*
X009978Y011571D01*
X009968Y011632D01*
X009945Y011704D01*
X009911Y011772D01*
X009866Y011833D01*
X009813Y011886D01*
X009752Y011930D01*
X009684Y011965D01*
X009612Y011988D01*
X009538Y012000D01*
X009529Y012000D01*
X009529Y011797D01*
X009471Y011797D01*
X009471Y012000D01*
X009462Y012000D01*
X009388Y011988D01*
X009316Y011965D01*
X009248Y011930D01*
X009187Y011886D01*
X009134Y011833D01*
X009089Y011772D01*
X009055Y011704D01*
X009032Y011632D01*
X009022Y011571D01*
X008985Y011534D01*
X008893Y011311D01*
X008893Y011069D01*
X008985Y010846D01*
X009022Y010809D01*
X009032Y010748D01*
X009055Y010676D01*
X009089Y010608D01*
X009134Y010547D01*
X009187Y010494D01*
X009248Y010449D01*
X009316Y010415D01*
X009388Y010392D01*
X009462Y010380D01*
X009471Y010380D01*
X009471Y010582D01*
X009529Y010582D01*
X009529Y010380D01*
X009538Y010380D01*
X009612Y010392D01*
X009684Y010415D01*
X009752Y010449D01*
X009813Y010494D01*
X009866Y010547D01*
X009911Y010608D01*
X009945Y010676D01*
X009968Y010748D01*
X009978Y010809D01*
X010000Y010831D01*
X010000Y010760D01*
X010076Y010577D01*
X010217Y010436D01*
X010401Y010360D01*
X010599Y010360D01*
X010783Y010436D01*
X010924Y010577D01*
X011000Y010760D01*
X011076Y010577D01*
X011217Y010436D01*
X011401Y010360D01*
X011599Y010360D01*
X011783Y010436D01*
X011924Y010577D01*
X012000Y010760D01*
X012076Y010577D01*
X012217Y010436D01*
X012401Y010360D01*
X012599Y010360D01*
X012783Y010436D01*
X012924Y010577D01*
X013000Y010760D01*
X013076Y010577D01*
X011780Y009281D01*
X011780Y008945D01*
X011599Y009020D01*
X011401Y009020D01*
X011217Y008944D01*
X011076Y008803D01*
X011000Y008619D01*
X010924Y008803D01*
X010783Y008944D01*
X010599Y009020D01*
X010401Y009020D01*
X010217Y008944D01*
X010076Y008803D01*
X010000Y008619D01*
X009924Y008803D01*
X009783Y008944D01*
X009599Y009020D01*
X009401Y009020D01*
X009217Y008944D01*
X009076Y008803D01*
X009000Y008619D01*
X009000Y008549D01*
X008985Y008534D01*
X008893Y008311D01*
X008893Y008069D01*
X008985Y007846D01*
X009000Y007831D01*
X009000Y007760D01*
X009076Y007577D01*
X009217Y007436D01*
X009401Y007360D01*
X009599Y007360D01*
X009783Y007436D01*
X009924Y007577D01*
X010000Y007760D01*
X010076Y007577D01*
X010217Y007436D01*
X010401Y007360D01*
X010599Y007360D01*
X010783Y007436D01*
X010924Y007577D01*
X011000Y007760D01*
X011076Y007577D01*
X011217Y007436D01*
X011401Y007360D01*
X011599Y007360D01*
X011780Y007435D01*
X011780Y007281D01*
X009693Y005194D01*
X009607Y005230D01*
X009393Y005230D01*
X009194Y005148D01*
X009042Y004996D01*
X008960Y004797D01*
X008969Y004819D02*
X008505Y004819D01*
X008467Y004918D02*
X009010Y004918D01*
X009063Y005016D02*
X008406Y005016D01*
X008300Y005115D02*
X009161Y005115D01*
X009353Y005213D02*
X004577Y005213D01*
X004660Y005115D02*
X007700Y005115D01*
X007594Y005016D02*
X004744Y005016D01*
X004828Y004918D02*
X007533Y004918D01*
X007495Y004819D02*
X004911Y004819D01*
X005079Y004622D02*
X007484Y004622D01*
X007507Y004524D02*
X005162Y004524D01*
X005246Y004425D02*
X007551Y004425D01*
X007628Y004327D02*
X005347Y004327D01*
X005451Y004228D02*
X007760Y004228D01*
X007950Y004228D02*
X008050Y004228D01*
X008050Y004171D02*
X008122Y004183D01*
X008200Y004208D01*
X008273Y004245D01*
X008339Y004293D01*
X008397Y004351D01*
X008445Y004417D01*
X008482Y004490D01*
X008507Y004568D01*
X008519Y004640D01*
X008050Y004640D01*
X008050Y004171D01*
X008050Y004327D02*
X007950Y004327D01*
X007950Y004425D02*
X008050Y004425D01*
X008050Y004524D02*
X007950Y004524D01*
X007950Y004622D02*
X008050Y004622D01*
X008050Y004918D02*
X007950Y004918D01*
X007950Y005016D02*
X008050Y005016D01*
X008050Y005115D02*
X007950Y005115D01*
X008516Y004622D02*
X008960Y004622D01*
X008984Y004524D02*
X008493Y004524D01*
X008449Y004425D02*
X009025Y004425D01*
X009099Y004327D02*
X008372Y004327D01*
X008240Y004228D02*
X009203Y004228D01*
X009500Y004690D02*
X012000Y007190D01*
X012000Y009190D01*
X013500Y010690D01*
X013500Y011190D01*
X014000Y011549D02*
X014000Y011619D01*
X014000Y011549D01*
X014000Y011549D01*
X014000Y011616D02*
X014000Y011616D01*
X013961Y011714D02*
X014039Y011714D01*
X014086Y011813D02*
X013914Y011813D01*
X013816Y011911D02*
X014184Y011911D01*
X014376Y012010D02*
X013624Y012010D01*
X013376Y012010D02*
X012624Y012010D01*
X012816Y011911D02*
X013184Y011911D01*
X013086Y011813D02*
X012914Y011813D01*
X012961Y011714D02*
X013039Y011714D01*
X013000Y011619D02*
X013000Y011549D01*
X013000Y011549D01*
X013000Y011619D01*
X013000Y011616D02*
X013000Y011616D01*
X012376Y012010D02*
X011720Y012010D01*
X011720Y012108D02*
X026008Y012108D01*
X026003Y012010D02*
X018624Y012010D01*
X018816Y011911D02*
X025998Y011911D01*
X025992Y011813D02*
X018914Y011813D01*
X018961Y011714D02*
X020277Y011714D01*
X020177Y011673D02*
X020017Y011513D01*
X019930Y011303D01*
X019930Y011077D01*
X020017Y010867D01*
X020177Y010707D01*
X020387Y010620D01*
X020613Y010620D01*
X020823Y010707D01*
X020983Y010867D01*
X021070Y011077D01*
X021070Y011303D01*
X020983Y011513D01*
X020823Y011673D01*
X020613Y011760D01*
X020387Y011760D01*
X020177Y011673D01*
X020120Y011616D02*
X019000Y011616D01*
X019022Y011517D02*
X020021Y011517D01*
X019978Y011419D02*
X019063Y011419D01*
X019103Y011320D02*
X019937Y011320D01*
X019930Y011222D02*
X019107Y011222D01*
X019107Y011123D02*
X019930Y011123D01*
X019951Y011025D02*
X019089Y011025D01*
X019048Y010926D02*
X019992Y010926D01*
X020056Y010828D02*
X019000Y010828D01*
X018987Y010729D02*
X020154Y010729D01*
X020360Y010631D02*
X018946Y010631D01*
X018880Y010532D02*
X025829Y010532D01*
X025813Y010434D02*
X018778Y010434D01*
X018720Y010335D02*
X025797Y010335D01*
X025781Y010237D02*
X018764Y010237D01*
X018863Y010138D02*
X025764Y010138D01*
X025741Y010040D02*
X018961Y010040D01*
X019060Y009941D02*
X025714Y009941D01*
X025687Y009843D02*
X019158Y009843D01*
X019257Y009744D02*
X025659Y009744D01*
X025632Y009646D02*
X019355Y009646D01*
X019454Y009547D02*
X025605Y009547D01*
X025577Y009449D02*
X019552Y009449D01*
X019651Y009350D02*
X025550Y009350D01*
X025523Y009252D02*
X019720Y009252D01*
X019720Y009153D02*
X025495Y009153D01*
X025468Y009055D02*
X019720Y009055D01*
X019720Y008956D02*
X025440Y008956D01*
X025413Y008858D02*
X019720Y008858D01*
X019720Y008759D02*
X025375Y008759D01*
X025336Y008661D02*
X019720Y008661D01*
X019720Y008562D02*
X025297Y008562D01*
X025258Y008464D02*
X019720Y008464D01*
X019720Y008365D02*
X025218Y008365D01*
X025179Y008267D02*
X019720Y008267D01*
X019720Y008168D02*
X025140Y008168D01*
X025101Y008070D02*
X019720Y008070D01*
X019720Y007971D02*
X025061Y007971D01*
X025022Y007873D02*
X019720Y007873D01*
X019720Y007774D02*
X024983Y007774D01*
X024944Y007676D02*
X019720Y007676D01*
X019699Y007577D02*
X024897Y007577D01*
X024845Y007479D02*
X019600Y007479D01*
X019502Y007380D02*
X024792Y007380D01*
X024740Y007282D02*
X019403Y007282D01*
X019305Y007183D02*
X024688Y007183D01*
X024636Y007085D02*
X019206Y007085D01*
X019108Y006986D02*
X024584Y006986D01*
X024531Y006888D02*
X019009Y006888D01*
X018911Y006789D02*
X024479Y006789D01*
X024427Y006691D02*
X018812Y006691D01*
X018720Y006592D02*
X024375Y006592D01*
X024322Y006494D02*
X018720Y006494D01*
X018720Y006395D02*
X024257Y006395D01*
X024191Y006297D02*
X018720Y006297D01*
X018720Y006198D02*
X024124Y006198D01*
X024057Y006100D02*
X018720Y006100D01*
X018720Y006001D02*
X023990Y006001D01*
X023923Y005903D02*
X018720Y005903D01*
X018720Y005804D02*
X023857Y005804D01*
X023790Y005706D02*
X018720Y005706D01*
X018720Y005607D02*
X023723Y005607D01*
X023656Y005509D02*
X018720Y005509D01*
X018720Y005410D02*
X023590Y005410D01*
X023507Y005312D02*
X018720Y005312D01*
X018720Y005213D02*
X023423Y005213D01*
X023340Y005115D02*
X018839Y005115D01*
X018937Y005016D02*
X023256Y005016D01*
X023172Y004918D02*
X018990Y004918D01*
X019031Y004819D02*
X023089Y004819D01*
X023005Y004721D02*
X019040Y004721D01*
X019040Y004622D02*
X022921Y004622D01*
X022838Y004524D02*
X019016Y004524D01*
X018975Y004425D02*
X022754Y004425D01*
X022653Y004327D02*
X018901Y004327D01*
X018797Y004228D02*
X022549Y004228D01*
X022445Y004130D02*
X005555Y004130D01*
X005659Y004031D02*
X022341Y004031D01*
X022237Y003933D02*
X005763Y003933D01*
X005867Y003834D02*
X022133Y003834D01*
X022029Y003736D02*
X005971Y003736D01*
X006075Y003637D02*
X021925Y003637D01*
X021821Y003539D02*
X006179Y003539D01*
X006302Y003440D02*
X021698Y003440D01*
X021569Y003342D02*
X006431Y003342D01*
X006561Y003243D02*
X021439Y003243D01*
X021310Y003145D02*
X006690Y003145D01*
X006820Y003046D02*
X021180Y003046D01*
X021050Y002948D02*
X006950Y002948D01*
X007079Y002849D02*
X020921Y002849D01*
X020791Y002751D02*
X007209Y002751D01*
X007363Y002652D02*
X020637Y002652D01*
X020473Y002554D02*
X007527Y002554D01*
X007691Y002455D02*
X020309Y002455D01*
X020146Y002357D02*
X007854Y002357D01*
X008018Y002258D02*
X019982Y002258D01*
X019818Y002160D02*
X008182Y002160D01*
X008346Y002061D02*
X019654Y002061D01*
X019446Y001963D02*
X008554Y001963D01*
X008767Y001864D02*
X019233Y001864D01*
X019020Y001766D02*
X008980Y001766D01*
X009193Y001667D02*
X018807Y001667D01*
X018594Y001569D02*
X009406Y001569D01*
X009646Y001470D02*
X018354Y001470D01*
X018061Y001372D02*
X009939Y001372D01*
X010231Y001273D02*
X017769Y001273D01*
X017477Y001175D02*
X010523Y001175D01*
X010835Y001076D02*
X017165Y001076D01*
X016717Y000978D02*
X011283Y000978D01*
X011730Y000879D02*
X016270Y000879D01*
X015693Y000781D02*
X012307Y000781D01*
X013212Y000682D02*
X014788Y000682D01*
X014797Y004228D02*
X015203Y004228D01*
X015099Y004327D02*
X014901Y004327D01*
X014975Y004425D02*
X015025Y004425D01*
X015797Y004228D02*
X016203Y004228D01*
X016099Y004327D02*
X015901Y004327D01*
X015975Y004425D02*
X016025Y004425D01*
X016500Y004690D02*
X016500Y006690D01*
X017000Y007190D01*
X017000Y009690D01*
X016500Y010190D01*
X016500Y011190D01*
X017000Y011549D02*
X017000Y011619D01*
X017000Y011549D01*
X017000Y011549D01*
X017000Y011616D02*
X017000Y011616D01*
X016961Y011714D02*
X017039Y011714D01*
X017086Y011813D02*
X016914Y011813D01*
X016816Y011911D02*
X017184Y011911D01*
X017376Y012010D02*
X016624Y012010D01*
X016376Y012010D02*
X015624Y012010D01*
X015816Y011911D02*
X016184Y011911D01*
X016086Y011813D02*
X015914Y011813D01*
X015961Y011714D02*
X016039Y011714D01*
X016000Y011619D02*
X016000Y011549D01*
X016000Y011549D01*
X016000Y011619D01*
X016000Y011616D02*
X016000Y011616D01*
X015500Y011190D02*
X015500Y010190D01*
X014000Y008690D01*
X014000Y007190D01*
X011500Y004690D01*
X011901Y004327D02*
X012099Y004327D01*
X012025Y004425D02*
X011975Y004425D01*
X011797Y004228D02*
X012203Y004228D01*
X012500Y004690D02*
X014500Y006690D01*
X014500Y008190D01*
X013000Y008690D02*
X013000Y007190D01*
X010500Y004690D01*
X010901Y004327D02*
X011099Y004327D01*
X011025Y004425D02*
X010975Y004425D01*
X010797Y004228D02*
X011203Y004228D01*
X010203Y004228D02*
X009797Y004228D01*
X009901Y004327D02*
X010099Y004327D01*
X010025Y004425D02*
X009975Y004425D01*
X009712Y005213D02*
X009647Y005213D01*
X009811Y005312D02*
X004493Y005312D01*
X004410Y005410D02*
X009909Y005410D01*
X010008Y005509D02*
X004344Y005509D01*
X004277Y005607D02*
X010106Y005607D01*
X010205Y005706D02*
X004210Y005706D01*
X004143Y005804D02*
X010303Y005804D01*
X010402Y005903D02*
X004077Y005903D01*
X004010Y006001D02*
X010500Y006001D01*
X010599Y006100D02*
X003943Y006100D01*
X003876Y006198D02*
X010697Y006198D01*
X010796Y006297D02*
X003809Y006297D01*
X003743Y006395D02*
X010894Y006395D01*
X010993Y006494D02*
X003678Y006494D01*
X003625Y006592D02*
X011091Y006592D01*
X011190Y006691D02*
X003573Y006691D01*
X003521Y006789D02*
X005148Y006789D01*
X005144Y006790D02*
X005208Y006780D01*
X005470Y006780D01*
X005470Y007160D01*
X004830Y007160D01*
X004830Y007158D01*
X004840Y007094D01*
X004860Y007033D01*
X004889Y006975D01*
X004927Y006923D01*
X004973Y006877D01*
X005025Y006839D01*
X005083Y006810D01*
X005144Y006790D01*
X004962Y006888D02*
X003469Y006888D01*
X003416Y006986D02*
X004884Y006986D01*
X004843Y007085D02*
X003364Y007085D01*
X003312Y007183D02*
X005470Y007183D01*
X005470Y007160D02*
X005470Y007220D01*
X005470Y007600D01*
X005208Y007600D01*
X005144Y007590D01*
X005083Y007570D01*
X005025Y007541D01*
X004973Y007503D01*
X004927Y007457D01*
X004889Y007405D01*
X004860Y007347D01*
X004840Y007286D01*
X004830Y007222D01*
X004830Y007220D01*
X005470Y007220D01*
X005530Y007220D01*
X005530Y007600D01*
X005792Y007600D01*
X005856Y007590D01*
X005917Y007570D01*
X005975Y007541D01*
X006027Y007503D01*
X006073Y007457D01*
X006111Y007405D01*
X006140Y007347D01*
X006160Y007286D01*
X006170Y007222D01*
X006170Y007220D01*
X005530Y007220D01*
X005530Y007160D01*
X006170Y007160D01*
X006170Y007158D01*
X006160Y007094D01*
X006140Y007033D01*
X006111Y006975D01*
X006073Y006923D01*
X006027Y006877D01*
X005975Y006839D01*
X005917Y006810D01*
X005856Y006790D01*
X005792Y006780D01*
X005530Y006780D01*
X005530Y007160D01*
X005470Y007160D01*
X005530Y007183D02*
X011682Y007183D01*
X011584Y007085D02*
X006157Y007085D01*
X006116Y006986D02*
X011485Y006986D01*
X011387Y006888D02*
X006038Y006888D01*
X005852Y006789D02*
X011288Y006789D01*
X011780Y007282D02*
X006161Y007282D01*
X006123Y007380D02*
X009351Y007380D01*
X009174Y007479D02*
X006051Y007479D01*
X005894Y007577D02*
X009076Y007577D01*
X009035Y007676D02*
X003056Y007676D01*
X003017Y007774D02*
X005119Y007774D01*
X005154Y007760D02*
X005846Y007760D01*
X006004Y007825D01*
X006125Y007946D01*
X006190Y008104D01*
X006190Y008275D01*
X006125Y008434D01*
X006004Y008554D01*
X005846Y008620D01*
X005154Y008620D01*
X004996Y008554D01*
X004875Y008434D01*
X004810Y008275D01*
X004810Y008104D01*
X004875Y007946D01*
X004996Y007825D01*
X005154Y007760D01*
X005106Y007577D02*
X003103Y007577D01*
X003155Y007479D02*
X004949Y007479D01*
X004877Y007380D02*
X003208Y007380D01*
X003260Y007282D02*
X004839Y007282D01*
X005470Y007282D02*
X005530Y007282D01*
X005530Y007380D02*
X005470Y007380D01*
X005470Y007479D02*
X005530Y007479D01*
X005530Y007577D02*
X005470Y007577D01*
X005881Y007774D02*
X007307Y007774D01*
X007322Y007760D02*
X007678Y007760D01*
X007930Y008012D01*
X007930Y008368D01*
X007678Y008620D01*
X007322Y008620D01*
X007070Y008368D01*
X007070Y008012D01*
X007322Y007760D01*
X007209Y007873D02*
X006051Y007873D01*
X006135Y007971D02*
X007110Y007971D01*
X007070Y008070D02*
X006176Y008070D01*
X006190Y008168D02*
X007070Y008168D01*
X007070Y008267D02*
X006190Y008267D01*
X006153Y008365D02*
X007070Y008365D01*
X007166Y008464D02*
X006094Y008464D01*
X005984Y008562D02*
X007264Y008562D01*
X007736Y008562D02*
X009000Y008562D01*
X009017Y008661D02*
X002664Y008661D01*
X002703Y008562D02*
X005016Y008562D01*
X004906Y008464D02*
X002742Y008464D01*
X002782Y008365D02*
X004847Y008365D01*
X004810Y008267D02*
X002821Y008267D01*
X002860Y008168D02*
X004810Y008168D01*
X004824Y008070D02*
X002899Y008070D01*
X002939Y007971D02*
X004865Y007971D01*
X004949Y007873D02*
X002978Y007873D01*
X002625Y008759D02*
X009058Y008759D01*
X009131Y008858D02*
X006036Y008858D01*
X006004Y008825D02*
X006125Y008946D01*
X006190Y009104D01*
X006190Y009275D01*
X006125Y009434D01*
X006004Y009554D01*
X005846Y009620D01*
X005154Y009620D01*
X004996Y009554D01*
X004875Y009434D01*
X004810Y009275D01*
X004810Y009104D01*
X004875Y008946D01*
X004996Y008825D01*
X005154Y008760D01*
X005846Y008760D01*
X006004Y008825D01*
X006129Y008956D02*
X009247Y008956D01*
X009753Y008956D02*
X010247Y008956D01*
X010131Y008858D02*
X009869Y008858D01*
X009942Y008759D02*
X010058Y008759D01*
X010017Y008661D02*
X009983Y008661D01*
X010000Y008619D02*
X010000Y008549D01*
X010000Y008549D01*
X010000Y008619D01*
X010000Y008562D02*
X010000Y008562D01*
X010000Y007831D02*
X010000Y007760D01*
X010000Y007831D01*
X010000Y007831D01*
X010000Y007774D02*
X010000Y007774D01*
X009965Y007676D02*
X010035Y007676D01*
X010076Y007577D02*
X009924Y007577D01*
X009826Y007479D02*
X010174Y007479D01*
X010351Y007380D02*
X009649Y007380D01*
X009000Y007774D02*
X007693Y007774D01*
X007791Y007873D02*
X008974Y007873D01*
X008933Y007971D02*
X007890Y007971D01*
X007930Y008070D02*
X008893Y008070D01*
X008893Y008168D02*
X007930Y008168D01*
X007930Y008267D02*
X008893Y008267D01*
X008915Y008365D02*
X007930Y008365D01*
X007834Y008464D02*
X008956Y008464D01*
X010649Y007380D02*
X011351Y007380D01*
X011174Y007479D02*
X010826Y007479D01*
X010924Y007577D02*
X011076Y007577D01*
X011035Y007676D02*
X010965Y007676D01*
X011000Y007760D02*
X011000Y007831D01*
X011000Y007831D01*
X011000Y007760D01*
X011000Y007774D02*
X011000Y007774D01*
X011649Y007380D02*
X011780Y007380D01*
X011000Y008549D02*
X011000Y008549D01*
X011000Y008619D01*
X011000Y008549D01*
X011000Y008562D02*
X011000Y008562D01*
X010983Y008661D02*
X011017Y008661D01*
X011058Y008759D02*
X010942Y008759D01*
X010869Y008858D02*
X011131Y008858D01*
X011247Y008956D02*
X010753Y008956D01*
X011753Y008956D02*
X011780Y008956D01*
X011780Y009055D02*
X006170Y009055D01*
X006190Y009153D02*
X011780Y009153D01*
X011780Y009252D02*
X006190Y009252D01*
X006159Y009350D02*
X011849Y009350D01*
X011948Y009449D02*
X006109Y009449D01*
X006011Y009547D02*
X012046Y009547D01*
X012145Y009646D02*
X002368Y009646D01*
X002341Y009744D02*
X012243Y009744D01*
X012342Y009843D02*
X002313Y009843D01*
X002286Y009941D02*
X012440Y009941D01*
X012539Y010040D02*
X002259Y010040D01*
X002236Y010138D02*
X012637Y010138D01*
X012736Y010237D02*
X005423Y010237D01*
X005431Y010241D02*
X005500Y010291D01*
X005560Y010351D01*
X005611Y010421D01*
X005650Y010497D01*
X005676Y010578D01*
X005688Y010657D01*
X004800Y010657D01*
X004800Y010162D01*
X005188Y010162D01*
X005273Y010175D01*
X005354Y010202D01*
X005431Y010241D01*
X005544Y010335D02*
X012834Y010335D01*
X012778Y010434D02*
X012933Y010434D01*
X012880Y010532D02*
X013031Y010532D01*
X013054Y010631D02*
X012946Y010631D01*
X012987Y010729D02*
X013013Y010729D01*
X013000Y010760D02*
X013000Y010831D01*
X013000Y010831D01*
X013000Y010760D01*
X013000Y010828D02*
X013000Y010828D01*
X012222Y010434D02*
X011778Y010434D01*
X011880Y010532D02*
X012120Y010532D01*
X012054Y010631D02*
X011946Y010631D01*
X011987Y010729D02*
X012013Y010729D01*
X012000Y010760D02*
X012000Y010831D01*
X012000Y010831D01*
X012000Y010760D01*
X012000Y010828D02*
X012000Y010828D01*
X011500Y011190D02*
X011500Y012190D01*
X009000Y014690D01*
X009005Y014374D02*
X003948Y014374D01*
X003849Y014275D02*
X009103Y014275D01*
X010187Y013192D02*
X006492Y013192D01*
X006497Y013180D02*
X006411Y013387D01*
X006252Y013546D01*
X006045Y013632D01*
X005821Y013632D01*
X005614Y013546D01*
X005455Y013387D01*
X005369Y013180D01*
X005369Y012168D01*
X005455Y011961D01*
X005614Y011803D01*
X005821Y011717D01*
X006045Y011717D01*
X006252Y011803D01*
X006411Y011961D01*
X006497Y012168D01*
X006497Y013180D01*
X006497Y013093D02*
X007747Y013093D01*
X007634Y012995D02*
X006497Y012995D01*
X006497Y012896D02*
X007572Y012896D01*
X007536Y012798D02*
X006497Y012798D01*
X006497Y012699D02*
X007981Y012699D01*
X007981Y012798D02*
X008019Y012798D01*
X008019Y012896D02*
X007981Y012896D01*
X007981Y012995D02*
X008019Y012995D01*
X008019Y013093D02*
X007981Y013093D01*
X007699Y013290D02*
X006451Y013290D01*
X006409Y013389D02*
X007601Y013389D01*
X007548Y013487D02*
X006311Y013487D01*
X006155Y013586D02*
X007507Y013586D01*
X007505Y013684D02*
X002014Y013684D01*
X002009Y013586D02*
X003288Y013586D01*
X003325Y013598D02*
X003244Y013572D01*
X003168Y013533D01*
X003099Y013483D01*
X003038Y013422D01*
X002988Y013353D01*
X002949Y013277D01*
X002922Y013195D01*
X002909Y013111D01*
X002909Y012723D01*
X003404Y012723D01*
X003404Y013611D01*
X003325Y013598D01*
X003404Y013586D02*
X003501Y013586D01*
X003501Y013611D02*
X003501Y012723D01*
X003404Y012723D01*
X003404Y012626D01*
X002909Y012626D01*
X002909Y012238D01*
X002922Y012153D01*
X002949Y012072D01*
X002988Y011996D01*
X003038Y011926D01*
X003099Y011866D01*
X003168Y011815D01*
X003244Y011777D01*
X003325Y011750D01*
X003404Y011738D01*
X003404Y012626D01*
X003501Y012626D01*
X003501Y012723D01*
X003996Y012723D01*
X003996Y013111D01*
X003983Y013195D01*
X003957Y013277D01*
X003918Y013353D01*
X003867Y013422D01*
X003807Y013483D01*
X003738Y013533D01*
X003661Y013572D01*
X003580Y013598D01*
X003501Y013611D01*
X003618Y013586D02*
X005711Y013586D01*
X005555Y013487D02*
X003800Y013487D01*
X003892Y013389D02*
X005457Y013389D01*
X005415Y013290D02*
X003950Y013290D01*
X003984Y013192D02*
X005374Y013192D01*
X005369Y013093D02*
X003996Y013093D01*
X003996Y012995D02*
X005369Y012995D01*
X005369Y012896D02*
X003996Y012896D01*
X003996Y012798D02*
X005369Y012798D01*
X005369Y012699D02*
X003501Y012699D01*
X003501Y012626D02*
X003996Y012626D01*
X003996Y012238D01*
X003983Y012153D01*
X003957Y012072D01*
X003918Y011996D01*
X003867Y011926D01*
X003807Y011866D01*
X003738Y011815D01*
X003661Y011777D01*
X003580Y011750D01*
X003501Y011738D01*
X003501Y012626D01*
X003501Y012601D02*
X003404Y012601D01*
X003404Y012699D02*
X001961Y012699D01*
X001965Y012601D02*
X002909Y012601D01*
X002909Y012502D02*
X001970Y012502D01*
X001976Y012404D02*
X002909Y012404D01*
X002909Y012305D02*
X001981Y012305D01*
X001986Y012207D02*
X002914Y012207D01*
X002937Y012108D02*
X001992Y012108D01*
X001997Y012010D02*
X002980Y012010D01*
X003053Y011911D02*
X002002Y011911D01*
X002008Y011813D02*
X003173Y011813D01*
X003404Y011813D02*
X003501Y011813D01*
X003501Y011911D02*
X003404Y011911D01*
X003404Y012010D02*
X003501Y012010D01*
X003501Y012108D02*
X003404Y012108D01*
X003404Y012207D02*
X003501Y012207D01*
X003501Y012305D02*
X003404Y012305D01*
X003404Y012404D02*
X003501Y012404D01*
X003501Y012502D02*
X003404Y012502D01*
X003404Y012798D02*
X003501Y012798D01*
X003501Y012896D02*
X003404Y012896D01*
X003404Y012995D02*
X003501Y012995D01*
X003501Y013093D02*
X003404Y013093D01*
X003404Y013192D02*
X003501Y013192D01*
X003501Y013290D02*
X003404Y013290D01*
X003404Y013389D02*
X003501Y013389D01*
X003501Y013487D02*
X003404Y013487D01*
X003105Y013487D02*
X002003Y013487D01*
X001998Y013389D02*
X003014Y013389D01*
X002956Y013290D02*
X001993Y013290D01*
X001987Y013192D02*
X002922Y013192D01*
X002909Y013093D02*
X001982Y013093D01*
X001977Y012995D02*
X002909Y012995D01*
X002909Y012896D02*
X001971Y012896D01*
X001966Y012798D02*
X002909Y012798D01*
X003996Y012601D02*
X005369Y012601D01*
X005369Y012502D02*
X003996Y012502D01*
X003996Y012404D02*
X005369Y012404D01*
X005369Y012305D02*
X003996Y012305D01*
X003992Y012207D02*
X005369Y012207D01*
X005394Y012108D02*
X003969Y012108D01*
X003925Y012010D02*
X005435Y012010D01*
X005505Y011911D02*
X003853Y011911D01*
X003733Y011813D02*
X005603Y011813D01*
X005354Y011210D02*
X005273Y011236D01*
X005188Y011249D01*
X004800Y011249D01*
X004800Y010754D01*
X004704Y010754D01*
X004704Y011249D01*
X004315Y011249D01*
X004231Y011236D01*
X004150Y011210D01*
X004073Y011171D01*
X004004Y011120D01*
X003944Y011060D01*
X003893Y010991D01*
X003854Y010914D01*
X003828Y010833D01*
X003815Y010754D01*
X004704Y010754D01*
X004704Y010657D01*
X004800Y010657D01*
X004800Y010754D01*
X005688Y010754D01*
X005676Y010833D01*
X005650Y010914D01*
X005611Y010991D01*
X005560Y011060D01*
X005500Y011120D01*
X005431Y011171D01*
X005354Y011210D01*
X005316Y011222D02*
X007070Y011222D01*
X007070Y011320D02*
X002042Y011320D01*
X002058Y011222D02*
X004188Y011222D01*
X004008Y011123D02*
X002074Y011123D01*
X002090Y011025D02*
X003918Y011025D01*
X003861Y010926D02*
X002106Y010926D01*
X002122Y010828D02*
X003827Y010828D01*
X003815Y010657D02*
X003828Y010578D01*
X003854Y010497D01*
X003893Y010421D01*
X003944Y010351D01*
X004004Y010291D01*
X004073Y010241D01*
X004150Y010202D01*
X004231Y010175D01*
X004315Y010162D01*
X004704Y010162D01*
X004704Y010657D01*
X003815Y010657D01*
X003820Y010631D02*
X002155Y010631D01*
X002139Y010729D02*
X004704Y010729D01*
X004800Y010729D02*
X009038Y010729D01*
X009003Y010828D02*
X007746Y010828D01*
X007678Y010760D02*
X007930Y011012D01*
X007930Y011368D01*
X007678Y011620D01*
X007322Y011620D01*
X007070Y011368D01*
X007070Y011012D01*
X007322Y010760D01*
X007678Y010760D01*
X007845Y010926D02*
X008952Y010926D01*
X008911Y011025D02*
X007930Y011025D01*
X007930Y011123D02*
X008893Y011123D01*
X008893Y011222D02*
X007930Y011222D01*
X007930Y011320D02*
X008897Y011320D01*
X008937Y011419D02*
X007879Y011419D01*
X007781Y011517D02*
X008978Y011517D01*
X009029Y011616D02*
X007682Y011616D01*
X007318Y011616D02*
X002018Y011616D01*
X002013Y011714D02*
X009060Y011714D01*
X009120Y011813D02*
X006263Y011813D01*
X006361Y011911D02*
X009222Y011911D01*
X009471Y011911D02*
X009529Y011911D01*
X009529Y011813D02*
X009471Y011813D01*
X009778Y011911D02*
X010184Y011911D01*
X010086Y011813D02*
X009880Y011813D01*
X009940Y011714D02*
X010039Y011714D01*
X010000Y011616D02*
X009971Y011616D01*
X010376Y012010D02*
X006431Y012010D01*
X006472Y012108D02*
X011270Y012108D01*
X011280Y012010D02*
X010624Y012010D01*
X010816Y011911D02*
X011184Y011911D01*
X011086Y011813D02*
X010914Y011813D01*
X010961Y011714D02*
X011039Y011714D01*
X011000Y011619D02*
X011000Y011549D01*
X011000Y011549D01*
X011000Y011619D01*
X011000Y011616D02*
X011000Y011616D01*
X011172Y012207D02*
X006497Y012207D01*
X006497Y012305D02*
X007721Y012305D01*
X007621Y012404D02*
X006497Y012404D01*
X006497Y012502D02*
X007562Y012502D01*
X007533Y012601D02*
X006497Y012601D01*
X007219Y011517D02*
X002024Y011517D01*
X002029Y011419D02*
X007121Y011419D01*
X007070Y011123D02*
X005496Y011123D01*
X005586Y011025D02*
X007070Y011025D01*
X007155Y010926D02*
X005643Y010926D01*
X005677Y010828D02*
X007254Y010828D01*
X005684Y010631D02*
X009078Y010631D01*
X009149Y010532D02*
X005661Y010532D01*
X005617Y010434D02*
X009279Y010434D01*
X009471Y010434D02*
X009529Y010434D01*
X009529Y010532D02*
X009471Y010532D01*
X009721Y010434D02*
X010222Y010434D01*
X010120Y010532D02*
X009851Y010532D01*
X009922Y010631D02*
X010054Y010631D01*
X010013Y010729D02*
X009962Y010729D01*
X009997Y010828D02*
X010000Y010828D01*
X010778Y010434D02*
X011222Y010434D01*
X011120Y010532D02*
X010880Y010532D01*
X010946Y010631D02*
X011054Y010631D01*
X011013Y010729D02*
X010987Y010729D01*
X011000Y010760D02*
X011000Y010831D01*
X011000Y010831D01*
X011000Y010760D01*
X011000Y010828D02*
X011000Y010828D01*
X012000Y011549D02*
X012000Y011619D01*
X012000Y011549D01*
X012000Y011549D01*
X012000Y011616D02*
X012000Y011616D01*
X011961Y011714D02*
X012039Y011714D01*
X012086Y011813D02*
X011914Y011813D01*
X011816Y011911D02*
X012184Y011911D01*
X011720Y012207D02*
X026014Y012207D01*
X026019Y012305D02*
X011696Y012305D01*
X011597Y012404D02*
X026024Y012404D01*
X026030Y012502D02*
X011499Y012502D01*
X011400Y012601D02*
X026035Y012601D01*
X026039Y012699D02*
X011302Y012699D01*
X011203Y012798D02*
X026034Y012798D01*
X026029Y012896D02*
X011105Y012896D01*
X007689Y014078D02*
X002045Y014078D01*
X002030Y013980D02*
X007590Y013980D01*
X007544Y013881D02*
X002025Y013881D01*
X002019Y013783D02*
X007505Y013783D01*
X006909Y014470D02*
X006193Y015186D01*
X006107Y015150D01*
X005893Y015150D01*
X006136Y015162D02*
X006217Y015162D01*
X006938Y015063D02*
X025794Y015063D01*
X025810Y014965D02*
X007036Y014965D01*
X006389Y016344D02*
X025463Y016344D01*
X025435Y016442D02*
X006458Y016442D01*
X006498Y016541D02*
X025407Y016541D01*
X025368Y016639D02*
X006518Y016639D01*
X006519Y016740D02*
X006507Y016812D01*
X006482Y016890D01*
X006445Y016962D01*
X006397Y017029D01*
X006339Y017087D01*
X006273Y017135D01*
X006200Y017172D01*
X006122Y017197D01*
X006050Y017208D01*
X006050Y016740D01*
X006519Y016740D01*
X006499Y016836D02*
X025289Y016836D01*
X025329Y016738D02*
X006050Y016738D01*
X006050Y016836D02*
X005950Y016836D01*
X005950Y016738D02*
X002671Y016738D01*
X002632Y016639D02*
X005482Y016639D01*
X005502Y016541D02*
X002593Y016541D01*
X002565Y016442D02*
X005542Y016442D01*
X005611Y016344D02*
X002537Y016344D01*
X002711Y016836D02*
X005501Y016836D01*
X005541Y016935D02*
X002750Y016935D01*
X002789Y017033D02*
X005608Y017033D01*
X005724Y017132D02*
X002828Y017132D01*
X002868Y017230D02*
X014653Y017230D01*
X014677Y017207D02*
X014887Y017120D01*
X015113Y017120D01*
X015323Y017207D01*
X015483Y017367D01*
X015570Y017577D01*
X015570Y017803D01*
X015483Y018013D01*
X015323Y018173D01*
X015113Y018260D01*
X014887Y018260D01*
X014677Y018173D01*
X014517Y018013D01*
X014430Y017803D01*
X014430Y017577D01*
X014517Y017367D01*
X014677Y017207D01*
X014555Y017329D02*
X002907Y017329D01*
X002946Y017427D02*
X014492Y017427D01*
X014451Y017526D02*
X002985Y017526D01*
X003025Y017624D02*
X014430Y017624D01*
X014430Y017723D02*
X003064Y017723D01*
X003113Y017821D02*
X014438Y017821D01*
X014478Y017920D02*
X003165Y017920D01*
X003218Y018018D02*
X014522Y018018D01*
X014621Y018117D02*
X003270Y018117D01*
X003322Y018215D02*
X004168Y018215D01*
X004177Y018207D02*
X004387Y018120D01*
X004613Y018120D01*
X004823Y018207D01*
X004983Y018367D01*
X005070Y018577D01*
X005070Y018803D01*
X004983Y019013D01*
X004823Y019173D01*
X004613Y019260D01*
X004387Y019260D01*
X004177Y019173D01*
X004017Y019013D01*
X003930Y018803D01*
X003930Y018577D01*
X004017Y018367D01*
X004177Y018207D01*
X004070Y018314D02*
X003374Y018314D01*
X003427Y018412D02*
X003998Y018412D01*
X003957Y018511D02*
X003479Y018511D01*
X003531Y018609D02*
X003930Y018609D01*
X003930Y018708D02*
X003583Y018708D01*
X003635Y018806D02*
X003931Y018806D01*
X003972Y018905D02*
X003689Y018905D01*
X003756Y019003D02*
X004013Y019003D01*
X004106Y019102D02*
X003822Y019102D01*
X003889Y019200D02*
X004243Y019200D01*
X004023Y019397D02*
X016625Y019397D01*
X016638Y019380D02*
X016691Y019328D01*
X016751Y019284D01*
X016818Y019250D01*
X016889Y019227D01*
X016963Y019215D01*
X016981Y019215D01*
X016981Y019671D01*
X016525Y019671D01*
X016525Y019653D01*
X016537Y019579D01*
X016560Y019508D01*
X016594Y019441D01*
X016638Y019380D01*
X016730Y019299D02*
X003956Y019299D01*
X004089Y019496D02*
X016566Y019496D01*
X016534Y019594D02*
X004156Y019594D01*
X004223Y019693D02*
X016981Y019693D01*
X016981Y019709D02*
X016981Y019671D01*
X017019Y019671D01*
X017019Y019709D01*
X016981Y019709D01*
X016981Y020165D01*
X016963Y020165D01*
X016889Y020153D01*
X016818Y020130D01*
X016751Y020096D01*
X016691Y020052D01*
X016638Y019999D01*
X016594Y019939D01*
X016560Y019872D01*
X016537Y019801D01*
X016525Y019727D01*
X016525Y019709D01*
X016981Y019709D01*
X017019Y019709D02*
X017019Y020165D01*
X017037Y020165D01*
X017111Y020153D01*
X017182Y020130D01*
X017249Y020096D01*
X017309Y020052D01*
X017362Y019999D01*
X017406Y019939D01*
X017440Y019872D01*
X017463Y019801D01*
X017475Y019727D01*
X017475Y019709D01*
X017019Y019709D01*
X017019Y019693D02*
X017505Y019693D01*
X017475Y019671D02*
X017019Y019671D01*
X017019Y019215D01*
X017037Y019215D01*
X017111Y019227D01*
X017182Y019250D01*
X017249Y019284D01*
X017309Y019328D01*
X017362Y019380D01*
X017406Y019441D01*
X017440Y019508D01*
X017463Y019579D01*
X017475Y019653D01*
X017475Y019671D01*
X017466Y019594D02*
X017505Y019594D01*
X017505Y019591D02*
X017580Y019410D01*
X017720Y019270D01*
X017902Y019195D01*
X018098Y019195D01*
X018280Y019270D01*
X018420Y019410D01*
X018495Y019591D01*
X018495Y019788D01*
X018420Y019970D01*
X018280Y020110D01*
X018098Y020185D01*
X017902Y020185D01*
X017720Y020110D01*
X017580Y019970D01*
X017505Y019788D01*
X017505Y019591D01*
X017545Y019496D02*
X017434Y019496D01*
X017375Y019397D02*
X017592Y019397D01*
X017691Y019299D02*
X017270Y019299D01*
X017019Y019299D02*
X016981Y019299D01*
X016981Y019397D02*
X017019Y019397D01*
X017019Y019496D02*
X016981Y019496D01*
X016981Y019594D02*
X017019Y019594D01*
X017019Y019791D02*
X016981Y019791D01*
X016981Y019890D02*
X017019Y019890D01*
X017019Y019988D02*
X016981Y019988D01*
X016981Y020087D02*
X017019Y020087D01*
X017262Y020087D02*
X017697Y020087D01*
X017599Y019988D02*
X017370Y019988D01*
X017431Y019890D02*
X017547Y019890D01*
X017506Y019791D02*
X017465Y019791D01*
X017888Y019200D02*
X010209Y019200D01*
X010211Y019200D02*
X010129Y019226D01*
X010050Y019239D01*
X010050Y018740D01*
X009950Y018740D01*
X009950Y019239D01*
X009871Y019226D01*
X009789Y019200D01*
X009712Y019160D01*
X009642Y019109D01*
X009580Y019048D01*
X009530Y018978D01*
X009490Y018901D01*
X009464Y018819D01*
X009451Y018740D01*
X009950Y018740D01*
X009950Y018640D01*
X009451Y018640D01*
X009464Y018561D01*
X009490Y018479D01*
X009530Y018402D01*
X009580Y018332D01*
X009642Y018270D01*
X009712Y018220D01*
X009789Y018180D01*
X009871Y018153D01*
X009950Y018141D01*
X009950Y018640D01*
X010050Y018640D01*
X010050Y018740D01*
X010549Y018740D01*
X010536Y018819D01*
X010510Y018901D01*
X010470Y018978D01*
X010420Y019048D01*
X010358Y019109D01*
X010288Y019160D01*
X010211Y019200D01*
X010050Y019200D02*
X009950Y019200D01*
X009950Y019102D02*
X010050Y019102D01*
X010050Y019003D02*
X009950Y019003D01*
X009950Y018905D02*
X010050Y018905D01*
X010050Y018806D02*
X009950Y018806D01*
X009950Y018708D02*
X008070Y018708D01*
X008070Y018803D02*
X008070Y018577D01*
X007983Y018367D01*
X007823Y018207D01*
X007613Y018120D01*
X007387Y018120D01*
X007177Y018207D01*
X007017Y018367D01*
X006930Y018577D01*
X006930Y018803D01*
X007017Y019013D01*
X007177Y019173D01*
X007387Y019260D01*
X007613Y019260D01*
X007823Y019173D01*
X007983Y019013D01*
X008070Y018803D01*
X008069Y018806D02*
X009462Y018806D01*
X009492Y018905D02*
X008028Y018905D01*
X007987Y019003D02*
X009548Y019003D01*
X009634Y019102D02*
X007894Y019102D01*
X007757Y019200D02*
X009791Y019200D01*
X010050Y018708D02*
X024417Y018708D01*
X024469Y018609D02*
X010544Y018609D01*
X010549Y018640D02*
X010050Y018640D01*
X010050Y018141D01*
X010129Y018153D01*
X010211Y018180D01*
X010288Y018220D01*
X010358Y018270D01*
X010420Y018332D01*
X010470Y018402D01*
X010510Y018479D01*
X010536Y018561D01*
X010549Y018640D01*
X010520Y018511D02*
X024521Y018511D01*
X024573Y018412D02*
X010476Y018412D01*
X010402Y018314D02*
X024626Y018314D01*
X024678Y018215D02*
X018221Y018215D01*
X018323Y018173D02*
X018113Y018260D01*
X017887Y018260D01*
X017677Y018173D01*
X017517Y018013D01*
X017430Y017803D01*
X017430Y017577D01*
X017517Y017367D01*
X017677Y017207D01*
X017887Y017120D01*
X018113Y017120D01*
X018323Y017207D01*
X018483Y017367D01*
X018570Y017577D01*
X018570Y017803D01*
X018483Y018013D01*
X018323Y018173D01*
X018379Y018117D02*
X024730Y018117D01*
X024782Y018018D02*
X018478Y018018D01*
X018522Y017920D02*
X024835Y017920D01*
X024887Y017821D02*
X018562Y017821D01*
X018570Y017723D02*
X024936Y017723D01*
X024975Y017624D02*
X018570Y017624D01*
X018549Y017526D02*
X025015Y017526D01*
X025054Y017427D02*
X018508Y017427D01*
X018445Y017329D02*
X025093Y017329D01*
X025132Y017230D02*
X018347Y017230D01*
X018142Y017132D02*
X025172Y017132D01*
X025211Y017033D02*
X006392Y017033D01*
X006459Y016935D02*
X025250Y016935D01*
X024365Y018806D02*
X010538Y018806D01*
X010508Y018905D02*
X024311Y018905D01*
X024244Y019003D02*
X010452Y019003D01*
X010366Y019102D02*
X024178Y019102D01*
X024111Y019200D02*
X018112Y019200D01*
X018309Y019299D02*
X024044Y019299D01*
X023977Y019397D02*
X018408Y019397D01*
X018455Y019496D02*
X023910Y019496D01*
X023844Y019594D02*
X018495Y019594D01*
X018495Y019693D02*
X023777Y019693D01*
X023710Y019791D02*
X018494Y019791D01*
X018453Y019890D02*
X023643Y019890D01*
X023574Y019988D02*
X018401Y019988D01*
X018303Y020087D02*
X023491Y020087D01*
X023407Y020185D02*
X004593Y020185D01*
X004509Y020087D02*
X016738Y020087D01*
X016630Y019988D02*
X004426Y019988D01*
X004357Y019890D02*
X016569Y019890D01*
X016535Y019791D02*
X004290Y019791D01*
X004677Y020284D02*
X023323Y020284D01*
X023240Y020382D02*
X004760Y020382D01*
X004844Y020481D02*
X023156Y020481D01*
X023072Y020579D02*
X004928Y020579D01*
X005011Y020678D02*
X022989Y020678D01*
X022905Y020776D02*
X005095Y020776D01*
X005179Y020875D02*
X022821Y020875D01*
X022737Y020973D02*
X005263Y020973D01*
X005367Y021072D02*
X022633Y021072D01*
X022529Y021170D02*
X005471Y021170D01*
X005575Y021269D02*
X022425Y021269D01*
X022321Y021367D02*
X005679Y021367D01*
X005783Y021466D02*
X022217Y021466D01*
X022113Y021564D02*
X005887Y021564D01*
X005991Y021663D02*
X022009Y021663D01*
X021905Y021761D02*
X006095Y021761D01*
X006199Y021860D02*
X021801Y021860D01*
X021673Y021958D02*
X006327Y021958D01*
X006206Y021866D02*
X006206Y021866D01*
X006456Y022057D02*
X021544Y022057D01*
X021414Y022155D02*
X006586Y022155D01*
X006715Y022254D02*
X021285Y022254D01*
X021155Y022352D02*
X006845Y022352D01*
X006975Y022451D02*
X021025Y022451D01*
X020896Y022549D02*
X007104Y022549D01*
X007234Y022648D02*
X020766Y022648D01*
X020605Y022746D02*
X007395Y022746D01*
X007559Y022845D02*
X020441Y022845D01*
X020278Y022943D02*
X007722Y022943D01*
X007886Y023042D02*
X020114Y023042D01*
X019950Y023140D02*
X008050Y023140D01*
X008214Y023239D02*
X019786Y023239D01*
X019618Y023337D02*
X008382Y023337D01*
X008595Y023436D02*
X019405Y023436D01*
X019192Y023534D02*
X008808Y023534D01*
X009021Y023633D02*
X018979Y023633D01*
X018766Y023731D02*
X009234Y023731D01*
X009447Y023830D02*
X018553Y023830D01*
X018297Y023928D02*
X009703Y023928D01*
X009995Y024027D02*
X018005Y024027D01*
X017712Y024125D02*
X010288Y024125D01*
X010580Y024224D02*
X017420Y024224D01*
X017078Y024322D02*
X010922Y024322D01*
X011369Y024421D02*
X016631Y024421D01*
X016183Y024519D02*
X011817Y024519D01*
X012482Y024618D02*
X015518Y024618D01*
X010050Y018609D02*
X009950Y018609D01*
X009950Y018511D02*
X010050Y018511D01*
X010050Y018412D02*
X009950Y018412D01*
X009950Y018314D02*
X010050Y018314D01*
X010050Y018215D02*
X009950Y018215D01*
X009720Y018215D02*
X007832Y018215D01*
X007930Y018314D02*
X009598Y018314D01*
X009524Y018412D02*
X008002Y018412D01*
X008043Y018511D02*
X009480Y018511D01*
X009456Y018609D02*
X008070Y018609D01*
X007243Y019200D02*
X004757Y019200D01*
X004894Y019102D02*
X007106Y019102D01*
X007013Y019003D02*
X004987Y019003D01*
X005028Y018905D02*
X006972Y018905D01*
X006931Y018806D02*
X005069Y018806D01*
X005070Y018708D02*
X006930Y018708D01*
X006930Y018609D02*
X005070Y018609D01*
X005043Y018511D02*
X006957Y018511D01*
X006998Y018412D02*
X005002Y018412D01*
X004930Y018314D02*
X007070Y018314D01*
X007168Y018215D02*
X004832Y018215D01*
X005950Y017132D02*
X006050Y017132D01*
X006050Y017033D02*
X005950Y017033D01*
X005950Y016935D02*
X006050Y016935D01*
X006276Y017132D02*
X014858Y017132D01*
X015142Y017132D02*
X017858Y017132D01*
X017653Y017230D02*
X015347Y017230D01*
X015445Y017329D02*
X017555Y017329D01*
X017492Y017427D02*
X015508Y017427D01*
X015549Y017526D02*
X017451Y017526D01*
X017430Y017624D02*
X015570Y017624D01*
X015570Y017723D02*
X017430Y017723D01*
X017438Y017821D02*
X015562Y017821D01*
X015522Y017920D02*
X017478Y017920D01*
X017522Y018018D02*
X015478Y018018D01*
X015379Y018117D02*
X017621Y018117D01*
X017779Y018215D02*
X015221Y018215D01*
X014779Y018215D02*
X010280Y018215D01*
X014624Y012010D02*
X015376Y012010D01*
X015184Y011911D02*
X014816Y011911D01*
X014914Y011813D02*
X015086Y011813D01*
X015039Y011714D02*
X014961Y011714D01*
X015000Y011619D02*
X015000Y011549D01*
X015000Y011549D01*
X015000Y011619D01*
X015000Y011616D02*
X015000Y011616D01*
X014500Y011190D02*
X014500Y010190D01*
X013000Y008690D01*
X012975Y004425D02*
X013025Y004425D01*
X013099Y004327D02*
X012901Y004327D01*
X012797Y004228D02*
X013203Y004228D01*
X013797Y004228D02*
X014203Y004228D01*
X014099Y004327D02*
X013901Y004327D01*
X013975Y004425D02*
X014025Y004425D01*
X016797Y004228D02*
X017203Y004228D01*
X017099Y004327D02*
X016901Y004327D01*
X016975Y004425D02*
X017025Y004425D01*
X017500Y004690D02*
X017500Y006690D01*
X018000Y007190D01*
X018000Y009690D01*
X017500Y010190D01*
X017500Y011190D01*
X018000Y011549D02*
X018000Y011619D01*
X018000Y011549D01*
X018000Y011549D01*
X018000Y011616D02*
X018000Y011616D01*
X017961Y011714D02*
X018039Y011714D01*
X018086Y011813D02*
X017914Y011813D01*
X017816Y011911D02*
X018184Y011911D01*
X018376Y012010D02*
X017624Y012010D01*
X018500Y011190D02*
X018500Y010190D01*
X019500Y009190D01*
X019500Y007690D01*
X018500Y006690D01*
X018500Y004690D01*
X018099Y004327D02*
X017901Y004327D01*
X017975Y004425D02*
X018025Y004425D01*
X018203Y004228D02*
X017797Y004228D01*
X020640Y010631D02*
X021860Y010631D01*
X021887Y010620D02*
X021677Y010707D01*
X021517Y010867D01*
X021430Y011077D01*
X021430Y011303D01*
X021517Y011513D01*
X021677Y011673D01*
X021887Y011760D01*
X022113Y011760D01*
X022323Y011673D01*
X022483Y011513D01*
X022570Y011303D01*
X022570Y011077D01*
X022483Y010867D01*
X022323Y010707D01*
X022113Y010620D01*
X021887Y010620D01*
X022140Y010631D02*
X025845Y010631D01*
X025861Y010729D02*
X022346Y010729D01*
X022444Y010828D02*
X025878Y010828D01*
X025894Y010926D02*
X022508Y010926D01*
X022549Y011025D02*
X025910Y011025D01*
X025926Y011123D02*
X022570Y011123D01*
X022570Y011222D02*
X025942Y011222D01*
X025958Y011320D02*
X022563Y011320D01*
X022522Y011419D02*
X025971Y011419D01*
X025969Y011388D02*
X025969Y011388D01*
X025976Y011517D02*
X022479Y011517D01*
X022380Y011616D02*
X025982Y011616D01*
X025987Y011714D02*
X022223Y011714D01*
X021777Y011714D02*
X020723Y011714D01*
X020880Y011616D02*
X021620Y011616D01*
X021521Y011517D02*
X020979Y011517D01*
X021022Y011419D02*
X021478Y011419D01*
X021437Y011320D02*
X021063Y011320D01*
X021070Y011222D02*
X021430Y011222D01*
X021430Y011123D02*
X021070Y011123D01*
X021049Y011025D02*
X021451Y011025D01*
X021492Y010926D02*
X021008Y010926D01*
X020944Y010828D02*
X021556Y010828D01*
X021654Y010729D02*
X020846Y010729D01*
X005530Y007085D02*
X005470Y007085D01*
X005470Y006986D02*
X005530Y006986D01*
X005530Y006888D02*
X005470Y006888D01*
X005470Y006789D02*
X005530Y006789D01*
X004964Y008858D02*
X002587Y008858D01*
X002560Y008956D02*
X004871Y008956D01*
X004830Y009055D02*
X002532Y009055D01*
X002505Y009153D02*
X004810Y009153D01*
X004810Y009252D02*
X002477Y009252D01*
X002450Y009350D02*
X004841Y009350D01*
X004891Y009449D02*
X002423Y009449D01*
X002395Y009547D02*
X004989Y009547D01*
X004800Y010237D02*
X004704Y010237D01*
X004704Y010335D02*
X004800Y010335D01*
X004800Y010434D02*
X004704Y010434D01*
X004704Y010532D02*
X004800Y010532D01*
X004800Y010631D02*
X004704Y010631D01*
X004704Y010828D02*
X004800Y010828D01*
X004800Y010926D02*
X004704Y010926D01*
X004704Y011025D02*
X004800Y011025D01*
X004800Y011123D02*
X004704Y011123D01*
X004704Y011222D02*
X004800Y011222D01*
X003843Y010532D02*
X002171Y010532D01*
X002187Y010434D02*
X003887Y010434D01*
X003960Y010335D02*
X002203Y010335D01*
X002219Y010237D02*
X004081Y010237D01*
M02*
