G75*
G70*
%OFA0B0*%
%FSLAX24Y24*%
%IPPOS*%
%LPD*%
%AMOC8*
5,1,8,0,0,1.08239X$1,22.5*
%
%ADD10C,0.0740*%
%ADD11C,0.0395*%
%ADD12C,0.0820*%
%ADD13OC8,0.0600*%
%ADD14R,0.0552X0.0297*%
%ADD15C,0.0730*%
%ADD16C,0.0050*%
%ADD17C,0.0867*%
%ADD18R,0.0356X0.0474*%
%ADD19R,0.1970X0.0710*%
%ADD20R,0.1084X0.1143*%
%ADD21R,0.1143X0.1084*%
%ADD22C,0.0600*%
D10*
X009500Y007860D02*
X009500Y008520D01*
X010500Y008520D02*
X010500Y007860D01*
X011500Y007860D02*
X011500Y008520D01*
X012500Y008520D02*
X012500Y007860D01*
X013500Y007860D02*
X013500Y008520D01*
X014500Y008520D02*
X014500Y007860D01*
X015500Y007860D02*
X015500Y008520D01*
X016500Y008520D02*
X016500Y007860D01*
X017500Y007860D02*
X017500Y008520D01*
X018500Y008520D02*
X018500Y007860D01*
X018500Y010860D02*
X018500Y011520D01*
X017500Y011520D02*
X017500Y010860D01*
X016500Y010860D02*
X016500Y011520D01*
X015500Y011520D02*
X015500Y010860D01*
X014500Y010860D02*
X014500Y011520D01*
X013500Y011520D02*
X013500Y010860D01*
X012500Y010860D02*
X012500Y011520D01*
X011500Y011520D02*
X011500Y010860D01*
X010500Y010860D02*
X010500Y011520D01*
X009500Y011520D02*
X009500Y010860D01*
D11*
X009500Y011190D03*
X010500Y011190D03*
X011500Y011190D03*
X012500Y011190D03*
X013500Y011190D03*
X014500Y011190D03*
X015500Y011190D03*
X016500Y011190D03*
X017500Y011190D03*
X018500Y011190D03*
X018500Y008190D03*
X017500Y008190D03*
X016500Y008190D03*
X015500Y008190D03*
X014500Y008190D03*
X013500Y008190D03*
X012500Y008190D03*
X011500Y008190D03*
X010500Y008190D03*
X009500Y008190D03*
D12*
X009500Y004690D03*
X010500Y004690D03*
X011500Y004690D03*
X012500Y004690D03*
X013500Y004690D03*
X014500Y004690D03*
X015500Y004690D03*
X016500Y004690D03*
X017500Y004690D03*
X018500Y004690D03*
X008000Y004690D03*
X003500Y014690D03*
X003500Y015690D03*
X006000Y015690D03*
X006000Y016690D03*
D13*
X007500Y011190D03*
X007500Y008190D03*
D14*
X007488Y015816D03*
X007488Y016190D03*
X007488Y016564D03*
X008512Y016564D03*
X008512Y015816D03*
D15*
X008000Y013690D03*
X008000Y012690D03*
X017000Y019690D03*
X018000Y019690D03*
D16*
X018000Y017865D02*
X017962Y017861D01*
X017925Y017848D01*
X017892Y017828D01*
X017865Y017801D01*
X017844Y017769D01*
X017831Y017732D01*
X017826Y017694D01*
X017830Y017654D01*
X017842Y017617D01*
X017863Y017583D01*
X017890Y017554D01*
X017924Y017533D01*
X017961Y017519D01*
X018000Y017514D01*
X018040Y017519D01*
X018077Y017534D01*
X018111Y017556D01*
X018139Y017585D01*
X018159Y017620D01*
X018171Y017658D01*
X018175Y017698D01*
X018170Y017736D01*
X018156Y017772D01*
X018135Y017804D01*
X018107Y017830D01*
X018075Y017850D01*
X018038Y017862D01*
X018000Y017865D01*
X017918Y017844D02*
X018084Y017844D01*
X018141Y017796D02*
X017861Y017796D01*
X017836Y017747D02*
X018166Y017747D01*
X018175Y017699D02*
X017827Y017699D01*
X017831Y017650D02*
X018169Y017650D01*
X018148Y017602D02*
X017852Y017602D01*
X017892Y017553D02*
X018107Y017553D01*
X015172Y017695D02*
X015169Y017655D01*
X015156Y017617D01*
X015136Y017582D01*
X015108Y017553D01*
X014886Y017553D01*
X014887Y017551D02*
X014860Y017580D01*
X014839Y017614D01*
X014827Y017651D01*
X014823Y017691D01*
X014828Y017729D01*
X014841Y017766D01*
X014862Y017798D01*
X014889Y017825D01*
X014922Y017846D01*
X014959Y017858D01*
X014997Y017862D01*
X015035Y017859D01*
X015072Y017847D01*
X015105Y017827D01*
X015132Y017801D01*
X015153Y017769D01*
X015167Y017733D01*
X015172Y017695D01*
X015172Y017699D02*
X014824Y017699D01*
X014834Y017747D02*
X015162Y017747D01*
X015136Y017796D02*
X014860Y017796D01*
X014920Y017844D02*
X015076Y017844D01*
X015167Y017650D02*
X014827Y017650D01*
X014847Y017602D02*
X015147Y017602D01*
X015108Y017553D02*
X015074Y017531D01*
X015037Y017516D01*
X014997Y017511D01*
X014958Y017516D01*
X014921Y017530D01*
X014887Y017551D01*
X010171Y018651D02*
X010157Y018613D01*
X010136Y018580D01*
X010107Y018553D01*
X010073Y018532D01*
X010035Y018520D01*
X009996Y018516D01*
X009958Y018521D01*
X009921Y018534D01*
X009889Y018555D01*
X009862Y018582D01*
X009841Y018615D01*
X009829Y018652D01*
X009825Y018690D01*
X009828Y018728D01*
X009840Y018765D01*
X009860Y018797D01*
X009886Y018825D01*
X009918Y018846D01*
X009954Y018860D01*
X009992Y018865D01*
X010032Y018861D01*
X010070Y018849D01*
X010105Y018829D01*
X010134Y018801D01*
X010156Y018767D01*
X010170Y018730D01*
X010176Y018690D01*
X010171Y018651D01*
X010173Y018669D02*
X009827Y018669D01*
X009827Y018717D02*
X010172Y018717D01*
X010157Y018766D02*
X009841Y018766D01*
X009876Y018814D02*
X010120Y018814D01*
X010020Y018863D02*
X009974Y018863D01*
X009840Y018620D02*
X010160Y018620D01*
X010126Y018572D02*
X009872Y018572D01*
X009951Y018523D02*
X010045Y018523D01*
X007677Y018689D02*
X007672Y018651D01*
X007659Y018614D01*
X007638Y018582D01*
X007611Y018555D01*
X007578Y018534D01*
X007541Y018522D01*
X007503Y018518D01*
X007465Y018521D01*
X007428Y018533D01*
X007395Y018553D01*
X007368Y018579D01*
X007347Y018611D01*
X007333Y018647D01*
X007328Y018685D01*
X007331Y018725D01*
X007344Y018763D01*
X007364Y018798D01*
X007392Y018827D01*
X007426Y018849D01*
X007463Y018863D01*
X007503Y018869D01*
X007542Y018864D01*
X007579Y018850D01*
X007613Y018828D01*
X007640Y018800D01*
X007661Y018766D01*
X007673Y018728D01*
X007677Y018689D01*
X007674Y018669D02*
X007330Y018669D01*
X007331Y018717D02*
X007674Y018717D01*
X007661Y018766D02*
X007345Y018766D01*
X007380Y018814D02*
X007627Y018814D01*
X007546Y018863D02*
X007461Y018863D01*
X007343Y018620D02*
X007661Y018620D01*
X007628Y018572D02*
X007376Y018572D01*
X007460Y018523D02*
X007545Y018523D01*
X009889Y015822D02*
X009863Y015794D01*
X009843Y015762D01*
X009831Y015725D01*
X009828Y015687D01*
X009832Y015649D01*
X009844Y015612D01*
X009865Y015579D01*
X009892Y015552D01*
X009924Y015531D01*
X009961Y015518D01*
X009999Y015513D01*
X010038Y015517D01*
X010076Y015529D01*
X010110Y015550D01*
X010139Y015577D01*
X010160Y015610D01*
X010174Y015648D01*
X010179Y015687D01*
X010173Y015727D01*
X010159Y015764D01*
X010137Y015798D01*
X010108Y015826D01*
X010073Y015846D01*
X010035Y015858D01*
X009995Y015862D01*
X009957Y015857D01*
X009921Y015843D01*
X009889Y015822D01*
X009875Y015807D02*
X010127Y015807D01*
X010161Y015759D02*
X009842Y015759D01*
X009830Y015710D02*
X010176Y015710D01*
X010176Y015662D02*
X009831Y015662D01*
X009844Y015613D02*
X010161Y015613D01*
X010125Y015565D02*
X009879Y015565D01*
X009974Y015516D02*
X010031Y015516D01*
X010044Y015856D02*
X009954Y015856D01*
X004656Y018611D02*
X004635Y018579D01*
X004608Y018552D01*
X004575Y018531D01*
X004538Y018519D01*
X004500Y018515D01*
X004462Y018518D01*
X004425Y018530D01*
X004393Y018550D01*
X004365Y018576D01*
X004344Y018608D01*
X004330Y018644D01*
X004325Y018682D01*
X004329Y018722D01*
X004341Y018760D01*
X004361Y018795D01*
X004389Y018824D01*
X004423Y018846D01*
X004460Y018860D01*
X004500Y018866D01*
X004539Y018861D01*
X004576Y018847D01*
X004610Y018825D01*
X004637Y018797D01*
X004658Y018763D01*
X004670Y018725D01*
X004674Y018686D01*
X004669Y018648D01*
X004656Y018611D01*
X004659Y018620D02*
X004339Y018620D01*
X004327Y018669D02*
X004672Y018669D01*
X004671Y018717D02*
X004328Y018717D01*
X004344Y018766D02*
X004656Y018766D01*
X004621Y018814D02*
X004380Y018814D01*
X004475Y018863D02*
X004526Y018863D01*
X004628Y018572D02*
X004370Y018572D01*
X004447Y018523D02*
X004550Y018523D01*
X020328Y014228D02*
X020325Y014190D01*
X020329Y014152D01*
X020341Y014115D01*
X020362Y014082D01*
X020389Y014055D01*
X020421Y014034D01*
X020458Y014021D01*
X020496Y014016D01*
X020535Y014020D01*
X020573Y014032D01*
X020607Y014053D01*
X020636Y014080D01*
X020657Y014113D01*
X020671Y014151D01*
X020676Y014190D01*
X020670Y014230D01*
X020656Y014267D01*
X020634Y014301D01*
X020605Y014329D01*
X020570Y014349D01*
X020532Y014361D01*
X020492Y014365D01*
X020454Y014360D01*
X020418Y014346D01*
X020386Y014325D01*
X020360Y014297D01*
X020340Y014265D01*
X020328Y014228D01*
X020326Y014207D02*
X020674Y014207D01*
X020672Y014158D02*
X020328Y014158D01*
X020345Y014110D02*
X020655Y014110D01*
X020616Y014061D02*
X020382Y014061D01*
X020337Y014255D02*
X020661Y014255D01*
X020631Y014304D02*
X020366Y014304D01*
X020433Y014352D02*
X020561Y014352D01*
X021828Y014228D02*
X021825Y014190D01*
X021829Y014152D01*
X021841Y014115D01*
X021862Y014082D01*
X021889Y014055D01*
X021921Y014034D01*
X021958Y014021D01*
X021996Y014016D01*
X022035Y014020D01*
X022073Y014032D01*
X022107Y014053D01*
X022136Y014080D01*
X022157Y014113D01*
X022171Y014151D01*
X022176Y014190D01*
X022170Y014230D01*
X022156Y014267D01*
X022134Y014301D01*
X022105Y014329D01*
X022070Y014349D01*
X022032Y014361D01*
X021992Y014365D01*
X021954Y014360D01*
X021918Y014346D01*
X021886Y014325D01*
X021860Y014297D01*
X021840Y014265D01*
X021828Y014228D01*
X021826Y014207D02*
X022174Y014207D01*
X022172Y014158D02*
X021828Y014158D01*
X021845Y014110D02*
X022155Y014110D01*
X022116Y014061D02*
X021882Y014061D01*
X021837Y014255D02*
X022161Y014255D01*
X022131Y014304D02*
X021866Y014304D01*
X021933Y014352D02*
X022061Y014352D01*
X021995Y011362D02*
X022035Y011358D01*
X022073Y011346D01*
X022108Y011326D01*
X022137Y011298D01*
X022159Y011264D01*
X022173Y011227D01*
X022179Y011187D01*
X022174Y011148D01*
X022160Y011110D01*
X022139Y011077D01*
X022110Y011050D01*
X022076Y011029D01*
X022038Y011017D01*
X021999Y011013D01*
X021961Y011018D01*
X021924Y011031D01*
X021892Y011052D01*
X021865Y011079D01*
X021844Y011112D01*
X021832Y011149D01*
X021828Y011187D01*
X021831Y011225D01*
X021843Y011262D01*
X021863Y011294D01*
X021889Y011322D01*
X021921Y011343D01*
X021957Y011357D01*
X021995Y011362D01*
X021926Y011345D02*
X022075Y011345D01*
X022138Y011296D02*
X021865Y011296D01*
X021839Y011248D02*
X022165Y011248D01*
X022177Y011199D02*
X021829Y011199D01*
X021832Y011151D02*
X022174Y011151D01*
X022155Y011102D02*
X021850Y011102D01*
X021889Y011054D02*
X022114Y011054D01*
X020679Y011187D02*
X020674Y011148D01*
X020660Y011110D01*
X020639Y011077D01*
X020610Y011050D01*
X020576Y011029D01*
X020538Y011017D01*
X020499Y011013D01*
X020461Y011018D01*
X020424Y011031D01*
X020392Y011052D01*
X020365Y011079D01*
X020344Y011112D01*
X020332Y011149D01*
X020328Y011187D01*
X020331Y011225D01*
X020343Y011262D01*
X020363Y011294D01*
X020389Y011322D01*
X020421Y011343D01*
X020457Y011357D01*
X020495Y011362D01*
X020535Y011358D01*
X020573Y011346D01*
X020608Y011326D01*
X020637Y011298D01*
X020659Y011264D01*
X020673Y011227D01*
X020679Y011187D01*
X020677Y011199D02*
X020329Y011199D01*
X020332Y011151D02*
X020674Y011151D01*
X020655Y011102D02*
X020350Y011102D01*
X020389Y011054D02*
X020614Y011054D01*
X020665Y011248D02*
X020339Y011248D01*
X020365Y011296D02*
X020638Y011296D01*
X020575Y011345D02*
X020426Y011345D01*
D17*
X005933Y012280D02*
X005933Y013068D01*
X005146Y010706D02*
X004358Y010706D01*
X003453Y012280D02*
X003453Y013068D01*
D18*
X015126Y019217D03*
X015500Y019217D03*
X015874Y019217D03*
X015874Y020162D03*
X015500Y020162D03*
X015126Y020162D03*
X016126Y021717D03*
X016500Y021717D03*
X016874Y021717D03*
X016874Y022662D03*
X016126Y022662D03*
D19*
X013461Y022820D03*
X013461Y021560D03*
D20*
X010748Y021190D03*
X008252Y021190D03*
D21*
X013000Y019438D03*
X013000Y016942D03*
D22*
X005760Y007190D02*
X005240Y007190D01*
X005240Y008190D02*
X005760Y008190D01*
X005760Y009190D02*
X005240Y009190D01*
M02*
