G75*
G70*
%OFA0B0*%
%FSLAX24Y24*%
%IPPOS*%
%LPD*%
%AMOC8*
5,1,8,0,0,1.08239X$1,22.5*
%
%ADD10C,0.0100*%
%ADD11C,0.0660*%
%ADD12C,0.0000*%
%ADD13C,0.0740*%
%ADD14OC8,0.0520*%
%ADD15R,0.0472X0.0217*%
%ADD16C,0.0650*%
%ADD17C,0.0800*%
%ADD18C,0.0787*%
%ADD19R,0.0276X0.0394*%
%ADD20R,0.1890X0.0630*%
%ADD21R,0.1004X0.1063*%
%ADD22R,0.1063X0.1004*%
%ADD23C,0.0520*%
%ADD24C,0.0240*%
D10*
X004995Y004721D02*
X007460Y004721D01*
X007460Y004797D02*
X007460Y004583D01*
X007542Y004384D01*
X007694Y004232D01*
X007893Y004150D01*
X008107Y004150D01*
X008306Y004232D01*
X008458Y004384D01*
X008540Y004583D01*
X008540Y004797D01*
X008458Y004996D01*
X008306Y005148D01*
X008107Y005230D01*
X007893Y005230D01*
X007694Y005148D01*
X007542Y004996D01*
X007460Y004797D01*
X007469Y004819D02*
X004911Y004819D01*
X004828Y004918D02*
X007510Y004918D01*
X007563Y005016D02*
X004744Y005016D01*
X004660Y005115D02*
X007661Y005115D01*
X007853Y005213D02*
X004577Y005213D01*
X004493Y005312D02*
X013280Y005312D01*
X013280Y005410D02*
X004410Y005410D01*
X004415Y005404D02*
X003683Y006483D01*
X003073Y007634D01*
X002590Y008846D01*
X002242Y010102D01*
X002031Y011388D01*
X001960Y012690D01*
X002031Y013992D01*
X002242Y015278D01*
X002590Y016534D01*
X003073Y017745D01*
X003683Y018897D01*
X004415Y019976D01*
X005259Y020970D01*
X006206Y021866D01*
X007243Y022655D01*
X008360Y023327D01*
X009544Y023875D01*
X010779Y024291D01*
X012052Y024571D01*
X013348Y024712D01*
X014652Y024712D01*
X015948Y024571D01*
X017221Y024291D01*
X018456Y023875D01*
X019640Y023327D01*
X020757Y022655D01*
X021794Y021866D01*
X022741Y020970D01*
X023585Y019976D01*
X024317Y018897D01*
X024927Y017745D01*
X025410Y016534D01*
X025758Y015278D01*
X025969Y013992D01*
X026040Y012690D01*
X025969Y011388D01*
X025758Y010102D01*
X025410Y008846D01*
X024927Y007634D01*
X024317Y006483D01*
X023585Y005404D01*
X022741Y004410D01*
X021794Y003514D01*
X020757Y002725D01*
X019640Y002053D01*
X018456Y001505D01*
X017221Y001089D01*
X015948Y000809D01*
X014652Y000668D01*
X013348Y000668D01*
X012052Y000809D01*
X010779Y001089D01*
X009544Y001505D01*
X008360Y002053D01*
X007243Y002725D01*
X006206Y003514D01*
X005259Y004410D01*
X004415Y005404D01*
X004344Y005509D02*
X013280Y005509D01*
X013280Y005607D02*
X004277Y005607D01*
X004210Y005706D02*
X013280Y005706D01*
X013280Y005804D02*
X004143Y005804D01*
X004077Y005903D02*
X013280Y005903D01*
X013280Y006001D02*
X004010Y006001D01*
X003943Y006100D02*
X013280Y006100D01*
X013280Y006198D02*
X003876Y006198D01*
X003809Y006297D02*
X013280Y006297D01*
X013280Y006395D02*
X003743Y006395D01*
X003678Y006494D02*
X013280Y006494D01*
X013280Y006592D02*
X003625Y006592D01*
X003573Y006691D02*
X013280Y006691D01*
X013280Y006789D02*
X005917Y006789D01*
X005846Y006760D02*
X006004Y006825D01*
X006125Y006946D01*
X006190Y007104D01*
X006190Y007275D01*
X006125Y007434D01*
X006004Y007554D01*
X005846Y007620D01*
X005154Y007620D01*
X004996Y007554D01*
X004875Y007434D01*
X004810Y007275D01*
X004810Y007104D01*
X004875Y006946D01*
X004996Y006825D01*
X005154Y006760D01*
X005846Y006760D01*
X006066Y006888D02*
X013280Y006888D01*
X013280Y006986D02*
X006141Y006986D01*
X006182Y007085D02*
X013280Y007085D01*
X013280Y007183D02*
X006190Y007183D01*
X006187Y007282D02*
X013280Y007282D01*
X013280Y007380D02*
X012649Y007380D01*
X012599Y007360D02*
X012783Y007436D01*
X012924Y007577D01*
X013000Y007760D01*
X013076Y007577D01*
X013217Y007436D01*
X013280Y007410D01*
X013280Y005183D01*
X013194Y005148D01*
X013042Y004996D01*
X013000Y004894D01*
X012958Y004996D01*
X012806Y005148D01*
X012607Y005230D01*
X012393Y005230D01*
X012194Y005148D01*
X012042Y004996D01*
X012000Y004894D01*
X011958Y004996D01*
X011806Y005148D01*
X011607Y005230D01*
X011393Y005230D01*
X011194Y005148D01*
X011042Y004996D01*
X011000Y004894D01*
X010958Y004996D01*
X010806Y005148D01*
X010607Y005230D01*
X010393Y005230D01*
X010194Y005148D01*
X010042Y004996D01*
X010000Y004894D01*
X009958Y004996D01*
X009806Y005148D01*
X009607Y005230D01*
X009393Y005230D01*
X009194Y005148D01*
X009042Y004996D01*
X008960Y004797D01*
X008960Y004583D01*
X009042Y004384D01*
X009194Y004232D01*
X009393Y004150D01*
X009607Y004150D01*
X009806Y004232D01*
X009958Y004384D01*
X010000Y004486D01*
X010042Y004384D01*
X010194Y004232D01*
X010393Y004150D01*
X010607Y004150D01*
X010806Y004232D01*
X010958Y004384D01*
X011000Y004486D01*
X011042Y004384D01*
X011194Y004232D01*
X011393Y004150D01*
X011607Y004150D01*
X011806Y004232D01*
X011958Y004384D01*
X012000Y004486D01*
X012042Y004384D01*
X012194Y004232D01*
X012393Y004150D01*
X012607Y004150D01*
X012806Y004232D01*
X012958Y004384D01*
X013000Y004486D01*
X013042Y004384D01*
X013194Y004232D01*
X013393Y004150D01*
X013607Y004150D01*
X013806Y004232D01*
X013958Y004384D01*
X014000Y004486D01*
X014042Y004384D01*
X014194Y004232D01*
X014393Y004150D01*
X014607Y004150D01*
X014806Y004232D01*
X014958Y004384D01*
X015000Y004486D01*
X015042Y004384D01*
X015194Y004232D01*
X015393Y004150D01*
X015607Y004150D01*
X015806Y004232D01*
X015958Y004384D01*
X016000Y004486D01*
X016042Y004384D01*
X016194Y004232D01*
X016393Y004150D01*
X016607Y004150D01*
X016806Y004232D01*
X016958Y004384D01*
X017000Y004486D01*
X017042Y004384D01*
X017194Y004232D01*
X017393Y004150D01*
X017607Y004150D01*
X017806Y004232D01*
X017958Y004384D01*
X018000Y004486D01*
X018042Y004384D01*
X018194Y004232D01*
X018393Y004150D01*
X018607Y004150D01*
X018806Y004232D01*
X018958Y004384D01*
X019040Y004583D01*
X019040Y004797D01*
X018958Y004996D01*
X018806Y005148D01*
X018607Y005230D01*
X018393Y005230D01*
X018194Y005148D01*
X018042Y004996D01*
X018000Y004894D01*
X017958Y004996D01*
X017806Y005148D01*
X017607Y005230D01*
X017393Y005230D01*
X017194Y005148D01*
X017042Y004996D01*
X017000Y004894D01*
X016958Y004996D01*
X016806Y005148D01*
X016607Y005230D01*
X016393Y005230D01*
X016194Y005148D01*
X016042Y004996D01*
X016000Y004894D01*
X015958Y004996D01*
X015806Y005148D01*
X015780Y005159D01*
X017720Y007099D01*
X017720Y007410D01*
X017783Y007436D01*
X017924Y007577D01*
X018000Y007760D01*
X018076Y007577D01*
X018217Y007436D01*
X018401Y007360D01*
X018599Y007360D01*
X018783Y007436D01*
X018924Y007577D01*
X019000Y007760D01*
X019000Y007831D01*
X019015Y007846D01*
X019107Y008069D01*
X019107Y008311D01*
X019015Y008534D01*
X019000Y008549D01*
X019000Y008619D01*
X018924Y008803D01*
X018783Y008944D01*
X018599Y009020D01*
X018401Y009020D01*
X018217Y008944D01*
X018076Y008803D01*
X018000Y008619D01*
X017924Y008803D01*
X017783Y008944D01*
X017599Y009020D01*
X017401Y009020D01*
X017217Y008944D01*
X017076Y008803D01*
X017000Y008619D01*
X016924Y008803D01*
X016783Y008944D01*
X016599Y009020D01*
X016401Y009020D01*
X016217Y008944D01*
X016076Y008803D01*
X016000Y008619D01*
X015924Y008803D01*
X016341Y009220D01*
X021591Y009220D01*
X022220Y009849D01*
X022220Y010664D01*
X022323Y010707D01*
X022483Y010867D01*
X022570Y011077D01*
X022570Y011303D01*
X022483Y011513D01*
X022323Y011673D01*
X022113Y011760D01*
X021887Y011760D01*
X021677Y011673D01*
X021517Y011513D01*
X021430Y011303D01*
X021430Y011077D01*
X021517Y010867D01*
X021677Y010707D01*
X021780Y010664D01*
X021780Y010031D01*
X021409Y009660D01*
X016159Y009660D01*
X015519Y009020D01*
X015401Y009020D01*
X015217Y008944D01*
X015076Y008803D01*
X015000Y008619D01*
X014924Y008803D01*
X014783Y008944D01*
X014599Y009020D01*
X014401Y009020D01*
X014217Y008944D01*
X014076Y008803D01*
X014000Y008619D01*
X013924Y008803D01*
X013783Y008944D01*
X013599Y009020D01*
X013401Y009020D01*
X013217Y008944D01*
X013076Y008803D01*
X013000Y008619D01*
X012924Y008803D01*
X012783Y008944D01*
X012720Y008970D01*
X012720Y009049D01*
X013441Y009770D01*
X020191Y009770D01*
X020591Y010170D01*
X020720Y010299D01*
X020720Y010664D01*
X020823Y010707D01*
X020983Y010867D01*
X021070Y011077D01*
X021070Y011303D01*
X020983Y011513D01*
X020823Y011673D01*
X020613Y011760D01*
X020387Y011760D01*
X020177Y011673D01*
X020017Y011513D01*
X019930Y011303D01*
X019930Y011077D01*
X020017Y010867D01*
X020177Y010707D01*
X020280Y010664D01*
X020280Y010481D01*
X020009Y010210D01*
X013259Y010210D01*
X012280Y009231D01*
X012280Y008970D01*
X012217Y008944D01*
X012076Y008803D01*
X012000Y008619D01*
X011924Y008803D01*
X011783Y008944D01*
X011599Y009020D01*
X011401Y009020D01*
X011217Y008944D01*
X011076Y008803D01*
X011000Y008619D01*
X010924Y008803D01*
X010783Y008944D01*
X010599Y009020D01*
X010401Y009020D01*
X010217Y008944D01*
X010076Y008803D01*
X010000Y008619D01*
X010000Y008549D01*
X009978Y008571D01*
X009968Y008632D01*
X009945Y008704D01*
X009911Y008772D01*
X009866Y008833D01*
X009813Y008886D01*
X009752Y008930D01*
X009684Y008965D01*
X009612Y008988D01*
X009538Y009000D01*
X009529Y009000D01*
X009529Y008797D01*
X009471Y008797D01*
X009471Y009000D01*
X009462Y009000D01*
X009388Y008988D01*
X009316Y008965D01*
X009248Y008930D01*
X009187Y008886D01*
X009134Y008833D01*
X009089Y008772D01*
X009055Y008704D01*
X009032Y008632D01*
X009022Y008571D01*
X008985Y008534D01*
X008893Y008311D01*
X008893Y008069D01*
X008985Y007846D01*
X009022Y007809D01*
X009032Y007748D01*
X009055Y007676D01*
X003056Y007676D01*
X003017Y007774D02*
X005119Y007774D01*
X005154Y007760D02*
X005846Y007760D01*
X006004Y007825D01*
X006125Y007946D01*
X006134Y007970D01*
X007112Y007970D01*
X007322Y007760D01*
X007678Y007760D01*
X007930Y008012D01*
X007930Y008309D01*
X009091Y009470D01*
X010091Y009470D01*
X010220Y009599D01*
X010591Y009970D01*
X010591Y009970D01*
X010720Y010099D01*
X010720Y010410D01*
X010783Y010436D01*
X010924Y010577D01*
X011000Y010760D01*
X011076Y010577D01*
X011217Y010436D01*
X011401Y010360D01*
X011599Y010360D01*
X011783Y010436D01*
X011924Y010577D01*
X012000Y010760D01*
X012076Y010577D01*
X012217Y010436D01*
X012401Y010360D01*
X012599Y010360D01*
X012783Y010436D01*
X012924Y010577D01*
X013000Y010760D01*
X013076Y010577D01*
X013217Y010436D01*
X013401Y010360D01*
X013599Y010360D01*
X013783Y010436D01*
X013924Y010577D01*
X014000Y010760D01*
X014076Y010577D01*
X014217Y010436D01*
X014401Y010360D01*
X014599Y010360D01*
X014783Y010436D01*
X014924Y010577D01*
X015000Y010760D01*
X015076Y010577D01*
X015217Y010436D01*
X015401Y010360D01*
X015599Y010360D01*
X015783Y010436D01*
X015924Y010577D01*
X016000Y010760D01*
X016076Y010577D01*
X016217Y010436D01*
X016401Y010360D01*
X016599Y010360D01*
X016783Y010436D01*
X016924Y010577D01*
X017000Y010760D01*
X017076Y010577D01*
X017217Y010436D01*
X017401Y010360D01*
X017599Y010360D01*
X017783Y010436D01*
X017924Y010577D01*
X018000Y010760D01*
X018076Y010577D01*
X018217Y010436D01*
X018401Y010360D01*
X018599Y010360D01*
X018783Y010436D01*
X018924Y010577D01*
X019000Y010760D01*
X019000Y010831D01*
X019015Y010846D01*
X019107Y011069D01*
X019107Y011311D01*
X019015Y011534D01*
X019000Y011549D01*
X019000Y011619D01*
X018924Y011803D01*
X018783Y011944D01*
X018599Y012020D01*
X018401Y012020D01*
X018217Y011944D01*
X018076Y011803D01*
X018000Y011619D01*
X017924Y011803D01*
X017783Y011944D01*
X017599Y012020D01*
X017401Y012020D01*
X017217Y011944D01*
X017076Y011803D01*
X017000Y011619D01*
X016924Y011803D01*
X016783Y011944D01*
X016599Y012020D01*
X016401Y012020D01*
X016217Y011944D01*
X016076Y011803D01*
X016000Y011619D01*
X015924Y011803D01*
X015783Y011944D01*
X015599Y012020D01*
X015401Y012020D01*
X015217Y011944D01*
X015076Y011803D01*
X015000Y011619D01*
X014924Y011803D01*
X014783Y011944D01*
X014599Y012020D01*
X014401Y012020D01*
X014217Y011944D01*
X014076Y011803D01*
X014000Y011619D01*
X013924Y011803D01*
X013783Y011944D01*
X013599Y012020D01*
X013401Y012020D01*
X013217Y011944D01*
X013076Y011803D01*
X013000Y011619D01*
X012924Y011803D01*
X012783Y011944D01*
X012599Y012020D01*
X012401Y012020D01*
X012217Y011944D01*
X012076Y011803D01*
X012000Y011619D01*
X011924Y011803D01*
X011783Y011944D01*
X011599Y012020D01*
X011401Y012020D01*
X011217Y011944D01*
X011076Y011803D01*
X011000Y011619D01*
X010924Y011803D01*
X010783Y011944D01*
X010599Y012020D01*
X010401Y012020D01*
X010217Y011944D01*
X010076Y011803D01*
X010000Y011619D01*
X009924Y011803D01*
X009783Y011944D01*
X009599Y012020D01*
X009401Y012020D01*
X009217Y011944D01*
X009076Y011803D01*
X009000Y011619D01*
X009000Y011549D01*
X008985Y011534D01*
X008893Y011311D01*
X008893Y011069D01*
X008985Y010846D01*
X009000Y010831D01*
X009000Y010760D01*
X009076Y010577D01*
X009217Y010436D01*
X009401Y010360D01*
X009599Y010360D01*
X009783Y010436D01*
X009924Y010577D01*
X010000Y010760D01*
X010076Y010577D01*
X010217Y010436D01*
X010280Y010410D01*
X010280Y010281D01*
X009909Y009910D01*
X008909Y009910D01*
X008780Y009781D01*
X007619Y008620D01*
X007322Y008620D01*
X007112Y008410D01*
X006134Y008410D01*
X006125Y008434D01*
X006004Y008554D01*
X005846Y008620D01*
X005154Y008620D01*
X004996Y008554D01*
X004875Y008434D01*
X004810Y008275D01*
X004810Y008104D01*
X004875Y007946D01*
X004996Y007825D01*
X005154Y007760D01*
X005052Y007577D02*
X003103Y007577D01*
X003155Y007479D02*
X004921Y007479D01*
X004853Y007380D02*
X003208Y007380D01*
X003260Y007282D02*
X004813Y007282D01*
X004810Y007183D02*
X003312Y007183D01*
X003364Y007085D02*
X004818Y007085D01*
X004859Y006986D02*
X003416Y006986D01*
X003469Y006888D02*
X004934Y006888D01*
X005083Y006789D02*
X003521Y006789D01*
X002978Y007873D02*
X004949Y007873D01*
X004865Y007971D02*
X002939Y007971D01*
X002899Y008070D02*
X004824Y008070D01*
X004810Y008168D02*
X002860Y008168D01*
X002821Y008267D02*
X004810Y008267D01*
X004847Y008365D02*
X002782Y008365D01*
X002742Y008464D02*
X004906Y008464D01*
X005016Y008562D02*
X002703Y008562D01*
X002664Y008661D02*
X007660Y008661D01*
X007758Y008759D02*
X002625Y008759D01*
X002587Y008858D02*
X004964Y008858D01*
X004996Y008825D02*
X005154Y008760D01*
X005846Y008760D01*
X006004Y008825D01*
X006125Y008946D01*
X006190Y009104D01*
X006190Y009275D01*
X006125Y009434D01*
X006004Y009554D01*
X005846Y009620D01*
X005154Y009620D01*
X004996Y009554D01*
X004875Y009434D01*
X004810Y009275D01*
X004810Y009104D01*
X004875Y008946D01*
X004996Y008825D01*
X004871Y008956D02*
X002560Y008956D01*
X002532Y009055D02*
X004830Y009055D01*
X004810Y009153D02*
X002505Y009153D01*
X002477Y009252D02*
X004810Y009252D01*
X004841Y009350D02*
X002450Y009350D01*
X002423Y009449D02*
X004891Y009449D01*
X004989Y009547D02*
X002395Y009547D01*
X002368Y009646D02*
X008645Y009646D01*
X008743Y009744D02*
X002341Y009744D01*
X002313Y009843D02*
X008842Y009843D01*
X009000Y009690D02*
X010000Y009690D01*
X010500Y010190D01*
X010500Y011190D01*
X011000Y011549D02*
X011000Y011619D01*
X011000Y011549D01*
X011000Y011549D01*
X011000Y011616D02*
X011000Y011616D01*
X010961Y011714D02*
X011039Y011714D01*
X011086Y011813D02*
X010914Y011813D01*
X010816Y011911D02*
X011184Y011911D01*
X011376Y012010D02*
X010624Y012010D01*
X010376Y012010D02*
X009624Y012010D01*
X009816Y011911D02*
X010184Y011911D01*
X010086Y011813D02*
X009914Y011813D01*
X009961Y011714D02*
X010039Y011714D01*
X010000Y011619D02*
X010000Y011549D01*
X010000Y011549D01*
X010000Y011619D01*
X010000Y011616D02*
X010000Y011616D01*
X009376Y012010D02*
X006431Y012010D01*
X006411Y011961D02*
X006497Y012168D01*
X006497Y012777D01*
X007120Y013400D01*
X007590Y013400D01*
X007720Y013270D01*
X007902Y013195D01*
X008098Y013195D01*
X008280Y013270D01*
X008420Y013410D01*
X008495Y013591D01*
X008495Y013775D01*
X008664Y013944D01*
X008746Y014026D01*
X008790Y014132D01*
X008790Y015538D01*
X008818Y015538D01*
X008918Y015637D01*
X008918Y015995D01*
X008818Y016094D01*
X008598Y016094D01*
X008570Y016106D01*
X008454Y016106D01*
X008426Y016094D01*
X008205Y016094D01*
X008106Y015995D01*
X008106Y015637D01*
X008205Y015538D01*
X008210Y015538D01*
X008210Y014310D01*
X008085Y014185D01*
X007902Y014185D01*
X007720Y014110D01*
X007590Y013980D01*
X006021Y013980D01*
X006024Y013977D02*
X005220Y014781D01*
X005091Y014910D01*
X003993Y014910D01*
X003958Y014996D01*
X003806Y015148D01*
X003704Y015190D01*
X003806Y015232D01*
X003958Y015384D01*
X004040Y015583D01*
X004040Y015797D01*
X003958Y015996D01*
X003806Y016148D01*
X003720Y016183D01*
X003720Y016599D01*
X004720Y017599D01*
X004720Y018164D01*
X004823Y018207D01*
X004983Y018367D01*
X005070Y018577D01*
X005070Y018803D01*
X004983Y019013D01*
X004823Y019173D01*
X004613Y019260D01*
X004387Y019260D01*
X004177Y019173D01*
X004017Y019013D01*
X003930Y018803D01*
X003930Y018577D01*
X004017Y018367D01*
X004177Y018207D01*
X004280Y018164D01*
X004280Y017781D01*
X003409Y016910D01*
X003280Y016781D01*
X003280Y016183D01*
X003194Y016148D01*
X003042Y015996D01*
X002960Y015797D01*
X002960Y015583D01*
X003042Y015384D01*
X003194Y015232D01*
X003296Y015190D01*
X003194Y015148D01*
X003042Y014996D01*
X002960Y014797D01*
X002960Y014583D01*
X003042Y014384D01*
X003194Y014232D01*
X003393Y014150D01*
X003607Y014150D01*
X003806Y014232D01*
X003958Y014384D01*
X003993Y014470D01*
X004909Y014470D01*
X005713Y013666D01*
X005713Y013587D01*
X005614Y013546D01*
X005455Y013387D01*
X005369Y013180D01*
X005369Y012168D01*
X005455Y011961D01*
X005614Y011803D01*
X005821Y011717D01*
X006045Y011717D01*
X006252Y011803D01*
X006411Y011961D01*
X006361Y011911D02*
X009184Y011911D01*
X009086Y011813D02*
X006263Y011813D01*
X006472Y012108D02*
X026008Y012108D01*
X026003Y012010D02*
X018624Y012010D01*
X018816Y011911D02*
X025998Y011911D01*
X025992Y011813D02*
X018914Y011813D01*
X018961Y011714D02*
X020277Y011714D01*
X020120Y011616D02*
X019000Y011616D01*
X019022Y011517D02*
X020021Y011517D01*
X019978Y011419D02*
X019063Y011419D01*
X019103Y011320D02*
X019937Y011320D01*
X019930Y011222D02*
X019107Y011222D01*
X019107Y011123D02*
X019930Y011123D01*
X019951Y011025D02*
X019089Y011025D01*
X019048Y010926D02*
X019992Y010926D01*
X020056Y010828D02*
X019000Y010828D01*
X018987Y010729D02*
X020154Y010729D01*
X020280Y010631D02*
X018946Y010631D01*
X018880Y010532D02*
X020280Y010532D01*
X020233Y010434D02*
X018778Y010434D01*
X018222Y010434D02*
X017778Y010434D01*
X017880Y010532D02*
X018120Y010532D01*
X018054Y010631D02*
X017946Y010631D01*
X017987Y010729D02*
X018013Y010729D01*
X018000Y010760D02*
X018000Y010831D01*
X018000Y010831D01*
X018000Y010760D01*
X018000Y010828D02*
X018000Y010828D01*
X018000Y011549D02*
X018000Y011549D01*
X018000Y011619D01*
X018000Y011549D01*
X018000Y011616D02*
X018000Y011616D01*
X017961Y011714D02*
X018039Y011714D01*
X018086Y011813D02*
X017914Y011813D01*
X017816Y011911D02*
X018184Y011911D01*
X018376Y012010D02*
X017624Y012010D01*
X017376Y012010D02*
X016624Y012010D01*
X016816Y011911D02*
X017184Y011911D01*
X017086Y011813D02*
X016914Y011813D01*
X016961Y011714D02*
X017039Y011714D01*
X017000Y011619D02*
X017000Y011549D01*
X017000Y011549D01*
X017000Y011619D01*
X017000Y011616D02*
X017000Y011616D01*
X016376Y012010D02*
X015624Y012010D01*
X015816Y011911D02*
X016184Y011911D01*
X016086Y011813D02*
X015914Y011813D01*
X015961Y011714D02*
X016039Y011714D01*
X016000Y011619D02*
X016000Y011549D01*
X016000Y011549D01*
X016000Y011619D01*
X016000Y011616D02*
X016000Y011616D01*
X015376Y012010D02*
X014624Y012010D01*
X014816Y011911D02*
X015184Y011911D01*
X015086Y011813D02*
X014914Y011813D01*
X014961Y011714D02*
X015039Y011714D01*
X015000Y011619D02*
X015000Y011549D01*
X015000Y011549D01*
X015000Y011619D01*
X015000Y011616D02*
X015000Y011616D01*
X014376Y012010D02*
X013624Y012010D01*
X013816Y011911D02*
X014184Y011911D01*
X014086Y011813D02*
X013914Y011813D01*
X013961Y011714D02*
X014039Y011714D01*
X014000Y011619D02*
X014000Y011549D01*
X014000Y011549D01*
X014000Y011619D01*
X014000Y011616D02*
X014000Y011616D01*
X013376Y012010D02*
X012624Y012010D01*
X012816Y011911D02*
X013184Y011911D01*
X013086Y011813D02*
X012914Y011813D01*
X012961Y011714D02*
X013039Y011714D01*
X013000Y011619D02*
X013000Y011549D01*
X013000Y011549D01*
X013000Y011619D01*
X013000Y011616D02*
X013000Y011616D01*
X012376Y012010D02*
X011624Y012010D01*
X011816Y011911D02*
X012184Y011911D01*
X012086Y011813D02*
X011914Y011813D01*
X011961Y011714D02*
X012039Y011714D01*
X012000Y011619D02*
X012000Y011549D01*
X012000Y011549D01*
X012000Y011619D01*
X012000Y011616D02*
X012000Y011616D01*
X012000Y010831D02*
X012000Y010760D01*
X012000Y010831D01*
X012000Y010831D01*
X012000Y010828D02*
X012000Y010828D01*
X011987Y010729D02*
X012013Y010729D01*
X012054Y010631D02*
X011946Y010631D01*
X011880Y010532D02*
X012120Y010532D01*
X012222Y010434D02*
X011778Y010434D01*
X011222Y010434D02*
X010778Y010434D01*
X010720Y010335D02*
X020134Y010335D01*
X020036Y010237D02*
X010720Y010237D01*
X010720Y010138D02*
X013187Y010138D01*
X013089Y010040D02*
X010661Y010040D01*
X010563Y009941D02*
X012990Y009941D01*
X012892Y009843D02*
X010464Y009843D01*
X010366Y009744D02*
X012793Y009744D01*
X012695Y009646D02*
X010267Y009646D01*
X010220Y009599D02*
X010220Y009599D01*
X010169Y009547D02*
X012596Y009547D01*
X012498Y009449D02*
X009070Y009449D01*
X008972Y009350D02*
X012399Y009350D01*
X012301Y009252D02*
X008873Y009252D01*
X008775Y009153D02*
X012280Y009153D01*
X012280Y009055D02*
X008676Y009055D01*
X008578Y008956D02*
X009299Y008956D01*
X009159Y008858D02*
X008479Y008858D01*
X008381Y008759D02*
X009083Y008759D01*
X009041Y008661D02*
X008282Y008661D01*
X008184Y008562D02*
X009013Y008562D01*
X008956Y008464D02*
X008085Y008464D01*
X007987Y008365D02*
X008915Y008365D01*
X008893Y008267D02*
X007930Y008267D01*
X007930Y008168D02*
X008893Y008168D01*
X008893Y008070D02*
X007930Y008070D01*
X007890Y007971D02*
X008933Y007971D01*
X008974Y007873D02*
X007791Y007873D01*
X007693Y007774D02*
X009028Y007774D01*
X009055Y007676D02*
X009089Y007608D01*
X009134Y007547D01*
X009187Y007494D01*
X009248Y007449D01*
X009316Y007415D01*
X009388Y007392D01*
X009462Y007380D01*
X009471Y007380D01*
X009471Y007582D01*
X009529Y007582D01*
X009529Y007380D01*
X009538Y007380D01*
X009612Y007392D01*
X009684Y007415D01*
X009752Y007449D01*
X009813Y007494D01*
X009866Y007547D01*
X009911Y007608D01*
X009945Y007676D01*
X010035Y007676D01*
X009945Y007676D02*
X009968Y007748D01*
X009978Y007809D01*
X010000Y007831D01*
X010000Y007760D01*
X010076Y007577D01*
X010217Y007436D01*
X010401Y007360D01*
X010599Y007360D01*
X010783Y007436D01*
X010924Y007577D01*
X011000Y007760D01*
X011076Y007577D01*
X011217Y007436D01*
X011401Y007360D01*
X011599Y007360D01*
X011783Y007436D01*
X011924Y007577D01*
X012000Y007760D01*
X012076Y007577D01*
X012217Y007436D01*
X012401Y007360D01*
X012599Y007360D01*
X012351Y007380D02*
X011649Y007380D01*
X011826Y007479D02*
X012174Y007479D01*
X012076Y007577D02*
X011924Y007577D01*
X011965Y007676D02*
X012035Y007676D01*
X012000Y007760D02*
X012000Y007831D01*
X012000Y007831D01*
X012000Y007760D01*
X012000Y007774D02*
X012000Y007774D01*
X012500Y008190D02*
X012500Y009140D01*
X013350Y009990D01*
X020100Y009990D01*
X020500Y010390D01*
X020500Y011190D01*
X020723Y011714D02*
X021777Y011714D01*
X021620Y011616D02*
X020880Y011616D01*
X020979Y011517D02*
X021521Y011517D01*
X021478Y011419D02*
X021022Y011419D01*
X021063Y011320D02*
X021437Y011320D01*
X021430Y011222D02*
X021070Y011222D01*
X021070Y011123D02*
X021430Y011123D01*
X021451Y011025D02*
X021049Y011025D01*
X021008Y010926D02*
X021492Y010926D01*
X021556Y010828D02*
X020944Y010828D01*
X020846Y010729D02*
X021654Y010729D01*
X021780Y010631D02*
X020720Y010631D01*
X020720Y010532D02*
X021780Y010532D01*
X021780Y010434D02*
X020720Y010434D01*
X020720Y010335D02*
X021780Y010335D01*
X021780Y010237D02*
X020658Y010237D01*
X020560Y010138D02*
X021780Y010138D01*
X021780Y010040D02*
X020461Y010040D01*
X020363Y009941D02*
X021690Y009941D01*
X021592Y009843D02*
X020264Y009843D01*
X018983Y008661D02*
X025336Y008661D01*
X025297Y008562D02*
X019000Y008562D01*
X019044Y008464D02*
X025258Y008464D01*
X025218Y008365D02*
X019085Y008365D01*
X019107Y008267D02*
X025179Y008267D01*
X025140Y008168D02*
X019107Y008168D01*
X019107Y008070D02*
X025101Y008070D01*
X025061Y007971D02*
X019067Y007971D01*
X019026Y007873D02*
X025022Y007873D01*
X024983Y007774D02*
X019000Y007774D01*
X018965Y007676D02*
X024944Y007676D01*
X024897Y007577D02*
X018924Y007577D01*
X018826Y007479D02*
X024845Y007479D01*
X024792Y007380D02*
X018649Y007380D01*
X018351Y007380D02*
X017720Y007380D01*
X017720Y007282D02*
X024740Y007282D01*
X024688Y007183D02*
X017720Y007183D01*
X017706Y007085D02*
X024636Y007085D01*
X024584Y006986D02*
X017608Y006986D01*
X017509Y006888D02*
X024531Y006888D01*
X024479Y006789D02*
X017411Y006789D01*
X017312Y006691D02*
X024427Y006691D01*
X024375Y006592D02*
X017214Y006592D01*
X017115Y006494D02*
X024322Y006494D01*
X024257Y006395D02*
X017017Y006395D01*
X016918Y006297D02*
X024191Y006297D01*
X024124Y006198D02*
X016820Y006198D01*
X016721Y006100D02*
X024057Y006100D01*
X023990Y006001D02*
X016623Y006001D01*
X016524Y005903D02*
X023923Y005903D01*
X023857Y005804D02*
X016426Y005804D01*
X016327Y005706D02*
X023790Y005706D01*
X023723Y005607D02*
X016229Y005607D01*
X016130Y005509D02*
X023656Y005509D01*
X023590Y005410D02*
X016032Y005410D01*
X015933Y005312D02*
X023507Y005312D01*
X023423Y005213D02*
X018647Y005213D01*
X018839Y005115D02*
X023340Y005115D01*
X023256Y005016D02*
X018937Y005016D01*
X018990Y004918D02*
X023172Y004918D01*
X023089Y004819D02*
X019031Y004819D01*
X019040Y004721D02*
X023005Y004721D01*
X022921Y004622D02*
X019040Y004622D01*
X019016Y004524D02*
X022838Y004524D01*
X022754Y004425D02*
X018975Y004425D01*
X018901Y004327D02*
X022653Y004327D01*
X022549Y004228D02*
X018797Y004228D01*
X018203Y004228D02*
X017797Y004228D01*
X017901Y004327D02*
X018099Y004327D01*
X018025Y004425D02*
X017975Y004425D01*
X017990Y004918D02*
X018010Y004918D01*
X018063Y005016D02*
X017937Y005016D01*
X017839Y005115D02*
X018161Y005115D01*
X018353Y005213D02*
X017647Y005213D01*
X017353Y005213D02*
X016647Y005213D01*
X016839Y005115D02*
X017161Y005115D01*
X017063Y005016D02*
X016937Y005016D01*
X016990Y004918D02*
X017010Y004918D01*
X017025Y004425D02*
X016975Y004425D01*
X016901Y004327D02*
X017099Y004327D01*
X017203Y004228D02*
X016797Y004228D01*
X016203Y004228D02*
X015797Y004228D01*
X015901Y004327D02*
X016099Y004327D01*
X016025Y004425D02*
X015975Y004425D01*
X015500Y004690D02*
X015500Y005190D01*
X017500Y007190D01*
X017500Y008190D01*
X018000Y008549D02*
X018000Y008619D01*
X018000Y008549D01*
X018000Y008549D01*
X018000Y008562D02*
X018000Y008562D01*
X017983Y008661D02*
X018017Y008661D01*
X018058Y008759D02*
X017942Y008759D01*
X017869Y008858D02*
X018131Y008858D01*
X018247Y008956D02*
X017753Y008956D01*
X017247Y008956D02*
X016753Y008956D01*
X016869Y008858D02*
X017131Y008858D01*
X017058Y008759D02*
X016942Y008759D01*
X016983Y008661D02*
X017017Y008661D01*
X017000Y008619D02*
X017000Y008549D01*
X017000Y008549D01*
X017000Y008619D01*
X017000Y008562D02*
X017000Y008562D01*
X016500Y008190D02*
X016500Y007190D01*
X014500Y005190D01*
X014500Y004690D01*
X014901Y004327D02*
X015099Y004327D01*
X015025Y004425D02*
X014975Y004425D01*
X014797Y004228D02*
X015203Y004228D01*
X014203Y004228D02*
X013797Y004228D01*
X013901Y004327D02*
X014099Y004327D01*
X014025Y004425D02*
X013975Y004425D01*
X013500Y004690D02*
X013500Y008190D01*
X014000Y008549D02*
X014000Y008619D01*
X014000Y008549D01*
X014000Y008549D01*
X014000Y008562D02*
X014000Y008562D01*
X013983Y008661D02*
X014017Y008661D01*
X014058Y008759D02*
X013942Y008759D01*
X013869Y008858D02*
X014131Y008858D01*
X014247Y008956D02*
X013753Y008956D01*
X013247Y008956D02*
X012753Y008956D01*
X012726Y009055D02*
X015554Y009055D01*
X015652Y009153D02*
X012825Y009153D01*
X012923Y009252D02*
X015751Y009252D01*
X015849Y009350D02*
X013022Y009350D01*
X013120Y009449D02*
X015948Y009449D01*
X016046Y009547D02*
X013219Y009547D01*
X013317Y009646D02*
X016145Y009646D01*
X016250Y009440D02*
X015500Y008690D01*
X015500Y008190D01*
X016000Y008549D02*
X016000Y008619D01*
X016000Y008549D01*
X016000Y008549D01*
X016000Y008562D02*
X016000Y008562D01*
X015983Y008661D02*
X016017Y008661D01*
X016058Y008759D02*
X015942Y008759D01*
X015979Y008858D02*
X016131Y008858D01*
X016078Y008956D02*
X016247Y008956D01*
X016176Y009055D02*
X025468Y009055D01*
X025495Y009153D02*
X016275Y009153D01*
X016250Y009440D02*
X021500Y009440D01*
X022000Y009940D01*
X022000Y011190D01*
X022380Y011616D02*
X025982Y011616D01*
X025987Y011714D02*
X022223Y011714D01*
X022479Y011517D02*
X025976Y011517D01*
X025971Y011419D02*
X022522Y011419D01*
X022563Y011320D02*
X025958Y011320D01*
X025969Y011388D02*
X025969Y011388D01*
X025942Y011222D02*
X022570Y011222D01*
X022570Y011123D02*
X025926Y011123D01*
X025910Y011025D02*
X022549Y011025D01*
X022508Y010926D02*
X025894Y010926D01*
X025878Y010828D02*
X022444Y010828D01*
X022346Y010729D02*
X025861Y010729D01*
X025845Y010631D02*
X022220Y010631D01*
X022220Y010532D02*
X025829Y010532D01*
X025813Y010434D02*
X022220Y010434D01*
X022220Y010335D02*
X025797Y010335D01*
X025781Y010237D02*
X022220Y010237D01*
X022220Y010138D02*
X025764Y010138D01*
X025741Y010040D02*
X022220Y010040D01*
X022220Y009941D02*
X025714Y009941D01*
X025687Y009843D02*
X022214Y009843D01*
X022116Y009744D02*
X025659Y009744D01*
X025632Y009646D02*
X022017Y009646D01*
X021919Y009547D02*
X025605Y009547D01*
X025577Y009449D02*
X021820Y009449D01*
X021722Y009350D02*
X025550Y009350D01*
X025523Y009252D02*
X021623Y009252D01*
X021493Y009744D02*
X013416Y009744D01*
X013222Y010434D02*
X012778Y010434D01*
X012880Y010532D02*
X013120Y010532D01*
X013054Y010631D02*
X012946Y010631D01*
X012987Y010729D02*
X013013Y010729D01*
X013000Y010760D02*
X013000Y010831D01*
X013000Y010831D01*
X013000Y010760D01*
X013000Y010828D02*
X013000Y010828D01*
X013778Y010434D02*
X014222Y010434D01*
X014120Y010532D02*
X013880Y010532D01*
X013946Y010631D02*
X014054Y010631D01*
X014013Y010729D02*
X013987Y010729D01*
X014000Y010760D02*
X014000Y010831D01*
X014000Y010831D01*
X014000Y010760D01*
X014000Y010828D02*
X014000Y010828D01*
X014778Y010434D02*
X015222Y010434D01*
X015120Y010532D02*
X014880Y010532D01*
X014946Y010631D02*
X015054Y010631D01*
X015013Y010729D02*
X014987Y010729D01*
X015000Y010760D02*
X015000Y010831D01*
X015000Y010831D01*
X015000Y010760D01*
X015000Y010828D02*
X015000Y010828D01*
X015778Y010434D02*
X016222Y010434D01*
X016120Y010532D02*
X015880Y010532D01*
X015946Y010631D02*
X016054Y010631D01*
X016013Y010729D02*
X015987Y010729D01*
X016000Y010760D02*
X016000Y010831D01*
X016000Y010831D01*
X016000Y010760D01*
X016000Y010828D02*
X016000Y010828D01*
X016778Y010434D02*
X017222Y010434D01*
X017120Y010532D02*
X016880Y010532D01*
X016946Y010631D02*
X017054Y010631D01*
X017013Y010729D02*
X016987Y010729D01*
X017000Y010760D02*
X017000Y010831D01*
X017000Y010831D01*
X017000Y010760D01*
X017000Y010828D02*
X017000Y010828D01*
X015247Y008956D02*
X014753Y008956D01*
X014869Y008858D02*
X015131Y008858D01*
X015058Y008759D02*
X014942Y008759D01*
X014983Y008661D02*
X015017Y008661D01*
X015000Y008619D02*
X015000Y008549D01*
X015000Y008549D01*
X015000Y008619D01*
X015000Y008562D02*
X015000Y008562D01*
X013131Y008858D02*
X012869Y008858D01*
X012942Y008759D02*
X013058Y008759D01*
X013017Y008661D02*
X012983Y008661D01*
X013000Y008619D02*
X013000Y008549D01*
X013000Y008549D01*
X013000Y008619D01*
X013000Y008562D02*
X013000Y008562D01*
X013000Y007831D02*
X013000Y007760D01*
X013000Y007831D01*
X013000Y007831D01*
X013000Y007774D02*
X013000Y007774D01*
X012965Y007676D02*
X013035Y007676D01*
X013076Y007577D02*
X012924Y007577D01*
X012826Y007479D02*
X013174Y007479D01*
X012000Y008549D02*
X012000Y008549D01*
X012000Y008619D01*
X012000Y008549D01*
X012000Y008562D02*
X012000Y008562D01*
X011983Y008661D02*
X012017Y008661D01*
X012058Y008759D02*
X011942Y008759D01*
X011869Y008858D02*
X012131Y008858D01*
X012247Y008956D02*
X011753Y008956D01*
X011247Y008956D02*
X010753Y008956D01*
X010869Y008858D02*
X011131Y008858D01*
X011058Y008759D02*
X010942Y008759D01*
X010983Y008661D02*
X011017Y008661D01*
X011000Y008619D02*
X011000Y008549D01*
X011000Y008549D01*
X011000Y008619D01*
X011000Y008562D02*
X011000Y008562D01*
X011000Y007831D02*
X011000Y007760D01*
X011000Y007831D01*
X011000Y007831D01*
X011000Y007774D02*
X011000Y007774D01*
X010965Y007676D02*
X011035Y007676D01*
X011076Y007577D02*
X010924Y007577D01*
X010826Y007479D02*
X011174Y007479D01*
X011351Y007380D02*
X010649Y007380D01*
X010351Y007380D02*
X009541Y007380D01*
X009529Y007380D02*
X009471Y007380D01*
X009459Y007380D02*
X006147Y007380D01*
X006079Y007479D02*
X009208Y007479D01*
X009112Y007577D02*
X005948Y007577D01*
X005881Y007774D02*
X007307Y007774D01*
X007209Y007873D02*
X006051Y007873D01*
X006094Y008464D02*
X007166Y008464D01*
X007264Y008562D02*
X005984Y008562D01*
X006036Y008858D02*
X007857Y008858D01*
X007955Y008956D02*
X006129Y008956D01*
X006170Y009055D02*
X008054Y009055D01*
X008152Y009153D02*
X006190Y009153D01*
X006190Y009252D02*
X008251Y009252D01*
X008349Y009350D02*
X006159Y009350D01*
X006109Y009449D02*
X008448Y009449D01*
X008546Y009547D02*
X006011Y009547D01*
X005465Y010228D02*
X005624Y010386D01*
X005709Y010594D01*
X005709Y010818D01*
X005624Y011025D01*
X007090Y011025D01*
X007090Y011020D02*
X007330Y010780D01*
X007470Y010780D01*
X007470Y011160D01*
X007090Y011160D01*
X007090Y011020D01*
X007090Y011123D02*
X005525Y011123D01*
X005465Y011184D02*
X005258Y011269D01*
X004246Y011269D01*
X004039Y011184D01*
X003880Y011025D01*
X002090Y011025D01*
X002074Y011123D02*
X003979Y011123D01*
X003880Y011025D02*
X003795Y010818D01*
X003795Y010594D01*
X003880Y010386D01*
X004039Y010228D01*
X004246Y010142D01*
X005258Y010142D01*
X005465Y010228D01*
X005474Y010237D02*
X010236Y010237D01*
X010280Y010335D02*
X005573Y010335D01*
X005643Y010434D02*
X009222Y010434D01*
X009120Y010532D02*
X005684Y010532D01*
X005709Y010631D02*
X009054Y010631D01*
X009013Y010729D02*
X005709Y010729D01*
X005705Y010828D02*
X007282Y010828D01*
X007184Y010926D02*
X005664Y010926D01*
X005624Y011025D02*
X005465Y011184D01*
X005372Y011222D02*
X007090Y011222D01*
X007090Y011220D02*
X007470Y011220D01*
X007470Y011600D01*
X007330Y011600D01*
X007090Y011360D01*
X007090Y011220D01*
X007090Y011320D02*
X002042Y011320D01*
X002058Y011222D02*
X004132Y011222D01*
X003840Y010926D02*
X002106Y010926D01*
X002122Y010828D02*
X003799Y010828D01*
X003795Y010729D02*
X002139Y010729D01*
X002155Y010631D02*
X003795Y010631D01*
X003820Y010532D02*
X002171Y010532D01*
X002187Y010434D02*
X003861Y010434D01*
X003931Y010335D02*
X002203Y010335D01*
X002219Y010237D02*
X004030Y010237D01*
X003565Y011717D02*
X003341Y011717D01*
X003133Y011803D01*
X002975Y011961D01*
X002889Y012168D01*
X002889Y013180D01*
X002975Y013387D01*
X003133Y013546D01*
X003341Y013632D01*
X003565Y013632D01*
X003772Y013546D01*
X003931Y013387D01*
X004016Y013180D01*
X004016Y012168D01*
X003931Y011961D01*
X003772Y011803D01*
X003565Y011717D01*
X003782Y011813D02*
X005603Y011813D01*
X005505Y011911D02*
X003881Y011911D01*
X003951Y012010D02*
X005435Y012010D01*
X005394Y012108D02*
X003992Y012108D01*
X004016Y012207D02*
X005369Y012207D01*
X005369Y012305D02*
X004016Y012305D01*
X004016Y012404D02*
X005369Y012404D01*
X005369Y012502D02*
X004016Y012502D01*
X004016Y012601D02*
X005369Y012601D01*
X005369Y012699D02*
X004016Y012699D01*
X004016Y012798D02*
X005369Y012798D01*
X005369Y012896D02*
X004016Y012896D01*
X004016Y012995D02*
X005369Y012995D01*
X005369Y013093D02*
X004016Y013093D01*
X004012Y013192D02*
X005374Y013192D01*
X005415Y013290D02*
X003971Y013290D01*
X003929Y013389D02*
X005457Y013389D01*
X005555Y013487D02*
X003830Y013487D01*
X003675Y013586D02*
X005711Y013586D01*
X005694Y013684D02*
X002014Y013684D01*
X002009Y013586D02*
X003230Y013586D01*
X003075Y013487D02*
X002003Y013487D01*
X001998Y013389D02*
X002977Y013389D01*
X002935Y013290D02*
X001993Y013290D01*
X001987Y013192D02*
X002894Y013192D01*
X002889Y013093D02*
X001982Y013093D01*
X001977Y012995D02*
X002889Y012995D01*
X002889Y012896D02*
X001971Y012896D01*
X001966Y012798D02*
X002889Y012798D01*
X002889Y012699D02*
X001961Y012699D01*
X001965Y012601D02*
X002889Y012601D01*
X002889Y012502D02*
X001970Y012502D01*
X001976Y012404D02*
X002889Y012404D01*
X002889Y012305D02*
X001981Y012305D01*
X001986Y012207D02*
X002889Y012207D01*
X002914Y012108D02*
X001992Y012108D01*
X001997Y012010D02*
X002955Y012010D01*
X003025Y011911D02*
X002002Y011911D01*
X002008Y011813D02*
X003123Y011813D01*
X002013Y011714D02*
X009039Y011714D01*
X009000Y011616D02*
X002018Y011616D01*
X002024Y011517D02*
X007248Y011517D01*
X007149Y011419D02*
X002029Y011419D01*
X002236Y010138D02*
X010137Y010138D01*
X010039Y010040D02*
X002259Y010040D01*
X002286Y009941D02*
X009940Y009941D01*
X009778Y010434D02*
X010222Y010434D01*
X010120Y010532D02*
X009880Y010532D01*
X009946Y010631D02*
X010054Y010631D01*
X010013Y010729D02*
X009987Y010729D01*
X010000Y010760D02*
X010000Y010831D01*
X010000Y010831D01*
X010000Y010760D01*
X010000Y010828D02*
X010000Y010828D01*
X010880Y010532D02*
X011120Y010532D01*
X011054Y010631D02*
X010946Y010631D01*
X010987Y010729D02*
X011013Y010729D01*
X011000Y010760D02*
X011000Y010831D01*
X011000Y010831D01*
X011000Y010760D01*
X011000Y010828D02*
X011000Y010828D01*
X010247Y008956D02*
X009701Y008956D01*
X009841Y008858D02*
X010131Y008858D01*
X010058Y008759D02*
X009917Y008759D01*
X009959Y008661D02*
X010017Y008661D01*
X010000Y008562D02*
X009987Y008562D01*
X010000Y008549D02*
X010000Y008549D01*
X009529Y008858D02*
X009471Y008858D01*
X009471Y008956D02*
X009529Y008956D01*
X009000Y009690D02*
X007500Y008190D01*
X005500Y008190D01*
X007530Y010780D02*
X007670Y010780D01*
X007910Y011020D01*
X007910Y011160D01*
X007530Y011160D01*
X007530Y011220D01*
X007470Y011220D01*
X007470Y011160D01*
X007530Y011160D01*
X007530Y010780D01*
X007530Y010828D02*
X007470Y010828D01*
X007470Y010926D02*
X007530Y010926D01*
X007530Y011025D02*
X007470Y011025D01*
X007470Y011123D02*
X007530Y011123D01*
X007530Y011220D02*
X007910Y011220D01*
X007910Y011360D01*
X007670Y011600D01*
X007530Y011600D01*
X007530Y011220D01*
X007530Y011222D02*
X007470Y011222D01*
X007470Y011320D02*
X007530Y011320D01*
X007530Y011419D02*
X007470Y011419D01*
X007470Y011517D02*
X007530Y011517D01*
X007752Y011517D02*
X008978Y011517D01*
X008937Y011419D02*
X007851Y011419D01*
X007910Y011320D02*
X008897Y011320D01*
X008893Y011222D02*
X007910Y011222D01*
X007910Y011123D02*
X008893Y011123D01*
X008911Y011025D02*
X007910Y011025D01*
X007816Y010926D02*
X008952Y010926D01*
X009000Y010828D02*
X007718Y010828D01*
X007902Y012195D02*
X007720Y012270D01*
X007580Y012410D01*
X007505Y012591D01*
X007505Y012788D01*
X007580Y012970D01*
X007720Y013110D01*
X007902Y013185D01*
X008098Y013185D01*
X008280Y013110D01*
X008420Y012970D01*
X008495Y012788D01*
X008495Y012591D01*
X008420Y012410D01*
X008280Y012270D01*
X008098Y012195D01*
X007902Y012195D01*
X007872Y012207D02*
X006497Y012207D01*
X006497Y012305D02*
X007684Y012305D01*
X007586Y012404D02*
X006497Y012404D01*
X006497Y012502D02*
X007542Y012502D01*
X007505Y012601D02*
X006497Y012601D01*
X006497Y012699D02*
X007505Y012699D01*
X007509Y012798D02*
X006518Y012798D01*
X006617Y012896D02*
X007550Y012896D01*
X007605Y012995D02*
X006715Y012995D01*
X006814Y013093D02*
X007703Y013093D01*
X007699Y013290D02*
X007011Y013290D01*
X006912Y013192D02*
X026013Y013192D01*
X026007Y013290D02*
X008301Y013290D01*
X008399Y013389D02*
X026002Y013389D01*
X025997Y013487D02*
X008452Y013487D01*
X008493Y013586D02*
X025991Y013586D01*
X025986Y013684D02*
X022269Y013684D01*
X022323Y013707D02*
X022483Y013867D01*
X022570Y014077D01*
X022570Y014303D01*
X022483Y014513D01*
X022323Y014673D01*
X022113Y014760D01*
X021887Y014760D01*
X021677Y014673D01*
X021517Y014513D01*
X021430Y014303D01*
X021430Y014077D01*
X021517Y013867D01*
X021677Y013707D01*
X021887Y013620D01*
X022113Y013620D01*
X022323Y013707D01*
X022399Y013783D02*
X025981Y013783D01*
X025975Y013881D02*
X022489Y013881D01*
X022530Y013980D02*
X025970Y013980D01*
X025955Y014078D02*
X022570Y014078D01*
X022570Y014177D02*
X025939Y014177D01*
X025923Y014275D02*
X022570Y014275D01*
X022541Y014374D02*
X025907Y014374D01*
X025891Y014472D02*
X022500Y014472D01*
X022425Y014571D02*
X025874Y014571D01*
X025858Y014669D02*
X022327Y014669D01*
X021673Y014669D02*
X020770Y014669D01*
X020788Y014660D02*
X020711Y014700D01*
X020629Y014726D01*
X020550Y014739D01*
X020550Y014240D01*
X020450Y014240D01*
X020450Y014739D01*
X020371Y014726D01*
X020289Y014700D01*
X020212Y014660D01*
X020142Y014609D01*
X020080Y014548D01*
X020030Y014478D01*
X019990Y014401D01*
X019964Y014319D01*
X019951Y014240D01*
X020450Y014240D01*
X020450Y014140D01*
X019951Y014140D01*
X019964Y014061D01*
X019990Y013979D01*
X020030Y013902D01*
X020080Y013832D01*
X020142Y013770D01*
X020212Y013720D01*
X020289Y013680D01*
X020371Y013653D01*
X020450Y013641D01*
X020450Y014140D01*
X020550Y014140D01*
X020550Y014240D01*
X021049Y014240D01*
X021036Y014319D01*
X021010Y014401D01*
X020970Y014478D01*
X020920Y014548D01*
X020858Y014609D01*
X020788Y014660D01*
X020897Y014571D02*
X021575Y014571D01*
X021500Y014472D02*
X020973Y014472D01*
X021019Y014374D02*
X021459Y014374D01*
X021430Y014275D02*
X021043Y014275D01*
X021049Y014140D02*
X020550Y014140D01*
X020550Y013641D01*
X020629Y013653D01*
X020711Y013680D01*
X020788Y013720D01*
X020858Y013770D01*
X020920Y013832D01*
X020970Y013902D01*
X021010Y013979D01*
X021036Y014061D01*
X021049Y014140D01*
X021039Y014078D02*
X021430Y014078D01*
X021430Y014177D02*
X020550Y014177D01*
X020550Y014275D02*
X020450Y014275D01*
X020450Y014177D02*
X008790Y014177D01*
X008790Y014275D02*
X019957Y014275D01*
X019981Y014374D02*
X008790Y014374D01*
X008790Y014472D02*
X020027Y014472D01*
X020103Y014571D02*
X008790Y014571D01*
X008790Y014669D02*
X020230Y014669D01*
X020450Y014669D02*
X020550Y014669D01*
X020550Y014571D02*
X020450Y014571D01*
X020450Y014472D02*
X020550Y014472D01*
X020550Y014374D02*
X020450Y014374D01*
X020450Y014078D02*
X020550Y014078D01*
X020550Y013980D02*
X020450Y013980D01*
X020450Y013881D02*
X020550Y013881D01*
X020550Y013783D02*
X020450Y013783D01*
X020450Y013684D02*
X020550Y013684D01*
X020719Y013684D02*
X021731Y013684D01*
X021601Y013783D02*
X020871Y013783D01*
X020956Y013881D02*
X021511Y013881D01*
X021470Y013980D02*
X021010Y013980D01*
X020281Y013684D02*
X008495Y013684D01*
X008503Y013783D02*
X020129Y013783D01*
X020044Y013881D02*
X008602Y013881D01*
X008700Y013980D02*
X019990Y013980D01*
X019961Y014078D02*
X008768Y014078D01*
X008175Y014275D02*
X005726Y014275D01*
X005824Y014177D02*
X007882Y014177D01*
X007689Y014078D02*
X005923Y014078D01*
X006024Y013977D02*
X006153Y013848D01*
X006153Y013587D01*
X006252Y013546D01*
X006349Y013449D01*
X006754Y013854D01*
X006836Y013936D01*
X006942Y013980D01*
X007590Y013980D01*
X008210Y014374D02*
X005627Y014374D01*
X005529Y014472D02*
X008210Y014472D01*
X008210Y014571D02*
X005430Y014571D01*
X005332Y014669D02*
X008210Y014669D01*
X008210Y014768D02*
X005233Y014768D01*
X005135Y014866D02*
X008210Y014866D01*
X008210Y014965D02*
X003971Y014965D01*
X003890Y015063D02*
X008210Y015063D01*
X008210Y015162D02*
X006136Y015162D01*
X006107Y015150D02*
X006306Y015232D01*
X006458Y015384D01*
X006464Y015400D01*
X006558Y015400D01*
X006664Y015444D01*
X006746Y015526D01*
X007546Y015526D01*
X007574Y015538D01*
X007795Y015538D01*
X007894Y015637D01*
X007894Y015995D01*
X007886Y016003D01*
X007894Y016011D01*
X007894Y016369D01*
X007886Y016377D01*
X007894Y016385D01*
X007894Y016743D01*
X007795Y016842D01*
X007720Y016842D01*
X007720Y018164D01*
X007823Y018207D01*
X007983Y018367D01*
X008070Y018577D01*
X008070Y018803D01*
X007983Y019013D01*
X007823Y019173D01*
X007613Y019260D01*
X007387Y019260D01*
X007177Y019173D01*
X007017Y019013D01*
X006930Y018803D01*
X006930Y018577D01*
X007017Y018367D01*
X007177Y018207D01*
X007280Y018164D01*
X007280Y016842D01*
X007182Y016842D01*
X007082Y016743D01*
X007082Y016518D01*
X006664Y016936D01*
X006558Y016980D01*
X006464Y016980D01*
X006458Y016996D01*
X006306Y017148D01*
X006107Y017230D01*
X005893Y017230D01*
X005694Y017148D01*
X005542Y016996D01*
X005460Y016797D01*
X005460Y016583D01*
X005542Y016384D01*
X005694Y016232D01*
X005796Y016190D01*
X005694Y016148D01*
X005573Y016027D01*
X005290Y016310D01*
X005290Y017070D01*
X006164Y017944D01*
X006246Y018026D01*
X006290Y018132D01*
X006290Y019070D01*
X006620Y019400D01*
X007558Y019400D01*
X007664Y019444D01*
X008416Y020196D01*
X008416Y020196D01*
X008498Y020278D01*
X008542Y020384D01*
X008542Y020488D01*
X008824Y020488D01*
X008924Y020588D01*
X008924Y021204D01*
X010250Y022530D01*
X012346Y022530D01*
X012346Y022434D01*
X012445Y022335D01*
X014476Y022335D01*
X014576Y022434D01*
X014576Y022530D01*
X015818Y022530D01*
X015818Y022395D01*
X015918Y022296D01*
X016334Y022296D01*
X016411Y022372D01*
X016589Y022372D01*
X016666Y022296D01*
X017082Y022296D01*
X017182Y022395D01*
X017182Y022930D01*
X017082Y023029D01*
X016666Y023029D01*
X016589Y022952D01*
X016411Y022952D01*
X016334Y023029D01*
X016169Y023029D01*
X016133Y023066D01*
X016026Y023110D01*
X014576Y023110D01*
X014576Y023205D01*
X014476Y023305D01*
X012445Y023305D01*
X012346Y023205D01*
X012346Y023110D01*
X010072Y023110D01*
X009966Y023066D01*
X008791Y021891D01*
X007680Y021891D01*
X007580Y021792D01*
X007580Y020588D01*
X007680Y020488D01*
X007888Y020488D01*
X007380Y019980D01*
X006442Y019980D01*
X006336Y019936D01*
X006254Y019854D01*
X005754Y019354D01*
X005710Y019248D01*
X005710Y018310D01*
X004836Y017436D01*
X004836Y017436D01*
X004754Y017354D01*
X004710Y017248D01*
X004710Y016132D01*
X004754Y016026D01*
X004836Y015944D01*
X005254Y015526D01*
X005336Y015444D01*
X005442Y015400D01*
X005536Y015400D01*
X005542Y015384D01*
X005694Y015232D01*
X005893Y015150D01*
X006107Y015150D01*
X005864Y015162D02*
X003771Y015162D01*
X003834Y015260D02*
X005666Y015260D01*
X005567Y015359D02*
X003933Y015359D01*
X003988Y015457D02*
X005322Y015457D01*
X005254Y015526D02*
X005254Y015526D01*
X005224Y015556D02*
X004029Y015556D01*
X004040Y015654D02*
X005125Y015654D01*
X005027Y015753D02*
X004040Y015753D01*
X004018Y015851D02*
X004928Y015851D01*
X004836Y015944D02*
X004836Y015944D01*
X004830Y015950D02*
X003977Y015950D01*
X003905Y016048D02*
X004745Y016048D01*
X004710Y016147D02*
X003807Y016147D01*
X003720Y016245D02*
X004710Y016245D01*
X004710Y016344D02*
X003720Y016344D01*
X003720Y016442D02*
X004710Y016442D01*
X004710Y016541D02*
X003720Y016541D01*
X003761Y016639D02*
X004710Y016639D01*
X004710Y016738D02*
X003859Y016738D01*
X003958Y016836D02*
X004710Y016836D01*
X004710Y016935D02*
X004056Y016935D01*
X004155Y017033D02*
X004710Y017033D01*
X004710Y017132D02*
X004253Y017132D01*
X004352Y017230D02*
X004710Y017230D01*
X004744Y017329D02*
X004450Y017329D01*
X004549Y017427D02*
X004827Y017427D01*
X004926Y017526D02*
X004647Y017526D01*
X004720Y017624D02*
X005024Y017624D01*
X005123Y017723D02*
X004720Y017723D01*
X004720Y017821D02*
X005221Y017821D01*
X005320Y017920D02*
X004720Y017920D01*
X004720Y018018D02*
X005418Y018018D01*
X005517Y018117D02*
X004720Y018117D01*
X004832Y018215D02*
X005615Y018215D01*
X005710Y018314D02*
X004930Y018314D01*
X005002Y018412D02*
X005710Y018412D01*
X005710Y018511D02*
X005043Y018511D01*
X005070Y018609D02*
X005710Y018609D01*
X005710Y018708D02*
X005070Y018708D01*
X005069Y018806D02*
X005710Y018806D01*
X005710Y018905D02*
X005028Y018905D01*
X004987Y019003D02*
X005710Y019003D01*
X005710Y019102D02*
X004894Y019102D01*
X004757Y019200D02*
X005710Y019200D01*
X005731Y019299D02*
X003956Y019299D01*
X004023Y019397D02*
X005797Y019397D01*
X005896Y019496D02*
X004089Y019496D01*
X004156Y019594D02*
X005994Y019594D01*
X006093Y019693D02*
X004223Y019693D01*
X004290Y019791D02*
X006191Y019791D01*
X006290Y019890D02*
X004357Y019890D01*
X004426Y019988D02*
X007388Y019988D01*
X007487Y020087D02*
X004509Y020087D01*
X004593Y020185D02*
X007585Y020185D01*
X007684Y020284D02*
X004677Y020284D01*
X004760Y020382D02*
X007782Y020382D01*
X007881Y020481D02*
X004844Y020481D01*
X004928Y020579D02*
X007589Y020579D01*
X007580Y020678D02*
X005011Y020678D01*
X005095Y020776D02*
X007580Y020776D01*
X007580Y020875D02*
X005179Y020875D01*
X005263Y020973D02*
X007580Y020973D01*
X007580Y021072D02*
X005367Y021072D01*
X005471Y021170D02*
X007580Y021170D01*
X007580Y021269D02*
X005575Y021269D01*
X005679Y021367D02*
X007580Y021367D01*
X007580Y021466D02*
X005783Y021466D01*
X005887Y021564D02*
X007580Y021564D01*
X007580Y021663D02*
X005991Y021663D01*
X006095Y021761D02*
X007580Y021761D01*
X007648Y021860D02*
X006199Y021860D01*
X006206Y021866D02*
X006206Y021866D01*
X006327Y021958D02*
X008858Y021958D01*
X008957Y022057D02*
X006456Y022057D01*
X006586Y022155D02*
X009055Y022155D01*
X009154Y022254D02*
X006715Y022254D01*
X006845Y022352D02*
X009252Y022352D01*
X009351Y022451D02*
X006975Y022451D01*
X007104Y022549D02*
X009449Y022549D01*
X009548Y022648D02*
X007234Y022648D01*
X007395Y022746D02*
X009646Y022746D01*
X009745Y022845D02*
X007559Y022845D01*
X007722Y022943D02*
X009843Y022943D01*
X009942Y023042D02*
X007886Y023042D01*
X008050Y023140D02*
X012346Y023140D01*
X012380Y023239D02*
X008214Y023239D01*
X008382Y023337D02*
X019618Y023337D01*
X019786Y023239D02*
X014542Y023239D01*
X014576Y023140D02*
X019950Y023140D01*
X020114Y023042D02*
X016156Y023042D01*
X015818Y022451D02*
X014576Y022451D01*
X014494Y022352D02*
X015861Y022352D01*
X015918Y022084D02*
X015818Y021985D01*
X015818Y021850D01*
X014576Y021850D01*
X014576Y021945D01*
X014476Y022045D01*
X012445Y022045D01*
X012346Y021945D01*
X012346Y021175D01*
X012445Y021075D01*
X014476Y021075D01*
X014576Y021175D01*
X014576Y021270D01*
X015679Y021270D01*
X015679Y020529D01*
X014918Y020529D01*
X014818Y020430D01*
X014818Y019895D01*
X014918Y019796D01*
X015584Y019796D01*
X015584Y019564D01*
X015519Y019564D01*
X015519Y019236D01*
X015481Y019236D01*
X015481Y019199D01*
X015212Y019199D01*
X015145Y019199D01*
X015145Y019236D01*
X015481Y019236D01*
X015481Y019564D01*
X015342Y019564D01*
X015313Y019556D01*
X015284Y019564D01*
X015145Y019564D01*
X015145Y019236D01*
X015107Y019236D01*
X015107Y019199D01*
X014838Y019199D01*
X014838Y019001D01*
X014848Y018963D01*
X014868Y018929D01*
X014896Y018901D01*
X014930Y018881D01*
X014968Y018871D01*
X015107Y018871D01*
X015107Y019199D01*
X015145Y019199D01*
X015145Y018871D01*
X015284Y018871D01*
X015313Y018879D01*
X015342Y018871D01*
X015481Y018871D01*
X015481Y019199D01*
X015519Y019199D01*
X015519Y018871D01*
X015646Y018871D01*
X015666Y018851D01*
X016082Y018851D01*
X016182Y018950D01*
X016182Y019485D01*
X016164Y019503D01*
X016164Y019877D01*
X016182Y019895D01*
X016182Y020060D01*
X016214Y020093D01*
X016259Y020199D01*
X016259Y020521D01*
X016695Y020085D01*
X016580Y019970D01*
X016505Y019788D01*
X016505Y019591D01*
X016580Y019410D01*
X016720Y019270D01*
X016902Y019195D01*
X017098Y019195D01*
X017280Y019270D01*
X017420Y019410D01*
X017495Y019591D01*
X017495Y019788D01*
X017420Y019970D01*
X017290Y020100D01*
X017290Y020248D01*
X017246Y020354D01*
X017164Y020436D01*
X016790Y020810D01*
X016790Y021351D01*
X016929Y021351D01*
X017710Y020570D01*
X017710Y020100D01*
X017580Y019970D01*
X017505Y019788D01*
X017505Y019591D01*
X017580Y019410D01*
X017710Y019280D01*
X017710Y018187D01*
X017677Y018173D01*
X017517Y018013D01*
X017430Y017803D01*
X017430Y017577D01*
X017517Y017367D01*
X017677Y017207D01*
X017887Y017120D01*
X018113Y017120D01*
X018323Y017207D01*
X018483Y017367D01*
X018570Y017577D01*
X018570Y017803D01*
X018483Y018013D01*
X018323Y018173D01*
X018290Y018187D01*
X018290Y019280D01*
X018420Y019410D01*
X018495Y019591D01*
X018495Y019788D01*
X018420Y019970D01*
X018290Y020100D01*
X018290Y020748D01*
X018246Y020854D01*
X018164Y020936D01*
X017182Y021918D01*
X017182Y021985D01*
X017082Y022084D01*
X015918Y022084D01*
X015890Y022057D02*
X009777Y022057D01*
X009679Y021958D02*
X012359Y021958D01*
X012346Y021860D02*
X011352Y021860D01*
X011320Y021891D02*
X010176Y021891D01*
X010076Y021792D01*
X010076Y020588D01*
X010176Y020488D01*
X010458Y020488D01*
X010458Y019038D01*
X010323Y019173D01*
X010113Y019260D01*
X009887Y019260D01*
X009677Y019173D01*
X009517Y019013D01*
X009430Y018803D01*
X009430Y018577D01*
X009517Y018367D01*
X009677Y018207D01*
X009887Y018120D01*
X010113Y018120D01*
X010323Y018207D01*
X010483Y018367D01*
X010497Y018400D01*
X010880Y018400D01*
X011210Y018070D01*
X011210Y017132D01*
X007720Y017132D01*
X007720Y017230D02*
X011210Y017230D01*
X011210Y017132D02*
X011254Y017026D01*
X011336Y016944D01*
X011584Y016696D01*
X011690Y016652D01*
X012299Y016652D01*
X012299Y016370D01*
X012398Y016270D01*
X013602Y016270D01*
X013701Y016370D01*
X013701Y017514D01*
X013602Y017614D01*
X012398Y017614D01*
X012299Y017514D01*
X012299Y017232D01*
X011868Y017232D01*
X011790Y017310D01*
X011790Y018248D01*
X011746Y018354D01*
X011246Y018854D01*
X011246Y018854D01*
X011038Y019062D01*
X011038Y020488D01*
X011320Y020488D01*
X011420Y020588D01*
X011420Y021792D01*
X011320Y021891D01*
X011420Y021761D02*
X012346Y021761D01*
X012346Y021663D02*
X011420Y021663D01*
X011420Y021564D02*
X012346Y021564D01*
X012346Y021466D02*
X011420Y021466D01*
X011420Y021367D02*
X012346Y021367D01*
X012346Y021269D02*
X011420Y021269D01*
X011420Y021170D02*
X012350Y021170D01*
X011420Y021072D02*
X015679Y021072D01*
X015679Y021170D02*
X014571Y021170D01*
X014576Y021269D02*
X015679Y021269D01*
X015679Y020973D02*
X011420Y020973D01*
X011420Y020875D02*
X015679Y020875D01*
X015679Y020776D02*
X011420Y020776D01*
X011420Y020678D02*
X015679Y020678D01*
X015679Y020579D02*
X011411Y020579D01*
X011038Y020481D02*
X014870Y020481D01*
X014818Y020382D02*
X011038Y020382D01*
X011038Y020284D02*
X014818Y020284D01*
X014818Y020185D02*
X011038Y020185D01*
X011038Y020087D02*
X012438Y020087D01*
X012449Y020090D02*
X012411Y020080D01*
X012376Y020060D01*
X012348Y020032D01*
X012329Y019998D01*
X012319Y019960D01*
X012319Y019488D01*
X012950Y019488D01*
X012950Y020090D01*
X012449Y020090D01*
X012326Y019988D02*
X011038Y019988D01*
X011038Y019890D02*
X012319Y019890D01*
X012319Y019791D02*
X011038Y019791D01*
X011038Y019693D02*
X012319Y019693D01*
X012319Y019594D02*
X011038Y019594D01*
X011038Y019496D02*
X012319Y019496D01*
X012319Y019388D02*
X012319Y018916D01*
X012329Y018878D01*
X012348Y018844D01*
X012376Y018816D01*
X012411Y018796D01*
X012449Y018786D01*
X012950Y018786D01*
X012950Y019388D01*
X012319Y019388D01*
X012319Y019299D02*
X011038Y019299D01*
X011038Y019397D02*
X012950Y019397D01*
X012950Y019388D02*
X012950Y019488D01*
X013050Y019488D01*
X013050Y020090D01*
X013551Y020090D01*
X013589Y020080D01*
X013624Y020060D01*
X013652Y020032D01*
X013671Y019998D01*
X013681Y019960D01*
X013681Y019488D01*
X013050Y019488D01*
X013050Y019388D01*
X013681Y019388D01*
X013681Y018916D01*
X013671Y018878D01*
X013652Y018844D01*
X013624Y018816D01*
X013589Y018796D01*
X013551Y018786D01*
X013050Y018786D01*
X013050Y019388D01*
X012950Y019388D01*
X012950Y019299D02*
X013050Y019299D01*
X013050Y019397D02*
X014838Y019397D01*
X014838Y019434D02*
X014838Y019236D01*
X015107Y019236D01*
X015107Y019564D01*
X014968Y019564D01*
X014930Y019554D01*
X014896Y019534D01*
X014868Y019506D01*
X014848Y019472D01*
X014838Y019434D01*
X014862Y019496D02*
X013681Y019496D01*
X013681Y019594D02*
X015584Y019594D01*
X015584Y019693D02*
X013681Y019693D01*
X013681Y019791D02*
X015584Y019791D01*
X015519Y019496D02*
X015481Y019496D01*
X015481Y019397D02*
X015519Y019397D01*
X015519Y019299D02*
X015481Y019299D01*
X015481Y019200D02*
X015145Y019200D01*
X015107Y019200D02*
X013681Y019200D01*
X013681Y019102D02*
X014838Y019102D01*
X014838Y019003D02*
X013681Y019003D01*
X013678Y018905D02*
X014892Y018905D01*
X015107Y018905D02*
X015145Y018905D01*
X015145Y019003D02*
X015107Y019003D01*
X015107Y019102D02*
X015145Y019102D01*
X015145Y019299D02*
X015107Y019299D01*
X015107Y019397D02*
X015145Y019397D01*
X015145Y019496D02*
X015107Y019496D01*
X014838Y019299D02*
X013681Y019299D01*
X013607Y018806D02*
X017710Y018806D01*
X017710Y018708D02*
X011392Y018708D01*
X011294Y018806D02*
X012393Y018806D01*
X012322Y018905D02*
X011195Y018905D01*
X011097Y019003D02*
X012319Y019003D01*
X012319Y019102D02*
X011038Y019102D01*
X011038Y019200D02*
X012319Y019200D01*
X012950Y019200D02*
X013050Y019200D01*
X013050Y019102D02*
X012950Y019102D01*
X012950Y019003D02*
X013050Y019003D01*
X013050Y018905D02*
X012950Y018905D01*
X012950Y018806D02*
X013050Y018806D01*
X013050Y019496D02*
X012950Y019496D01*
X012950Y019594D02*
X013050Y019594D01*
X013050Y019693D02*
X012950Y019693D01*
X012950Y019791D02*
X013050Y019791D01*
X013050Y019890D02*
X012950Y019890D01*
X012950Y019988D02*
X013050Y019988D01*
X013050Y020087D02*
X012950Y020087D01*
X013562Y020087D02*
X014818Y020087D01*
X014818Y019988D02*
X013674Y019988D01*
X013681Y019890D02*
X014823Y019890D01*
X015481Y019102D02*
X015519Y019102D01*
X015519Y019003D02*
X015481Y019003D01*
X015481Y018905D02*
X015519Y018905D01*
X016137Y018905D02*
X017710Y018905D01*
X017710Y019003D02*
X016182Y019003D01*
X016182Y019102D02*
X017710Y019102D01*
X017710Y019200D02*
X017112Y019200D01*
X017309Y019299D02*
X017691Y019299D01*
X017592Y019397D02*
X017408Y019397D01*
X017455Y019496D02*
X017545Y019496D01*
X017505Y019594D02*
X017495Y019594D01*
X017495Y019693D02*
X017505Y019693D01*
X017494Y019791D02*
X017506Y019791D01*
X017547Y019890D02*
X017453Y019890D01*
X017401Y019988D02*
X017599Y019988D01*
X017697Y020087D02*
X017303Y020087D01*
X017290Y020185D02*
X017710Y020185D01*
X017710Y020284D02*
X017275Y020284D01*
X017218Y020382D02*
X017710Y020382D01*
X017710Y020481D02*
X017119Y020481D01*
X017021Y020579D02*
X017700Y020579D01*
X017602Y020678D02*
X016922Y020678D01*
X016824Y020776D02*
X017503Y020776D01*
X017405Y020875D02*
X016790Y020875D01*
X016790Y020973D02*
X017306Y020973D01*
X017208Y021072D02*
X016790Y021072D01*
X016790Y021170D02*
X017109Y021170D01*
X017011Y021269D02*
X016790Y021269D01*
X017339Y021761D02*
X021905Y021761D01*
X022009Y021663D02*
X017437Y021663D01*
X017536Y021564D02*
X022113Y021564D01*
X022217Y021466D02*
X017634Y021466D01*
X017733Y021367D02*
X022321Y021367D01*
X022425Y021269D02*
X017831Y021269D01*
X017930Y021170D02*
X022529Y021170D01*
X022633Y021072D02*
X018028Y021072D01*
X018127Y020973D02*
X022737Y020973D01*
X022821Y020875D02*
X018225Y020875D01*
X018278Y020776D02*
X022905Y020776D01*
X022989Y020678D02*
X018290Y020678D01*
X018290Y020579D02*
X023072Y020579D01*
X023156Y020481D02*
X018290Y020481D01*
X018290Y020382D02*
X023240Y020382D01*
X023323Y020284D02*
X018290Y020284D01*
X018290Y020185D02*
X023407Y020185D01*
X023491Y020087D02*
X018303Y020087D01*
X018401Y019988D02*
X023574Y019988D01*
X023643Y019890D02*
X018453Y019890D01*
X018494Y019791D02*
X023710Y019791D01*
X023777Y019693D02*
X018495Y019693D01*
X018495Y019594D02*
X023844Y019594D01*
X023910Y019496D02*
X018455Y019496D01*
X018408Y019397D02*
X023977Y019397D01*
X024044Y019299D02*
X018309Y019299D01*
X018290Y019200D02*
X024111Y019200D01*
X024178Y019102D02*
X018290Y019102D01*
X018290Y019003D02*
X024244Y019003D01*
X024311Y018905D02*
X018290Y018905D01*
X018290Y018806D02*
X024365Y018806D01*
X024417Y018708D02*
X018290Y018708D01*
X018290Y018609D02*
X024469Y018609D01*
X024521Y018511D02*
X018290Y018511D01*
X018290Y018412D02*
X024573Y018412D01*
X024626Y018314D02*
X018290Y018314D01*
X018290Y018215D02*
X024678Y018215D01*
X024730Y018117D02*
X018379Y018117D01*
X018478Y018018D02*
X024782Y018018D01*
X024835Y017920D02*
X018522Y017920D01*
X018562Y017821D02*
X024887Y017821D01*
X024936Y017723D02*
X018570Y017723D01*
X018570Y017624D02*
X024975Y017624D01*
X025015Y017526D02*
X018549Y017526D01*
X018508Y017427D02*
X025054Y017427D01*
X025093Y017329D02*
X018445Y017329D01*
X018347Y017230D02*
X025132Y017230D01*
X025172Y017132D02*
X018142Y017132D01*
X017858Y017132D02*
X013701Y017132D01*
X013701Y017230D02*
X014697Y017230D01*
X014712Y017220D02*
X014789Y017180D01*
X014871Y017153D01*
X014950Y017141D01*
X014950Y017640D01*
X014451Y017640D01*
X014464Y017561D01*
X014490Y017479D01*
X014530Y017402D01*
X014580Y017332D01*
X014642Y017270D01*
X014712Y017220D01*
X014583Y017329D02*
X013701Y017329D01*
X013701Y017427D02*
X014516Y017427D01*
X014475Y017526D02*
X013690Y017526D01*
X013701Y017033D02*
X025211Y017033D01*
X025250Y016935D02*
X013701Y016935D01*
X013701Y016836D02*
X025289Y016836D01*
X025329Y016738D02*
X013701Y016738D01*
X013701Y016639D02*
X025368Y016639D01*
X025407Y016541D02*
X013701Y016541D01*
X013701Y016442D02*
X025435Y016442D01*
X025463Y016344D02*
X013676Y016344D01*
X012324Y016344D02*
X009756Y016344D01*
X009854Y016246D02*
X009290Y016810D01*
X009184Y016854D01*
X008454Y016854D01*
X008426Y016842D01*
X008205Y016842D01*
X008106Y016743D01*
X008106Y016385D01*
X008205Y016286D01*
X008426Y016286D01*
X008454Y016274D01*
X009006Y016274D01*
X009444Y015836D01*
X009430Y015803D01*
X009430Y015577D01*
X009517Y015367D01*
X009677Y015207D01*
X009887Y015120D01*
X010113Y015120D01*
X010323Y015207D01*
X010483Y015367D01*
X010570Y015577D01*
X010570Y015803D01*
X010483Y016013D01*
X010323Y016173D01*
X010113Y016260D01*
X009887Y016260D01*
X009854Y016246D01*
X009658Y016442D02*
X012299Y016442D01*
X012299Y016541D02*
X009559Y016541D01*
X009461Y016639D02*
X012299Y016639D01*
X012299Y017329D02*
X011790Y017329D01*
X011790Y017427D02*
X012299Y017427D01*
X012310Y017526D02*
X011790Y017526D01*
X011790Y017624D02*
X014454Y017624D01*
X014451Y017740D02*
X014950Y017740D01*
X014950Y018239D01*
X014871Y018226D01*
X014789Y018200D01*
X014712Y018160D01*
X014642Y018109D01*
X014580Y018048D01*
X014530Y017978D01*
X014490Y017901D01*
X014464Y017819D01*
X014451Y017740D01*
X014464Y017821D02*
X011790Y017821D01*
X011790Y017723D02*
X014950Y017723D01*
X014950Y017740D02*
X014950Y017640D01*
X015050Y017640D01*
X015050Y017740D01*
X014950Y017740D01*
X014950Y017821D02*
X015050Y017821D01*
X015050Y017740D02*
X015050Y018239D01*
X015129Y018226D01*
X015211Y018200D01*
X015288Y018160D01*
X015358Y018109D01*
X015420Y018048D01*
X015470Y017978D01*
X015510Y017901D01*
X015536Y017819D01*
X015549Y017740D01*
X015050Y017740D01*
X015050Y017723D02*
X017430Y017723D01*
X017430Y017624D02*
X015546Y017624D01*
X015549Y017640D02*
X015050Y017640D01*
X015050Y017141D01*
X015129Y017153D01*
X015211Y017180D01*
X015288Y017220D01*
X015358Y017270D01*
X015420Y017332D01*
X015470Y017402D01*
X015510Y017479D01*
X015536Y017561D01*
X015549Y017640D01*
X015525Y017526D02*
X017451Y017526D01*
X017492Y017427D02*
X015484Y017427D01*
X015417Y017329D02*
X017555Y017329D01*
X017653Y017230D02*
X015303Y017230D01*
X015050Y017230D02*
X014950Y017230D01*
X014950Y017329D02*
X015050Y017329D01*
X015050Y017427D02*
X014950Y017427D01*
X014950Y017526D02*
X015050Y017526D01*
X015050Y017624D02*
X014950Y017624D01*
X014950Y017920D02*
X015050Y017920D01*
X015050Y018018D02*
X014950Y018018D01*
X014950Y018117D02*
X015050Y018117D01*
X015050Y018215D02*
X014950Y018215D01*
X014838Y018215D02*
X011790Y018215D01*
X011790Y018117D02*
X014652Y018117D01*
X014559Y018018D02*
X011790Y018018D01*
X011790Y017920D02*
X014500Y017920D01*
X015162Y018215D02*
X017710Y018215D01*
X017710Y018314D02*
X011763Y018314D01*
X011688Y018412D02*
X017710Y018412D01*
X017710Y018511D02*
X011589Y018511D01*
X011491Y018609D02*
X017710Y018609D01*
X017621Y018117D02*
X015348Y018117D01*
X015441Y018018D02*
X017522Y018018D01*
X017478Y017920D02*
X015500Y017920D01*
X015536Y017821D02*
X017438Y017821D01*
X016888Y019200D02*
X016182Y019200D01*
X016182Y019299D02*
X016691Y019299D01*
X016592Y019397D02*
X016182Y019397D01*
X016171Y019496D02*
X016545Y019496D01*
X016505Y019594D02*
X016164Y019594D01*
X016164Y019693D02*
X016505Y019693D01*
X016506Y019791D02*
X016164Y019791D01*
X016177Y019890D02*
X016547Y019890D01*
X016599Y019988D02*
X016182Y019988D01*
X016209Y020087D02*
X016693Y020087D01*
X016594Y020185D02*
X016253Y020185D01*
X016259Y020284D02*
X016496Y020284D01*
X016397Y020382D02*
X016259Y020382D01*
X016259Y020481D02*
X016299Y020481D01*
X015818Y021860D02*
X014576Y021860D01*
X014562Y021958D02*
X015818Y021958D01*
X016391Y022352D02*
X016609Y022352D01*
X017139Y022352D02*
X021155Y022352D01*
X021285Y022254D02*
X009974Y022254D01*
X009876Y022155D02*
X021414Y022155D01*
X021544Y022057D02*
X017110Y022057D01*
X017182Y021958D02*
X021673Y021958D01*
X021801Y021860D02*
X017240Y021860D01*
X017182Y022451D02*
X021025Y022451D01*
X020896Y022549D02*
X017182Y022549D01*
X017182Y022648D02*
X020766Y022648D01*
X020605Y022746D02*
X017182Y022746D01*
X017182Y022845D02*
X020441Y022845D01*
X020278Y022943D02*
X017168Y022943D01*
X018005Y024027D02*
X009995Y024027D01*
X009703Y023928D02*
X018297Y023928D01*
X018553Y023830D02*
X009447Y023830D01*
X009234Y023731D02*
X018766Y023731D01*
X018979Y023633D02*
X009021Y023633D01*
X008808Y023534D02*
X019192Y023534D01*
X019405Y023436D02*
X008595Y023436D01*
X010073Y022352D02*
X012428Y022352D01*
X012346Y022451D02*
X010171Y022451D01*
X010144Y021860D02*
X009580Y021860D01*
X009482Y021761D02*
X010076Y021761D01*
X010076Y021663D02*
X009383Y021663D01*
X009285Y021564D02*
X010076Y021564D01*
X010076Y021466D02*
X009186Y021466D01*
X009088Y021367D02*
X010076Y021367D01*
X010076Y021269D02*
X008989Y021269D01*
X008924Y021170D02*
X010076Y021170D01*
X010076Y021072D02*
X008924Y021072D01*
X008924Y020973D02*
X010076Y020973D01*
X010076Y020875D02*
X008924Y020875D01*
X008924Y020776D02*
X010076Y020776D01*
X010076Y020678D02*
X008924Y020678D01*
X008915Y020579D02*
X010085Y020579D01*
X010458Y020481D02*
X008542Y020481D01*
X008541Y020382D02*
X010458Y020382D01*
X010458Y020284D02*
X008500Y020284D01*
X008406Y020185D02*
X010458Y020185D01*
X010458Y020087D02*
X008307Y020087D01*
X008209Y019988D02*
X010458Y019988D01*
X010458Y019890D02*
X008110Y019890D01*
X008012Y019791D02*
X010458Y019791D01*
X010458Y019693D02*
X007913Y019693D01*
X007815Y019594D02*
X010458Y019594D01*
X010458Y019496D02*
X007716Y019496D01*
X007757Y019200D02*
X009743Y019200D01*
X009606Y019102D02*
X007894Y019102D01*
X007987Y019003D02*
X009513Y019003D01*
X009472Y018905D02*
X008028Y018905D01*
X008069Y018806D02*
X009431Y018806D01*
X009430Y018708D02*
X008070Y018708D01*
X008070Y018609D02*
X009430Y018609D01*
X009457Y018511D02*
X008043Y018511D01*
X008002Y018412D02*
X009498Y018412D01*
X009570Y018314D02*
X007930Y018314D01*
X007832Y018215D02*
X009668Y018215D01*
X010332Y018215D02*
X011064Y018215D01*
X011163Y018117D02*
X007720Y018117D01*
X007720Y018018D02*
X011210Y018018D01*
X011210Y017920D02*
X007720Y017920D01*
X007720Y017821D02*
X011210Y017821D01*
X011210Y017723D02*
X007720Y017723D01*
X007720Y017624D02*
X011210Y017624D01*
X011210Y017526D02*
X007720Y017526D01*
X007720Y017427D02*
X011210Y017427D01*
X011210Y017329D02*
X007720Y017329D01*
X007720Y017033D02*
X011251Y017033D01*
X011345Y016935D02*
X007720Y016935D01*
X007801Y016836D02*
X008199Y016836D01*
X008106Y016738D02*
X007894Y016738D01*
X007894Y016639D02*
X008106Y016639D01*
X008106Y016541D02*
X007894Y016541D01*
X007894Y016442D02*
X008106Y016442D01*
X008147Y016344D02*
X007894Y016344D01*
X007894Y016245D02*
X009034Y016245D01*
X009133Y016147D02*
X007894Y016147D01*
X007894Y016048D02*
X008160Y016048D01*
X008106Y015950D02*
X007894Y015950D01*
X007894Y015851D02*
X008106Y015851D01*
X008106Y015753D02*
X007894Y015753D01*
X007894Y015654D02*
X008106Y015654D01*
X008187Y015556D02*
X007813Y015556D01*
X008210Y015457D02*
X006678Y015457D01*
X006746Y015526D02*
X006746Y015526D01*
X006433Y015359D02*
X008210Y015359D01*
X008210Y015260D02*
X006334Y015260D01*
X005595Y016048D02*
X005552Y016048D01*
X005453Y016147D02*
X005693Y016147D01*
X005681Y016245D02*
X005355Y016245D01*
X005290Y016344D02*
X005582Y016344D01*
X005518Y016442D02*
X005290Y016442D01*
X005290Y016541D02*
X005477Y016541D01*
X005460Y016639D02*
X005290Y016639D01*
X005290Y016738D02*
X005460Y016738D01*
X005476Y016836D02*
X005290Y016836D01*
X005290Y016935D02*
X005517Y016935D01*
X005580Y017033D02*
X005290Y017033D01*
X005352Y017132D02*
X005678Y017132D01*
X005549Y017329D02*
X007280Y017329D01*
X007280Y017427D02*
X005648Y017427D01*
X005746Y017526D02*
X007280Y017526D01*
X007280Y017624D02*
X005845Y017624D01*
X005943Y017723D02*
X007280Y017723D01*
X007280Y017821D02*
X006042Y017821D01*
X006140Y017920D02*
X007280Y017920D01*
X007280Y018018D02*
X006239Y018018D01*
X006284Y018117D02*
X007280Y018117D01*
X007168Y018215D02*
X006290Y018215D01*
X006290Y018314D02*
X007070Y018314D01*
X006998Y018412D02*
X006290Y018412D01*
X006290Y018511D02*
X006957Y018511D01*
X006930Y018609D02*
X006290Y018609D01*
X006290Y018708D02*
X006930Y018708D01*
X006931Y018806D02*
X006290Y018806D01*
X006290Y018905D02*
X006972Y018905D01*
X007013Y019003D02*
X006290Y019003D01*
X006322Y019102D02*
X007106Y019102D01*
X007243Y019200D02*
X006421Y019200D01*
X006519Y019299D02*
X010458Y019299D01*
X010458Y019397D02*
X006618Y019397D01*
X007500Y018690D02*
X007500Y016576D01*
X007488Y016564D01*
X007280Y016935D02*
X006665Y016935D01*
X006764Y016836D02*
X007176Y016836D01*
X007082Y016738D02*
X006862Y016738D01*
X006961Y016639D02*
X007082Y016639D01*
X007082Y016541D02*
X007059Y016541D01*
X007280Y017033D02*
X006420Y017033D01*
X006322Y017132D02*
X007280Y017132D01*
X007280Y017230D02*
X005451Y017230D01*
X004500Y017690D02*
X003500Y016690D01*
X003500Y015690D01*
X003012Y015457D02*
X002291Y015457D01*
X002264Y015359D02*
X003067Y015359D01*
X003166Y015260D02*
X002239Y015260D01*
X002223Y015162D02*
X003229Y015162D01*
X003110Y015063D02*
X002206Y015063D01*
X002190Y014965D02*
X003029Y014965D01*
X002989Y014866D02*
X002174Y014866D01*
X002158Y014768D02*
X002960Y014768D01*
X002960Y014669D02*
X002142Y014669D01*
X002126Y014571D02*
X002965Y014571D01*
X003006Y014472D02*
X002109Y014472D01*
X002093Y014374D02*
X003052Y014374D01*
X003151Y014275D02*
X002077Y014275D01*
X002061Y014177D02*
X003327Y014177D01*
X003673Y014177D02*
X005202Y014177D01*
X005300Y014078D02*
X002045Y014078D01*
X002030Y013980D02*
X005399Y013980D01*
X005497Y013881D02*
X002025Y013881D01*
X002019Y013783D02*
X005596Y013783D01*
X005933Y013757D02*
X005933Y012674D01*
X006311Y013487D02*
X006387Y013487D01*
X006486Y013586D02*
X006155Y013586D01*
X006153Y013684D02*
X006584Y013684D01*
X006683Y013783D02*
X006153Y013783D01*
X006120Y013881D02*
X006781Y013881D01*
X007109Y013389D02*
X007601Y013389D01*
X008297Y013093D02*
X026018Y013093D01*
X026023Y012995D02*
X008395Y012995D01*
X008450Y012896D02*
X026029Y012896D01*
X026034Y012798D02*
X008491Y012798D01*
X008495Y012699D02*
X026039Y012699D01*
X026035Y012601D02*
X008495Y012601D01*
X008458Y012502D02*
X026030Y012502D01*
X026024Y012404D02*
X008414Y012404D01*
X008316Y012305D02*
X026019Y012305D01*
X026014Y012207D02*
X008128Y012207D01*
X005933Y013757D02*
X005000Y014690D01*
X003500Y014690D01*
X003849Y014275D02*
X005103Y014275D01*
X005005Y014374D02*
X003948Y014374D01*
X002971Y015556D02*
X002319Y015556D01*
X002346Y015654D02*
X002960Y015654D01*
X002960Y015753D02*
X002373Y015753D01*
X002401Y015851D02*
X002982Y015851D01*
X003023Y015950D02*
X002428Y015950D01*
X002455Y016048D02*
X003095Y016048D01*
X003193Y016147D02*
X002483Y016147D01*
X002510Y016245D02*
X003280Y016245D01*
X003280Y016344D02*
X002537Y016344D01*
X002565Y016442D02*
X003280Y016442D01*
X003280Y016541D02*
X002593Y016541D01*
X002632Y016639D02*
X003280Y016639D01*
X003280Y016738D02*
X002671Y016738D01*
X002711Y016836D02*
X003335Y016836D01*
X003434Y016935D02*
X002750Y016935D01*
X002789Y017033D02*
X003532Y017033D01*
X003631Y017132D02*
X002828Y017132D01*
X002868Y017230D02*
X003729Y017230D01*
X003828Y017329D02*
X002907Y017329D01*
X002946Y017427D02*
X003926Y017427D01*
X004025Y017526D02*
X002985Y017526D01*
X003025Y017624D02*
X004123Y017624D01*
X004222Y017723D02*
X003064Y017723D01*
X003113Y017821D02*
X004280Y017821D01*
X004280Y017920D02*
X003165Y017920D01*
X003218Y018018D02*
X004280Y018018D01*
X004280Y018117D02*
X003270Y018117D01*
X003322Y018215D02*
X004168Y018215D01*
X004070Y018314D02*
X003374Y018314D01*
X003427Y018412D02*
X003998Y018412D01*
X003957Y018511D02*
X003479Y018511D01*
X003531Y018609D02*
X003930Y018609D01*
X003930Y018708D02*
X003583Y018708D01*
X003635Y018806D02*
X003931Y018806D01*
X003972Y018905D02*
X003689Y018905D01*
X003756Y019003D02*
X004013Y019003D01*
X004106Y019102D02*
X003822Y019102D01*
X003889Y019200D02*
X004243Y019200D01*
X004500Y018690D02*
X004500Y017690D01*
X008790Y015457D02*
X009479Y015457D01*
X009439Y015556D02*
X008837Y015556D01*
X008918Y015654D02*
X009430Y015654D01*
X009430Y015753D02*
X008918Y015753D01*
X008918Y015851D02*
X009428Y015851D01*
X009330Y015950D02*
X008918Y015950D01*
X008864Y016048D02*
X009231Y016048D01*
X009362Y016738D02*
X011542Y016738D01*
X011443Y016836D02*
X009226Y016836D01*
X010148Y016245D02*
X025490Y016245D01*
X025517Y016147D02*
X010349Y016147D01*
X010448Y016048D02*
X025545Y016048D01*
X025572Y015950D02*
X010509Y015950D01*
X010550Y015851D02*
X025599Y015851D01*
X025627Y015753D02*
X010570Y015753D01*
X010570Y015654D02*
X025654Y015654D01*
X025681Y015556D02*
X010561Y015556D01*
X010521Y015457D02*
X025709Y015457D01*
X025736Y015359D02*
X010475Y015359D01*
X010377Y015260D02*
X025761Y015260D01*
X025777Y015162D02*
X010215Y015162D01*
X009785Y015162D02*
X008790Y015162D01*
X008790Y015260D02*
X009623Y015260D01*
X009525Y015359D02*
X008790Y015359D01*
X008790Y015063D02*
X025794Y015063D01*
X025810Y014965D02*
X008790Y014965D01*
X008790Y014866D02*
X025826Y014866D01*
X025842Y014768D02*
X008790Y014768D01*
X010430Y018314D02*
X010966Y018314D01*
X010458Y019102D02*
X010394Y019102D01*
X010458Y019200D02*
X010257Y019200D01*
X010288Y024125D02*
X017712Y024125D01*
X017420Y024224D02*
X010580Y024224D01*
X010922Y024322D02*
X017078Y024322D01*
X016631Y024421D02*
X011369Y024421D01*
X011817Y024519D02*
X016183Y024519D01*
X015518Y024618D02*
X012482Y024618D01*
X001460Y012690D02*
X001475Y013305D01*
X001520Y013919D01*
X001596Y014530D01*
X001701Y015136D01*
X001836Y015737D01*
X002000Y016330D01*
X002193Y016915D01*
X002415Y017489D01*
X002664Y018052D01*
X002941Y018601D01*
X003244Y019137D01*
X003573Y019657D01*
X003928Y020160D01*
X004306Y020645D01*
X004708Y021111D01*
X005133Y021557D01*
X005579Y021982D01*
X006045Y022384D01*
X006530Y022762D01*
X007033Y023117D01*
X007553Y023446D01*
X008089Y023749D01*
X008638Y024026D01*
X009201Y024275D01*
X009775Y024497D01*
X010360Y024690D01*
X010953Y024854D01*
X011554Y024989D01*
X012160Y025094D01*
X012771Y025170D01*
X013385Y025215D01*
X014000Y025230D01*
X014615Y025215D01*
X015229Y025170D01*
X015840Y025094D01*
X016446Y024989D01*
X017047Y024854D01*
X017640Y024690D01*
X018225Y024497D01*
X018799Y024275D01*
X019362Y024026D01*
X019911Y023749D01*
X020447Y023446D01*
X020967Y023117D01*
X021470Y022762D01*
X021955Y022384D01*
X022421Y021982D01*
X022867Y021557D01*
X023292Y021111D01*
X023694Y020645D01*
X024072Y020160D01*
X024427Y019657D01*
X024756Y019137D01*
X025059Y018601D01*
X025336Y018052D01*
X025585Y017489D01*
X025807Y016915D01*
X026000Y016330D01*
X026164Y015737D01*
X026299Y015136D01*
X026404Y014530D01*
X026480Y013919D01*
X026525Y013305D01*
X026540Y012690D01*
X026525Y012075D01*
X026480Y011461D01*
X026404Y010850D01*
X026299Y010244D01*
X026164Y009643D01*
X026000Y009050D01*
X025807Y008465D01*
X025585Y007891D01*
X025336Y007328D01*
X025059Y006779D01*
X024756Y006243D01*
X024427Y005723D01*
X024072Y005220D01*
X023694Y004735D01*
X023292Y004269D01*
X022867Y003823D01*
X022421Y003398D01*
X021955Y002996D01*
X021470Y002618D01*
X020967Y002263D01*
X020447Y001934D01*
X019911Y001631D01*
X019362Y001354D01*
X018799Y001105D01*
X018225Y000883D01*
X017640Y000690D01*
X017047Y000526D01*
X016446Y000391D01*
X015840Y000286D01*
X015229Y000210D01*
X014615Y000165D01*
X014000Y000150D01*
X013385Y000165D01*
X012771Y000210D01*
X012160Y000286D01*
X011554Y000391D01*
X010953Y000526D01*
X010360Y000690D01*
X009775Y000883D01*
X009201Y001105D01*
X008638Y001354D01*
X008089Y001631D01*
X007553Y001934D01*
X007033Y002263D01*
X006530Y002618D01*
X006045Y002996D01*
X005579Y003398D01*
X005133Y003823D01*
X004708Y004269D01*
X004306Y004735D01*
X003928Y005220D01*
X003573Y005723D01*
X003244Y006243D01*
X002941Y006779D01*
X002664Y007328D01*
X002415Y007891D01*
X002193Y008465D01*
X002000Y009050D01*
X001836Y009643D01*
X001701Y010244D01*
X001596Y010850D01*
X001520Y011461D01*
X001475Y012075D01*
X001460Y012690D01*
X009471Y007577D02*
X009529Y007577D01*
X009529Y007479D02*
X009471Y007479D01*
X009792Y007479D02*
X010174Y007479D01*
X010076Y007577D02*
X009888Y007577D01*
X009972Y007774D02*
X010000Y007774D01*
X010000Y007831D02*
X010000Y007831D01*
X009647Y005213D02*
X010353Y005213D01*
X010161Y005115D02*
X009839Y005115D01*
X009937Y005016D02*
X010063Y005016D01*
X010010Y004918D02*
X009990Y004918D01*
X009975Y004425D02*
X010025Y004425D01*
X010099Y004327D02*
X009901Y004327D01*
X009797Y004228D02*
X010203Y004228D01*
X010797Y004228D02*
X011203Y004228D01*
X011099Y004327D02*
X010901Y004327D01*
X010975Y004425D02*
X011025Y004425D01*
X011010Y004918D02*
X010990Y004918D01*
X010937Y005016D02*
X011063Y005016D01*
X011161Y005115D02*
X010839Y005115D01*
X010647Y005213D02*
X011353Y005213D01*
X011647Y005213D02*
X012353Y005213D01*
X012161Y005115D02*
X011839Y005115D01*
X011937Y005016D02*
X012063Y005016D01*
X012010Y004918D02*
X011990Y004918D01*
X011975Y004425D02*
X012025Y004425D01*
X012099Y004327D02*
X011901Y004327D01*
X011797Y004228D02*
X012203Y004228D01*
X012797Y004228D02*
X013203Y004228D01*
X013099Y004327D02*
X012901Y004327D01*
X012975Y004425D02*
X013025Y004425D01*
X013010Y004918D02*
X012990Y004918D01*
X012937Y005016D02*
X013063Y005016D01*
X013161Y005115D02*
X012839Y005115D01*
X012647Y005213D02*
X013280Y005213D01*
X015835Y005213D02*
X016353Y005213D01*
X016161Y005115D02*
X015839Y005115D01*
X015937Y005016D02*
X016063Y005016D01*
X016010Y004918D02*
X015990Y004918D01*
X017826Y007479D02*
X018174Y007479D01*
X018076Y007577D02*
X017924Y007577D01*
X017965Y007676D02*
X018035Y007676D01*
X018000Y007760D02*
X018000Y007831D01*
X018000Y007831D01*
X018000Y007760D01*
X018000Y007774D02*
X018000Y007774D01*
X018942Y008759D02*
X025375Y008759D01*
X025413Y008858D02*
X018869Y008858D01*
X018753Y008956D02*
X025440Y008956D01*
X022445Y004130D02*
X005555Y004130D01*
X005659Y004031D02*
X022341Y004031D01*
X022237Y003933D02*
X005763Y003933D01*
X005867Y003834D02*
X022133Y003834D01*
X022029Y003736D02*
X005971Y003736D01*
X006075Y003637D02*
X021925Y003637D01*
X021821Y003539D02*
X006179Y003539D01*
X006302Y003440D02*
X021698Y003440D01*
X021569Y003342D02*
X006431Y003342D01*
X006561Y003243D02*
X021439Y003243D01*
X021310Y003145D02*
X006690Y003145D01*
X006820Y003046D02*
X021180Y003046D01*
X021050Y002948D02*
X006950Y002948D01*
X007079Y002849D02*
X020921Y002849D01*
X020791Y002751D02*
X007209Y002751D01*
X007363Y002652D02*
X020637Y002652D01*
X020473Y002554D02*
X007527Y002554D01*
X007691Y002455D02*
X020309Y002455D01*
X020146Y002357D02*
X007854Y002357D01*
X008018Y002258D02*
X019982Y002258D01*
X019818Y002160D02*
X008182Y002160D01*
X008346Y002061D02*
X019654Y002061D01*
X019446Y001963D02*
X008554Y001963D01*
X008767Y001864D02*
X019233Y001864D01*
X019020Y001766D02*
X008980Y001766D01*
X009193Y001667D02*
X018807Y001667D01*
X018594Y001569D02*
X009406Y001569D01*
X009646Y001470D02*
X018354Y001470D01*
X018061Y001372D02*
X009939Y001372D01*
X010231Y001273D02*
X017769Y001273D01*
X017477Y001175D02*
X010523Y001175D01*
X010835Y001076D02*
X017165Y001076D01*
X016717Y000978D02*
X011283Y000978D01*
X011730Y000879D02*
X016270Y000879D01*
X015693Y000781D02*
X012307Y000781D01*
X013212Y000682D02*
X014788Y000682D01*
X009353Y005213D02*
X008147Y005213D01*
X008339Y005115D02*
X009161Y005115D01*
X009063Y005016D02*
X008437Y005016D01*
X008490Y004918D02*
X009010Y004918D01*
X008969Y004819D02*
X008531Y004819D01*
X008540Y004721D02*
X008960Y004721D01*
X008960Y004622D02*
X008540Y004622D01*
X008516Y004524D02*
X008984Y004524D01*
X009025Y004425D02*
X008475Y004425D01*
X008401Y004327D02*
X009099Y004327D01*
X009203Y004228D02*
X008297Y004228D01*
X007703Y004228D02*
X005451Y004228D01*
X005347Y004327D02*
X007599Y004327D01*
X007525Y004425D02*
X005246Y004425D01*
X005162Y004524D02*
X007484Y004524D01*
X007460Y004622D02*
X005079Y004622D01*
D11*
X009500Y007860D02*
X009500Y008520D01*
X010500Y008520D02*
X010500Y007860D01*
X011500Y007860D02*
X011500Y008520D01*
X012500Y008520D02*
X012500Y007860D01*
X013500Y007860D02*
X013500Y008520D01*
X014500Y008520D02*
X014500Y007860D01*
X015500Y007860D02*
X015500Y008520D01*
X016500Y008520D02*
X016500Y007860D01*
X017500Y007860D02*
X017500Y008520D01*
X018500Y008520D02*
X018500Y007860D01*
X018500Y010860D02*
X018500Y011520D01*
X017500Y011520D02*
X017500Y010860D01*
X016500Y010860D02*
X016500Y011520D01*
X015500Y011520D02*
X015500Y010860D01*
X014500Y010860D02*
X014500Y011520D01*
X013500Y011520D02*
X013500Y010860D01*
X012500Y010860D02*
X012500Y011520D01*
X011500Y011520D02*
X011500Y010860D01*
X010500Y010860D02*
X010500Y011520D01*
X009500Y011520D02*
X009500Y010860D01*
D12*
X009343Y011190D02*
X009345Y011215D01*
X009351Y011239D01*
X009360Y011261D01*
X009373Y011282D01*
X009389Y011301D01*
X009408Y011317D01*
X009429Y011330D01*
X009451Y011339D01*
X009475Y011345D01*
X009500Y011347D01*
X009525Y011345D01*
X009549Y011339D01*
X009571Y011330D01*
X009592Y011317D01*
X009611Y011301D01*
X009627Y011282D01*
X009640Y011261D01*
X009649Y011239D01*
X009655Y011215D01*
X009657Y011190D01*
X009655Y011165D01*
X009649Y011141D01*
X009640Y011119D01*
X009627Y011098D01*
X009611Y011079D01*
X009592Y011063D01*
X009571Y011050D01*
X009549Y011041D01*
X009525Y011035D01*
X009500Y011033D01*
X009475Y011035D01*
X009451Y011041D01*
X009429Y011050D01*
X009408Y011063D01*
X009389Y011079D01*
X009373Y011098D01*
X009360Y011119D01*
X009351Y011141D01*
X009345Y011165D01*
X009343Y011190D01*
X010343Y011190D02*
X010345Y011215D01*
X010351Y011239D01*
X010360Y011261D01*
X010373Y011282D01*
X010389Y011301D01*
X010408Y011317D01*
X010429Y011330D01*
X010451Y011339D01*
X010475Y011345D01*
X010500Y011347D01*
X010525Y011345D01*
X010549Y011339D01*
X010571Y011330D01*
X010592Y011317D01*
X010611Y011301D01*
X010627Y011282D01*
X010640Y011261D01*
X010649Y011239D01*
X010655Y011215D01*
X010657Y011190D01*
X010655Y011165D01*
X010649Y011141D01*
X010640Y011119D01*
X010627Y011098D01*
X010611Y011079D01*
X010592Y011063D01*
X010571Y011050D01*
X010549Y011041D01*
X010525Y011035D01*
X010500Y011033D01*
X010475Y011035D01*
X010451Y011041D01*
X010429Y011050D01*
X010408Y011063D01*
X010389Y011079D01*
X010373Y011098D01*
X010360Y011119D01*
X010351Y011141D01*
X010345Y011165D01*
X010343Y011190D01*
X011343Y011190D02*
X011345Y011215D01*
X011351Y011239D01*
X011360Y011261D01*
X011373Y011282D01*
X011389Y011301D01*
X011408Y011317D01*
X011429Y011330D01*
X011451Y011339D01*
X011475Y011345D01*
X011500Y011347D01*
X011525Y011345D01*
X011549Y011339D01*
X011571Y011330D01*
X011592Y011317D01*
X011611Y011301D01*
X011627Y011282D01*
X011640Y011261D01*
X011649Y011239D01*
X011655Y011215D01*
X011657Y011190D01*
X011655Y011165D01*
X011649Y011141D01*
X011640Y011119D01*
X011627Y011098D01*
X011611Y011079D01*
X011592Y011063D01*
X011571Y011050D01*
X011549Y011041D01*
X011525Y011035D01*
X011500Y011033D01*
X011475Y011035D01*
X011451Y011041D01*
X011429Y011050D01*
X011408Y011063D01*
X011389Y011079D01*
X011373Y011098D01*
X011360Y011119D01*
X011351Y011141D01*
X011345Y011165D01*
X011343Y011190D01*
X012343Y011190D02*
X012345Y011215D01*
X012351Y011239D01*
X012360Y011261D01*
X012373Y011282D01*
X012389Y011301D01*
X012408Y011317D01*
X012429Y011330D01*
X012451Y011339D01*
X012475Y011345D01*
X012500Y011347D01*
X012525Y011345D01*
X012549Y011339D01*
X012571Y011330D01*
X012592Y011317D01*
X012611Y011301D01*
X012627Y011282D01*
X012640Y011261D01*
X012649Y011239D01*
X012655Y011215D01*
X012657Y011190D01*
X012655Y011165D01*
X012649Y011141D01*
X012640Y011119D01*
X012627Y011098D01*
X012611Y011079D01*
X012592Y011063D01*
X012571Y011050D01*
X012549Y011041D01*
X012525Y011035D01*
X012500Y011033D01*
X012475Y011035D01*
X012451Y011041D01*
X012429Y011050D01*
X012408Y011063D01*
X012389Y011079D01*
X012373Y011098D01*
X012360Y011119D01*
X012351Y011141D01*
X012345Y011165D01*
X012343Y011190D01*
X013343Y011190D02*
X013345Y011215D01*
X013351Y011239D01*
X013360Y011261D01*
X013373Y011282D01*
X013389Y011301D01*
X013408Y011317D01*
X013429Y011330D01*
X013451Y011339D01*
X013475Y011345D01*
X013500Y011347D01*
X013525Y011345D01*
X013549Y011339D01*
X013571Y011330D01*
X013592Y011317D01*
X013611Y011301D01*
X013627Y011282D01*
X013640Y011261D01*
X013649Y011239D01*
X013655Y011215D01*
X013657Y011190D01*
X013655Y011165D01*
X013649Y011141D01*
X013640Y011119D01*
X013627Y011098D01*
X013611Y011079D01*
X013592Y011063D01*
X013571Y011050D01*
X013549Y011041D01*
X013525Y011035D01*
X013500Y011033D01*
X013475Y011035D01*
X013451Y011041D01*
X013429Y011050D01*
X013408Y011063D01*
X013389Y011079D01*
X013373Y011098D01*
X013360Y011119D01*
X013351Y011141D01*
X013345Y011165D01*
X013343Y011190D01*
X014343Y011190D02*
X014345Y011215D01*
X014351Y011239D01*
X014360Y011261D01*
X014373Y011282D01*
X014389Y011301D01*
X014408Y011317D01*
X014429Y011330D01*
X014451Y011339D01*
X014475Y011345D01*
X014500Y011347D01*
X014525Y011345D01*
X014549Y011339D01*
X014571Y011330D01*
X014592Y011317D01*
X014611Y011301D01*
X014627Y011282D01*
X014640Y011261D01*
X014649Y011239D01*
X014655Y011215D01*
X014657Y011190D01*
X014655Y011165D01*
X014649Y011141D01*
X014640Y011119D01*
X014627Y011098D01*
X014611Y011079D01*
X014592Y011063D01*
X014571Y011050D01*
X014549Y011041D01*
X014525Y011035D01*
X014500Y011033D01*
X014475Y011035D01*
X014451Y011041D01*
X014429Y011050D01*
X014408Y011063D01*
X014389Y011079D01*
X014373Y011098D01*
X014360Y011119D01*
X014351Y011141D01*
X014345Y011165D01*
X014343Y011190D01*
X015343Y011190D02*
X015345Y011215D01*
X015351Y011239D01*
X015360Y011261D01*
X015373Y011282D01*
X015389Y011301D01*
X015408Y011317D01*
X015429Y011330D01*
X015451Y011339D01*
X015475Y011345D01*
X015500Y011347D01*
X015525Y011345D01*
X015549Y011339D01*
X015571Y011330D01*
X015592Y011317D01*
X015611Y011301D01*
X015627Y011282D01*
X015640Y011261D01*
X015649Y011239D01*
X015655Y011215D01*
X015657Y011190D01*
X015655Y011165D01*
X015649Y011141D01*
X015640Y011119D01*
X015627Y011098D01*
X015611Y011079D01*
X015592Y011063D01*
X015571Y011050D01*
X015549Y011041D01*
X015525Y011035D01*
X015500Y011033D01*
X015475Y011035D01*
X015451Y011041D01*
X015429Y011050D01*
X015408Y011063D01*
X015389Y011079D01*
X015373Y011098D01*
X015360Y011119D01*
X015351Y011141D01*
X015345Y011165D01*
X015343Y011190D01*
X016343Y011190D02*
X016345Y011215D01*
X016351Y011239D01*
X016360Y011261D01*
X016373Y011282D01*
X016389Y011301D01*
X016408Y011317D01*
X016429Y011330D01*
X016451Y011339D01*
X016475Y011345D01*
X016500Y011347D01*
X016525Y011345D01*
X016549Y011339D01*
X016571Y011330D01*
X016592Y011317D01*
X016611Y011301D01*
X016627Y011282D01*
X016640Y011261D01*
X016649Y011239D01*
X016655Y011215D01*
X016657Y011190D01*
X016655Y011165D01*
X016649Y011141D01*
X016640Y011119D01*
X016627Y011098D01*
X016611Y011079D01*
X016592Y011063D01*
X016571Y011050D01*
X016549Y011041D01*
X016525Y011035D01*
X016500Y011033D01*
X016475Y011035D01*
X016451Y011041D01*
X016429Y011050D01*
X016408Y011063D01*
X016389Y011079D01*
X016373Y011098D01*
X016360Y011119D01*
X016351Y011141D01*
X016345Y011165D01*
X016343Y011190D01*
X017343Y011190D02*
X017345Y011215D01*
X017351Y011239D01*
X017360Y011261D01*
X017373Y011282D01*
X017389Y011301D01*
X017408Y011317D01*
X017429Y011330D01*
X017451Y011339D01*
X017475Y011345D01*
X017500Y011347D01*
X017525Y011345D01*
X017549Y011339D01*
X017571Y011330D01*
X017592Y011317D01*
X017611Y011301D01*
X017627Y011282D01*
X017640Y011261D01*
X017649Y011239D01*
X017655Y011215D01*
X017657Y011190D01*
X017655Y011165D01*
X017649Y011141D01*
X017640Y011119D01*
X017627Y011098D01*
X017611Y011079D01*
X017592Y011063D01*
X017571Y011050D01*
X017549Y011041D01*
X017525Y011035D01*
X017500Y011033D01*
X017475Y011035D01*
X017451Y011041D01*
X017429Y011050D01*
X017408Y011063D01*
X017389Y011079D01*
X017373Y011098D01*
X017360Y011119D01*
X017351Y011141D01*
X017345Y011165D01*
X017343Y011190D01*
X018343Y011190D02*
X018345Y011215D01*
X018351Y011239D01*
X018360Y011261D01*
X018373Y011282D01*
X018389Y011301D01*
X018408Y011317D01*
X018429Y011330D01*
X018451Y011339D01*
X018475Y011345D01*
X018500Y011347D01*
X018525Y011345D01*
X018549Y011339D01*
X018571Y011330D01*
X018592Y011317D01*
X018611Y011301D01*
X018627Y011282D01*
X018640Y011261D01*
X018649Y011239D01*
X018655Y011215D01*
X018657Y011190D01*
X018655Y011165D01*
X018649Y011141D01*
X018640Y011119D01*
X018627Y011098D01*
X018611Y011079D01*
X018592Y011063D01*
X018571Y011050D01*
X018549Y011041D01*
X018525Y011035D01*
X018500Y011033D01*
X018475Y011035D01*
X018451Y011041D01*
X018429Y011050D01*
X018408Y011063D01*
X018389Y011079D01*
X018373Y011098D01*
X018360Y011119D01*
X018351Y011141D01*
X018345Y011165D01*
X018343Y011190D01*
X018343Y008190D02*
X018345Y008215D01*
X018351Y008239D01*
X018360Y008261D01*
X018373Y008282D01*
X018389Y008301D01*
X018408Y008317D01*
X018429Y008330D01*
X018451Y008339D01*
X018475Y008345D01*
X018500Y008347D01*
X018525Y008345D01*
X018549Y008339D01*
X018571Y008330D01*
X018592Y008317D01*
X018611Y008301D01*
X018627Y008282D01*
X018640Y008261D01*
X018649Y008239D01*
X018655Y008215D01*
X018657Y008190D01*
X018655Y008165D01*
X018649Y008141D01*
X018640Y008119D01*
X018627Y008098D01*
X018611Y008079D01*
X018592Y008063D01*
X018571Y008050D01*
X018549Y008041D01*
X018525Y008035D01*
X018500Y008033D01*
X018475Y008035D01*
X018451Y008041D01*
X018429Y008050D01*
X018408Y008063D01*
X018389Y008079D01*
X018373Y008098D01*
X018360Y008119D01*
X018351Y008141D01*
X018345Y008165D01*
X018343Y008190D01*
X017343Y008190D02*
X017345Y008215D01*
X017351Y008239D01*
X017360Y008261D01*
X017373Y008282D01*
X017389Y008301D01*
X017408Y008317D01*
X017429Y008330D01*
X017451Y008339D01*
X017475Y008345D01*
X017500Y008347D01*
X017525Y008345D01*
X017549Y008339D01*
X017571Y008330D01*
X017592Y008317D01*
X017611Y008301D01*
X017627Y008282D01*
X017640Y008261D01*
X017649Y008239D01*
X017655Y008215D01*
X017657Y008190D01*
X017655Y008165D01*
X017649Y008141D01*
X017640Y008119D01*
X017627Y008098D01*
X017611Y008079D01*
X017592Y008063D01*
X017571Y008050D01*
X017549Y008041D01*
X017525Y008035D01*
X017500Y008033D01*
X017475Y008035D01*
X017451Y008041D01*
X017429Y008050D01*
X017408Y008063D01*
X017389Y008079D01*
X017373Y008098D01*
X017360Y008119D01*
X017351Y008141D01*
X017345Y008165D01*
X017343Y008190D01*
X016343Y008190D02*
X016345Y008215D01*
X016351Y008239D01*
X016360Y008261D01*
X016373Y008282D01*
X016389Y008301D01*
X016408Y008317D01*
X016429Y008330D01*
X016451Y008339D01*
X016475Y008345D01*
X016500Y008347D01*
X016525Y008345D01*
X016549Y008339D01*
X016571Y008330D01*
X016592Y008317D01*
X016611Y008301D01*
X016627Y008282D01*
X016640Y008261D01*
X016649Y008239D01*
X016655Y008215D01*
X016657Y008190D01*
X016655Y008165D01*
X016649Y008141D01*
X016640Y008119D01*
X016627Y008098D01*
X016611Y008079D01*
X016592Y008063D01*
X016571Y008050D01*
X016549Y008041D01*
X016525Y008035D01*
X016500Y008033D01*
X016475Y008035D01*
X016451Y008041D01*
X016429Y008050D01*
X016408Y008063D01*
X016389Y008079D01*
X016373Y008098D01*
X016360Y008119D01*
X016351Y008141D01*
X016345Y008165D01*
X016343Y008190D01*
X015343Y008190D02*
X015345Y008215D01*
X015351Y008239D01*
X015360Y008261D01*
X015373Y008282D01*
X015389Y008301D01*
X015408Y008317D01*
X015429Y008330D01*
X015451Y008339D01*
X015475Y008345D01*
X015500Y008347D01*
X015525Y008345D01*
X015549Y008339D01*
X015571Y008330D01*
X015592Y008317D01*
X015611Y008301D01*
X015627Y008282D01*
X015640Y008261D01*
X015649Y008239D01*
X015655Y008215D01*
X015657Y008190D01*
X015655Y008165D01*
X015649Y008141D01*
X015640Y008119D01*
X015627Y008098D01*
X015611Y008079D01*
X015592Y008063D01*
X015571Y008050D01*
X015549Y008041D01*
X015525Y008035D01*
X015500Y008033D01*
X015475Y008035D01*
X015451Y008041D01*
X015429Y008050D01*
X015408Y008063D01*
X015389Y008079D01*
X015373Y008098D01*
X015360Y008119D01*
X015351Y008141D01*
X015345Y008165D01*
X015343Y008190D01*
X014343Y008190D02*
X014345Y008215D01*
X014351Y008239D01*
X014360Y008261D01*
X014373Y008282D01*
X014389Y008301D01*
X014408Y008317D01*
X014429Y008330D01*
X014451Y008339D01*
X014475Y008345D01*
X014500Y008347D01*
X014525Y008345D01*
X014549Y008339D01*
X014571Y008330D01*
X014592Y008317D01*
X014611Y008301D01*
X014627Y008282D01*
X014640Y008261D01*
X014649Y008239D01*
X014655Y008215D01*
X014657Y008190D01*
X014655Y008165D01*
X014649Y008141D01*
X014640Y008119D01*
X014627Y008098D01*
X014611Y008079D01*
X014592Y008063D01*
X014571Y008050D01*
X014549Y008041D01*
X014525Y008035D01*
X014500Y008033D01*
X014475Y008035D01*
X014451Y008041D01*
X014429Y008050D01*
X014408Y008063D01*
X014389Y008079D01*
X014373Y008098D01*
X014360Y008119D01*
X014351Y008141D01*
X014345Y008165D01*
X014343Y008190D01*
X013343Y008190D02*
X013345Y008215D01*
X013351Y008239D01*
X013360Y008261D01*
X013373Y008282D01*
X013389Y008301D01*
X013408Y008317D01*
X013429Y008330D01*
X013451Y008339D01*
X013475Y008345D01*
X013500Y008347D01*
X013525Y008345D01*
X013549Y008339D01*
X013571Y008330D01*
X013592Y008317D01*
X013611Y008301D01*
X013627Y008282D01*
X013640Y008261D01*
X013649Y008239D01*
X013655Y008215D01*
X013657Y008190D01*
X013655Y008165D01*
X013649Y008141D01*
X013640Y008119D01*
X013627Y008098D01*
X013611Y008079D01*
X013592Y008063D01*
X013571Y008050D01*
X013549Y008041D01*
X013525Y008035D01*
X013500Y008033D01*
X013475Y008035D01*
X013451Y008041D01*
X013429Y008050D01*
X013408Y008063D01*
X013389Y008079D01*
X013373Y008098D01*
X013360Y008119D01*
X013351Y008141D01*
X013345Y008165D01*
X013343Y008190D01*
X012343Y008190D02*
X012345Y008215D01*
X012351Y008239D01*
X012360Y008261D01*
X012373Y008282D01*
X012389Y008301D01*
X012408Y008317D01*
X012429Y008330D01*
X012451Y008339D01*
X012475Y008345D01*
X012500Y008347D01*
X012525Y008345D01*
X012549Y008339D01*
X012571Y008330D01*
X012592Y008317D01*
X012611Y008301D01*
X012627Y008282D01*
X012640Y008261D01*
X012649Y008239D01*
X012655Y008215D01*
X012657Y008190D01*
X012655Y008165D01*
X012649Y008141D01*
X012640Y008119D01*
X012627Y008098D01*
X012611Y008079D01*
X012592Y008063D01*
X012571Y008050D01*
X012549Y008041D01*
X012525Y008035D01*
X012500Y008033D01*
X012475Y008035D01*
X012451Y008041D01*
X012429Y008050D01*
X012408Y008063D01*
X012389Y008079D01*
X012373Y008098D01*
X012360Y008119D01*
X012351Y008141D01*
X012345Y008165D01*
X012343Y008190D01*
X011343Y008190D02*
X011345Y008215D01*
X011351Y008239D01*
X011360Y008261D01*
X011373Y008282D01*
X011389Y008301D01*
X011408Y008317D01*
X011429Y008330D01*
X011451Y008339D01*
X011475Y008345D01*
X011500Y008347D01*
X011525Y008345D01*
X011549Y008339D01*
X011571Y008330D01*
X011592Y008317D01*
X011611Y008301D01*
X011627Y008282D01*
X011640Y008261D01*
X011649Y008239D01*
X011655Y008215D01*
X011657Y008190D01*
X011655Y008165D01*
X011649Y008141D01*
X011640Y008119D01*
X011627Y008098D01*
X011611Y008079D01*
X011592Y008063D01*
X011571Y008050D01*
X011549Y008041D01*
X011525Y008035D01*
X011500Y008033D01*
X011475Y008035D01*
X011451Y008041D01*
X011429Y008050D01*
X011408Y008063D01*
X011389Y008079D01*
X011373Y008098D01*
X011360Y008119D01*
X011351Y008141D01*
X011345Y008165D01*
X011343Y008190D01*
X010343Y008190D02*
X010345Y008215D01*
X010351Y008239D01*
X010360Y008261D01*
X010373Y008282D01*
X010389Y008301D01*
X010408Y008317D01*
X010429Y008330D01*
X010451Y008339D01*
X010475Y008345D01*
X010500Y008347D01*
X010525Y008345D01*
X010549Y008339D01*
X010571Y008330D01*
X010592Y008317D01*
X010611Y008301D01*
X010627Y008282D01*
X010640Y008261D01*
X010649Y008239D01*
X010655Y008215D01*
X010657Y008190D01*
X010655Y008165D01*
X010649Y008141D01*
X010640Y008119D01*
X010627Y008098D01*
X010611Y008079D01*
X010592Y008063D01*
X010571Y008050D01*
X010549Y008041D01*
X010525Y008035D01*
X010500Y008033D01*
X010475Y008035D01*
X010451Y008041D01*
X010429Y008050D01*
X010408Y008063D01*
X010389Y008079D01*
X010373Y008098D01*
X010360Y008119D01*
X010351Y008141D01*
X010345Y008165D01*
X010343Y008190D01*
X009343Y008190D02*
X009345Y008215D01*
X009351Y008239D01*
X009360Y008261D01*
X009373Y008282D01*
X009389Y008301D01*
X009408Y008317D01*
X009429Y008330D01*
X009451Y008339D01*
X009475Y008345D01*
X009500Y008347D01*
X009525Y008345D01*
X009549Y008339D01*
X009571Y008330D01*
X009592Y008317D01*
X009611Y008301D01*
X009627Y008282D01*
X009640Y008261D01*
X009649Y008239D01*
X009655Y008215D01*
X009657Y008190D01*
X009655Y008165D01*
X009649Y008141D01*
X009640Y008119D01*
X009627Y008098D01*
X009611Y008079D01*
X009592Y008063D01*
X009571Y008050D01*
X009549Y008041D01*
X009525Y008035D01*
X009500Y008033D01*
X009475Y008035D01*
X009451Y008041D01*
X009429Y008050D01*
X009408Y008063D01*
X009389Y008079D01*
X009373Y008098D01*
X009360Y008119D01*
X009351Y008141D01*
X009345Y008165D01*
X009343Y008190D01*
D13*
X009500Y004690D03*
X010500Y004690D03*
X011500Y004690D03*
X012500Y004690D03*
X013500Y004690D03*
X014500Y004690D03*
X015500Y004690D03*
X016500Y004690D03*
X017500Y004690D03*
X018500Y004690D03*
X008000Y004690D03*
X003500Y014690D03*
X003500Y015690D03*
X006000Y015690D03*
X006000Y016690D03*
D14*
X007500Y011190D03*
X007500Y008190D03*
D15*
X007488Y015816D03*
X007488Y016190D03*
X007488Y016564D03*
X008512Y016564D03*
X008512Y015816D03*
D16*
X008000Y013690D03*
X008000Y012690D03*
X017000Y019690D03*
X018000Y019690D03*
D17*
X018000Y017690D03*
X015000Y017690D03*
X010000Y018690D03*
X007500Y018690D03*
X004500Y018690D03*
X010000Y015690D03*
X020500Y014190D03*
X022000Y014190D03*
X022000Y011190D03*
X020500Y011190D03*
D18*
X005933Y012280D02*
X005933Y013068D01*
X005146Y010706D02*
X004358Y010706D01*
X003453Y012280D02*
X003453Y013068D01*
D19*
X015126Y019217D03*
X015500Y019217D03*
X015874Y019217D03*
X015874Y020162D03*
X015500Y020162D03*
X015126Y020162D03*
X016126Y021717D03*
X016500Y021717D03*
X016874Y021717D03*
X016874Y022662D03*
X016126Y022662D03*
D20*
X013461Y022820D03*
X013461Y021560D03*
D21*
X010748Y021190D03*
X008252Y021190D03*
D22*
X013000Y019438D03*
X013000Y016942D03*
D23*
X005760Y009190D02*
X005240Y009190D01*
X005240Y008190D02*
X005760Y008190D01*
X005760Y007190D02*
X005240Y007190D01*
D24*
X005933Y012674D02*
X005984Y012674D01*
X007000Y013690D01*
X008000Y013690D01*
X008500Y014190D01*
X008500Y015804D01*
X008512Y015816D01*
X008512Y016564D02*
X009126Y016564D01*
X010000Y015690D01*
X011500Y017190D02*
X011500Y018190D01*
X011000Y018690D01*
X010748Y018942D01*
X010748Y021190D01*
X010130Y022820D02*
X008500Y021190D01*
X008252Y021190D01*
X008252Y020442D01*
X007500Y019690D01*
X006500Y019690D01*
X006000Y019190D01*
X006000Y018190D01*
X005000Y017190D01*
X005000Y016190D01*
X005500Y015690D01*
X006000Y015690D01*
X006500Y015690D01*
X006626Y015816D01*
X007488Y015816D01*
X007500Y016190D02*
X007000Y016190D01*
X006500Y016690D01*
X006000Y016690D01*
X008000Y013690D02*
X007984Y013674D01*
X011500Y017190D02*
X011748Y016942D01*
X013000Y016942D01*
X011000Y018690D02*
X010000Y018690D01*
X013461Y021560D02*
X015969Y021560D01*
X015969Y020257D01*
X015874Y020162D01*
X015874Y019217D01*
X015500Y020162D02*
X015126Y020162D01*
X016500Y020690D02*
X017000Y020190D01*
X017000Y019690D01*
X018000Y019690D02*
X018000Y020690D01*
X016972Y021717D01*
X016874Y021717D01*
X016500Y021717D02*
X016500Y020690D01*
X015969Y021560D02*
X016126Y021717D01*
X016126Y022662D02*
X015969Y022820D01*
X013461Y022820D01*
X010130Y022820D01*
X016126Y022662D02*
X016874Y022662D01*
X018000Y019690D02*
X018000Y017690D01*
M02*
