%
M48
M72
T01C0.0276
T02C0.0315
T03C0.0320
T04C0.0394
T05C0.0400
%
T01
X8000Y12690
X8000Y13690
X17000Y19690
X18000Y19690
T02
X17500Y11190
X17500Y11190
X16500Y11190
X16500Y11190
X15500Y11190
X15500Y11190
X14500Y11190
X14500Y11190
X13500Y11190
X13500Y11190
X12500Y11190
X12500Y11190
X11500Y11190
X11500Y11190
X10500Y11190
X10500Y11190
X9500Y11190
X9500Y11190
X9500Y8190
X9500Y8190
X10500Y8190
X10500Y8190
X11500Y8190
X11500Y8190
X12500Y8190
X12500Y8190
X13500Y8190
X13500Y8190
X14500Y8190
X14500Y8190
X15500Y8190
X15500Y8190
X16500Y8190
X16500Y8190
X17500Y8190
X17500Y8190
X18500Y8190
X18500Y8190
X18500Y11190
X18500Y11190
T03
X5500Y7190
X5500Y8190
X5500Y9190
X7500Y8190
X7500Y11190
X3500Y14690
X3500Y15690
T04
X3453Y12674
X4752Y10706
X5933Y12674
T05
X6000Y15690
X6000Y16690
X4500Y18690
X7500Y18690
X10000Y18690
X10000Y15690
X15000Y17690
X18000Y17690
X20500Y14190
X22000Y14190
X22000Y11190
X20500Y11190
X18500Y4690
X17500Y4690
X16500Y4690
X15500Y4690
X14500Y4690
X13500Y4690
X12500Y4690
X11500Y4690
X10500Y4690
X9500Y4690
X8000Y4690
M30
